<?xml version="1.0" encoding="utf-8"?>
<svg viewBox="44.411 43.289 393.616 400.869" xmlns="http://www.w3.org/2000/svg">
    <path d="M 142.707 53.966 C 147.092 59.199 149.197 65.69 151.707 71.966 C 152.558 74.03 153.412 76.093 154.27 78.154 C 154.642 79.055 155.015 79.956 155.399 80.884 C 156.382 83.2 157.389 85.498 158.418 87.794 C 161.303 94.262 164.059 100.785 166.826 107.305 C 167.769 109.528 168.716 111.75 169.662 113.972 C 170.273 115.409 170.883 116.846 171.492 118.282 C 171.771 118.935 172.049 119.587 172.335 120.259 C 174.252 124.785 176.005 129.355 177.707 133.966 C 177.955 133.43 178.202 132.894 178.457 132.341 C 180.014 129.384 181.742 126.669 183.707 123.966 C 184.367 123.966 185.027 123.966 185.707 123.966 C 186.037 121.986 186.367 120.006 186.707 117.966 C 187.367 117.966 188.027 117.966 188.707 117.966 C 188.707 117.306 188.707 116.646 188.707 115.966 C 189.367 115.966 190.027 115.966 190.707 115.966 C 190.934 115.45 191.161 114.935 191.395 114.404 C 195.588 106.615 200.362 102.715 207.707 97.966 C 208.543 97.365 209.378 96.765 210.239 96.146 C 217.877 90.831 225.825 88.345 234.707 85.966 C 235.967 85.597 237.226 85.229 238.524 84.849 C 243.475 83.634 248.382 83.624 253.457 83.654 C 254.434 83.658 255.41 83.662 256.416 83.666 C 263.589 83.779 269.879 84.732 276.707 86.966 C 277.831 87.256 278.955 87.546 280.114 87.845 C 288.223 89.952 295.369 92.934 302.707 96.966 C 302.707 97.626 302.707 98.286 302.707 98.966 C 303.432 99.214 304.156 99.461 304.903 99.716 C 313.64 103.61 319.852 112.006 324.707 119.966 C 325.18 120.7 325.653 121.433 326.141 122.189 C 332.397 133.012 332.686 146.775 333.707 158.966 C 334.099 157.896 334.099 157.896 334.498 156.805 C 343.235 132.973 343.235 132.973 347.707 122.091 C 351.616 112.553 354.932 102.82 358.207 93.051 C 365.818 70.498 365.818 70.498 375.082 64.404 C 380.084 63.57 384.516 63.717 388.996 66.271 C 392.228 68.633 394.469 70.609 396.707 73.966 C 396.562 81.704 394.001 87.834 390.895 94.841 C 390.408 95.962 389.922 97.083 389.421 98.239 C 387.863 101.82 386.286 105.393 384.707 108.966 C 383.656 111.37 382.605 113.773 381.555 116.177 C 377.022 126.504 372.444 136.774 367.309 146.818 C 365.41 150.551 363.573 154.31 361.77 158.091 C 361.309 159.034 361.309 159.034 360.839 159.996 C 359.266 163.323 358.707 165.196 358.707 168.966 C 359.278 169.139 359.849 169.312 360.438 169.489 C 374.52 174.37 387.216 185.837 394.082 198.966 C 399.625 210.927 400.885 221.87 400.707 234.966 C 401.617 235.263 402.527 235.559 403.465 235.864 C 406.984 237.06 410.308 238.47 413.707 239.966 C 413.707 240.626 413.707 241.286 413.707 241.966 C 414.367 241.966 415.027 241.966 415.707 241.966 C 416.753 245.836 416.655 248.047 415.196 251.767 C 414.849 252.662 414.503 253.557 414.147 254.48 C 413.589 255.865 413.589 255.865 413.02 257.279 C 412.667 258.191 412.315 259.103 411.951 260.042 C 410.376 264.061 408.746 267.992 406.75 271.822 C 405.058 275.097 403.752 278.426 402.473 281.884 C 399.604 289.483 396.13 296.733 392.561 304.021 C 391.466 306.262 390.381 308.507 389.297 310.753 C 385.044 319.514 380.52 328.067 375.674 336.514 C 373.918 339.596 372.233 342.702 370.582 345.841 C 367.676 351.183 364.304 356.069 360.707 360.966 C 359.688 362.387 359.688 362.387 358.649 363.837 C 346.486 380.51 332.715 393.798 314.707 403.966 C 313.037 404.961 311.369 405.958 309.707 406.966 C 310.703 407.239 310.703 407.239 311.719 407.517 C 321.719 410.364 321.719 410.364 324.707 412.966 C 325.679 416.011 326.058 417.944 325.012 420.993 C 322.12 425.365 316.571 426.666 311.707 427.966 C 308.568 428.509 305.427 428.821 302.254 429.099 C 301.344 429.181 300.435 429.264 299.498 429.349 C 289.611 430.168 279.739 430.268 269.824 430.227 C 266.775 430.216 263.727 430.227 260.678 430.239 C 243.677 430.252 226.439 429.654 209.77 426.029 C 208.576 425.794 208.576 425.794 207.358 425.554 C 201.758 424.393 195.979 423.095 191.707 419.091 C 190.707 416.966 190.707 416.966 190.582 414.529 C 192.775 409.535 197.971 407.256 202.707 404.966 C 201.717 404.458 200.727 403.95 199.707 403.427 C 192.595 399.735 185.946 396.035 179.707 390.966 C 178.397 390.005 177.085 389.046 175.77 388.091 C 169.055 383.035 162.96 377.536 157.535 371.111 C 154.692 367.775 151.697 364.579 148.723 361.361 C 146.736 359.001 145.237 356.638 143.707 353.966 C 142.882 352.731 142.049 351.502 141.207 350.279 C 133.791 339.21 126.942 327.737 120.707 315.966 C 119.708 314.153 118.708 312.34 117.707 310.529 C 111.916 299.893 106.774 288.959 101.707 277.966 C 101.264 277.007 100.82 276.048 100.364 275.06 C 99.129 272.369 97.913 269.67 96.707 266.966 C 96.445 266.378 96.183 265.791 95.912 265.185 C 95.066 263.282 94.229 261.375 93.395 259.466 C 92.883 258.301 92.371 257.135 91.844 255.935 C 90.707 252.966 90.707 252.966 90.707 249.966 C 90.047 249.966 89.387 249.966 88.707 249.966 C 87.582 244.216 87.582 244.216 88.707 241.966 C 89.367 241.966 90.027 241.966 90.707 241.966 C 90.707 241.306 90.707 240.646 90.707 239.966 C 92.389 239.142 94.078 238.332 95.77 237.529 C 96.709 237.076 97.649 236.624 98.617 236.157 C 101.707 234.966 101.707 234.966 108.707 233.966 C 109.367 239.906 110.027 245.846 110.707 251.966 C 119.433 254.314 127.991 255.882 136.957 256.966 C 137.978 257.09 137.978 257.09 139.018 257.217 C 174.514 261.492 209.979 262.585 245.707 262.966 C 245.231 261.611 245.231 261.611 244.745 260.229 C 238.744 241.355 242.338 220.58 250.895 203.279 C 251.383 202.367 251.872 201.456 252.375 200.517 C 253.665 198.047 254.718 195.569 255.707 192.966 C 254.3 191.167 252.881 189.377 251.457 187.591 C 250.668 186.593 249.879 185.596 249.067 184.568 C 246.951 182.235 245.6 181.068 242.707 179.966 C 242.707 179.306 242.707 178.646 242.707 177.966 C 242.027 177.739 241.346 177.512 240.645 177.279 C 237.707 175.966 237.707 175.966 234.52 173.591 C 218.519 161.933 192.983 159.653 173.957 162.614 C 158.021 165.578 143.317 173.033 131.969 184.763 C 130.707 185.966 130.707 185.966 128.707 185.966 C 128.46 186.688 128.212 187.41 127.957 188.154 C 126.577 191.259 124.881 193.358 122.707 195.966 C 121.012 198.28 119.362 200.622 117.707 202.966 C 112.464 198.686 108.052 194.146 103.707 188.966 C 103.196 188.381 102.684 187.796 102.156 187.193 C 98.707 183.209 98.707 183.209 98.707 180.966 C 98.13 180.735 97.552 180.505 96.957 180.267 C 94.132 178.634 92.703 176.735 90.707 174.154 C 87.158 169.691 83.474 165.445 79.582 161.279 C 78.561 160.184 77.541 159.088 76.52 157.993 C 76.039 157.478 75.558 156.962 75.063 156.43 C 64.138 144.628 64.138 144.628 64.326 138.008 C 64.983 134.492 67.261 132.408 69.781 130.075 C 70.302 129.564 70.823 129.052 71.36 128.524 C 73.02 126.902 74.707 125.309 76.395 123.716 C 77.51 122.632 78.624 121.546 79.737 120.458 C 89.539 110.933 89.539 110.933 93.707 107.966 C 96.52 108.216 96.52 108.216 98.707 108.966 C 99.037 109.956 99.367 110.946 99.707 111.966 C 101.034 112.646 102.368 113.311 103.707 113.966 C 105.629 115.841 105.629 115.841 107.457 117.966 C 108.378 119.018 108.378 119.018 109.317 120.091 C 110.707 121.966 110.707 121.966 110.707 123.966 C 111.269 124.19 111.831 124.415 112.41 124.646 C 115.38 126.353 117.211 128.514 119.457 131.091 C 120.256 132.001 121.056 132.911 121.879 133.849 C 122.482 134.548 123.086 135.246 123.707 135.966 C 120.935 128.065 117.849 120.322 114.618 112.598 C 113.817 110.679 113.021 108.758 112.226 106.836 C 110.044 101.564 107.86 96.294 105.59 91.06 C 100.468 79.139 100.468 79.139 100.965 73.81 C 104.086 66.058 118.477 62.157 125.68 58.896 C 127.502 58.06 129.307 57.187 131.11 56.31 C 132.07 55.846 133.03 55.382 134.02 54.904 C 134.841 54.5 135.662 54.097 136.508 53.681 C 139.072 52.848 140.237 52.932 142.707 53.966 Z" fill="#8971B2"/>
    <path d="M 413.707 250.966 C 412.817 257.67 410.232 263.536 407.645 269.723 C 407.016 271.228 406.391 272.735 405.77 274.244 C 397.661 293.924 388.437 313.196 378.52 332.029 C 377.995 333.027 377.995 333.027 377.459 334.045 C 375.752 337.227 373.897 340.102 371.707 342.966 C 371.093 344.159 370.509 345.368 369.957 346.591 C 367.421 351.779 364.11 356.316 360.707 360.966 C 360.025 361.917 359.343 362.869 358.641 363.849 C 346.478 380.516 332.711 393.8 314.707 403.966 C 313.037 404.961 311.369 405.958 309.707 406.966 C 310.703 407.239 310.703 407.239 311.719 407.517 C 321.719 410.364 321.719 410.364 324.707 412.966 C 325.679 416.011 326.058 417.944 325.012 420.993 C 322.12 425.365 316.571 426.666 311.707 427.966 C 308.568 428.509 305.427 428.821 302.254 429.099 C 301.344 429.181 300.435 429.264 299.498 429.349 C 289.611 430.168 279.739 430.268 269.824 430.227 C 266.775 430.216 263.727 430.227 260.678 430.239 C 243.677 430.252 226.439 429.654 209.77 426.029 C 208.576 425.794 208.576 425.794 207.358 425.554 C 201.758 424.393 195.979 423.095 191.707 419.091 C 190.707 416.966 190.707 416.966 190.582 414.529 C 192.775 409.535 197.971 407.256 202.707 404.966 C 201.717 404.458 200.727 403.95 199.707 403.427 C 192.595 399.735 185.946 396.035 179.707 390.966 C 178.397 390.005 177.085 389.046 175.77 388.091 C 169.584 383.442 163.076 378.425 158.707 371.966 C 158.707 371.306 158.707 370.646 158.707 369.966 C 159.367 369.966 160.027 369.966 160.707 369.966 C 161.037 370.626 161.367 371.286 161.707 371.966 C 171.309 378.575 185.709 377.685 196.707 375.966 C 196.707 375.306 196.707 374.646 196.707 373.966 C 197.367 373.966 198.027 373.966 198.707 373.966 C 198.707 373.306 198.707 372.646 198.707 371.966 C 200.027 371.966 201.347 371.966 202.707 371.966 C 202.955 371.182 203.202 370.399 203.457 369.591 C 204.915 366.53 205.787 366.379 208.707 364.966 C 209.062 363.638 209.39 362.303 209.707 360.966 C 210.505 359.261 211.341 357.574 212.207 355.904 C 213.583 353.243 214.758 350.813 215.707 347.966 C 216.367 347.966 217.027 347.966 217.707 347.966 C 217.961 346.939 218.215 345.911 218.477 344.853 C 218.824 343.453 219.172 342.053 219.52 340.654 C 219.685 339.983 219.851 339.312 220.022 338.62 C 220.193 337.934 220.363 337.247 220.539 336.54 C 220.813 335.432 220.813 335.432 221.093 334.302 C 221.507 332.729 221.956 331.165 222.439 329.612 C 225.123 320.77 225.916 311.809 226.832 302.654 C 227.002 301.04 227.173 299.426 227.344 297.812 C 227.51 296.221 227.675 294.631 227.84 293.04 C 227.913 292.338 227.986 291.635 228.061 290.911 C 228.757 283.941 229.228 276.954 229.707 269.966 C 230.897 269.954 230.897 269.954 232.111 269.942 C 239.754 269.862 247.396 269.774 255.039 269.679 C 258.964 269.63 262.888 269.583 266.813 269.544 C 283.396 269.377 299.936 269.045 316.489 267.989 C 317.158 267.947 317.827 267.905 318.517 267.861 C 325.283 267.423 331.986 266.846 338.707 265.966 C 340.133 265.898 341.561 265.856 342.989 265.868 C 343.685 265.872 344.381 265.875 345.098 265.878 C 345.794 265.887 346.49 265.895 347.207 265.904 C 348.298 265.91 348.298 265.91 349.41 265.917 C 351.176 265.929 352.942 265.947 354.707 265.966 C 354.707 265.306 354.707 264.646 354.707 263.966 C 355.309 263.907 355.91 263.847 356.53 263.786 C 368.413 262.566 380.044 260.927 391.645 258.029 C 392.619 257.788 393.594 257.547 394.598 257.3 C 399.975 255.898 404.924 254.149 409.932 251.733 C 411.707 250.966 411.707 250.966 413.707 250.966 Z" fill="#6B6775"/>
    <path d="M 142.707 53.966 C 147.092 59.199 149.197 65.69 151.707 71.966 C 152.558 74.03 153.412 76.093 154.27 78.154 C 154.642 79.055 155.015 79.956 155.399 80.884 C 156.382 83.2 157.389 85.498 158.418 87.794 C 161.303 94.262 164.059 100.785 166.826 107.305 C 167.769 109.528 168.716 111.75 169.662 113.972 C 170.273 115.409 170.883 116.846 171.492 118.282 C 171.771 118.935 172.049 119.587 172.335 120.259 C 174.252 124.785 176.005 129.355 177.707 133.966 C 177.955 133.43 178.202 132.894 178.457 132.341 C 180.014 129.384 181.742 126.669 183.707 123.966 C 184.367 123.966 185.027 123.966 185.707 123.966 C 186.037 121.986 186.367 120.006 186.707 117.966 C 187.367 117.966 188.027 117.966 188.707 117.966 C 188.707 117.306 188.707 116.646 188.707 115.966 C 189.367 115.966 190.027 115.966 190.707 115.966 C 190.934 115.45 191.161 114.935 191.395 114.404 C 195.588 106.615 200.362 102.715 207.707 97.966 C 208.543 97.365 209.378 96.765 210.239 96.146 C 217.877 90.831 225.825 88.345 234.707 85.966 C 235.967 85.597 237.226 85.229 238.524 84.849 C 243.475 83.634 248.382 83.624 253.457 83.654 C 254.434 83.658 255.41 83.662 256.416 83.666 C 263.589 83.779 269.879 84.732 276.707 86.966 C 277.831 87.256 278.955 87.546 280.114 87.845 C 288.223 89.952 295.369 92.934 302.707 96.966 C 302.707 97.626 302.707 98.286 302.707 98.966 C 303.432 99.214 304.156 99.461 304.903 99.716 C 313.64 103.61 319.852 112.006 324.707 119.966 C 325.18 120.7 325.653 121.433 326.141 122.189 C 332.816 133.737 333.1 148.942 333.707 161.966 C 333.151 161.94 332.594 161.914 332.021 161.887 C 317.886 161.316 299.986 160.78 287.707 168.966 C 286.717 168.966 285.727 168.966 284.707 168.966 C 284.707 169.626 284.707 170.286 284.707 170.966 C 283.418 171.638 282.126 172.303 280.832 172.966 C 280.113 173.337 279.394 173.709 278.653 174.091 C 276.707 174.966 276.707 174.966 274.707 174.966 C 274.707 175.626 274.707 176.286 274.707 176.966 C 269.296 180.966 269.296 180.966 266.707 180.966 C 266.625 181.544 266.542 182.121 266.457 182.716 C 265.479 185.651 263.982 186.881 261.707 188.966 C 260.037 190.629 258.37 192.295 256.707 193.966 C 255.694 192.701 255.694 192.701 254.66 191.411 C 253.76 190.304 252.859 189.198 251.957 188.091 C 251.514 187.535 251.07 186.98 250.614 186.407 C 248.234 183.504 246.275 181.283 242.707 179.966 C 242.707 179.306 242.707 178.646 242.707 177.966 C 242.027 177.739 241.346 177.512 240.645 177.279 C 237.707 175.966 237.707 175.966 234.52 173.591 C 218.519 161.933 192.983 159.653 173.957 162.614 C 158.021 165.578 143.317 173.033 131.969 184.763 C 130.707 185.966 130.707 185.966 128.707 185.966 C 128.46 186.688 128.212 187.41 127.957 188.154 C 126.577 191.259 124.881 193.358 122.707 195.966 C 121.012 198.28 119.362 200.622 117.707 202.966 C 112.464 198.686 108.052 194.146 103.707 188.966 C 103.196 188.381 102.684 187.796 102.156 187.193 C 98.707 183.209 98.707 183.209 98.707 180.966 C 98.13 180.735 97.552 180.505 96.957 180.267 C 94.132 178.634 92.703 176.735 90.707 174.154 C 87.158 169.691 83.474 165.445 79.582 161.279 C 78.561 160.184 77.541 159.088 76.52 157.993 C 76.039 157.478 75.558 156.962 75.063 156.43 C 64.138 144.628 64.138 144.628 64.326 138.008 C 64.983 134.492 67.261 132.408 69.781 130.075 C 70.302 129.564 70.823 129.052 71.36 128.524 C 73.02 126.902 74.707 125.309 76.395 123.716 C 77.51 122.632 78.624 121.546 79.737 120.458 C 89.539 110.933 89.539 110.933 93.707 107.966 C 96.52 108.216 96.52 108.216 98.707 108.966 C 99.037 109.956 99.367 110.946 99.707 111.966 C 101.034 112.646 102.368 113.311 103.707 113.966 C 105.629 115.841 105.629 115.841 107.457 117.966 C 108.378 119.018 108.378 119.018 109.317 120.091 C 110.707 121.966 110.707 121.966 110.707 123.966 C 111.269 124.19 111.831 124.415 112.41 124.646 C 115.38 126.353 117.211 128.514 119.457 131.091 C 120.256 132.001 121.056 132.911 121.879 133.849 C 122.482 134.548 123.086 135.246 123.707 135.966 C 120.935 128.065 117.849 120.322 114.618 112.598 C 113.817 110.679 113.021 108.758 112.226 106.836 C 110.044 101.564 107.86 96.294 105.59 91.06 C 100.468 79.139 100.468 79.139 100.965 73.81 C 104.086 66.058 118.477 62.157 125.68 58.896 C 127.502 58.06 129.307 57.187 131.11 56.31 C 132.07 55.846 133.03 55.382 134.02 54.904 C 134.841 54.5 135.662 54.097 136.508 53.681 C 139.072 52.848 140.237 52.932 142.707 53.966 Z" fill="#F599B0"/>
    <path d="M 108.707 233.966 C 109.367 239.906 110.027 245.846 110.707 251.966 C 154.318 263.702 202.358 262.474 247.072 262.357 C 253.705 262.34 260.338 262.35 266.971 262.367 C 298.142 262.436 329.118 262.418 359.958 257.377 C 363.538 256.842 367.027 256.656 370.645 256.529 C 381.357 255.994 396.738 254.935 404.707 246.966 C 404.46 244.412 404.047 243.279 402.145 241.529 C 400.707 239.966 400.707 239.966 400.52 237.279 C 400.582 236.515 400.644 235.752 400.707 234.966 C 405.18 236.384 409.419 238.079 413.707 239.966 C 414.625 240.473 414.783 240.331 415.202 240.815 C 415.535 241.5 415.027 241.966 415.707 241.966 C 416.533 244.857 416.752 246.749 416.145 249.716 C 415.433 250.83 415.433 250.83 414.707 251.966 C 412.145 252.529 412.145 252.529 408.707 252.966 C 407.321 253.55 405.952 254.177 404.598 254.833 C 399.836 257.002 395.11 258.359 390.02 259.529 C 389.129 259.737 388.239 259.945 387.321 260.16 C 380.432 261.71 373.513 262.871 366.52 263.841 C 365.569 263.973 364.619 264.105 363.64 264.242 C 356.969 265.097 356.969 265.097 354.707 263.966 C 354.707 264.626 354.707 265.286 354.707 265.966 C 349.304 266.376 343.9 266.785 338.496 267.193 C 336.666 267.331 334.835 267.47 333.004 267.609 C 330.343 267.811 327.681 268.012 325.02 268.212 C 324.227 268.273 323.435 268.333 322.619 268.395 C 319.982 268.593 317.345 268.78 314.707 268.966 C 313.513 269.054 312.318 269.142 311.087 269.232 C 301.394 269.901 291.765 270.1 282.051 270.064 C 280.527 270.062 279.003 270.06 277.479 270.059 C 273.527 270.056 269.575 270.046 265.623 270.035 C 261.566 270.024 257.51 270.02 253.453 270.015 C 245.538 270.004 237.623 269.987 229.707 269.966 C 229.715 270.875 229.723 271.785 229.732 272.722 C 229.766 279.422 229.72 286.026 229.008 292.689 C 228.895 293.807 228.895 293.807 228.78 294.948 C 228.537 297.309 228.28 299.669 228.02 302.029 C 227.888 303.242 227.888 303.242 227.754 304.481 C 224.307 335.896 224.307 335.896 217.707 347.966 C 217.047 347.966 216.387 347.966 215.707 347.966 C 215.625 348.626 215.542 349.286 215.457 349.966 C 214.457 353.966 212.62 357.335 210.707 360.966 C 210.228 361.997 210.228 361.997 209.739 363.048 C 208.233 365.848 205.971 367.76 203.707 369.966 C 203.377 370.626 203.047 371.286 202.707 371.966 C 201.387 371.966 200.067 371.966 198.707 371.966 C 198.707 372.626 198.707 373.286 198.707 373.966 C 198.047 373.966 197.387 373.966 196.707 373.966 C 196.707 374.626 196.707 375.286 196.707 375.966 C 186.418 378.959 174.437 379.269 164.707 374.404 C 163.357 373.62 162.016 372.818 160.707 371.966 C 160.707 371.306 160.707 370.646 160.707 369.966 C 160.047 369.966 159.387 369.966 158.707 369.966 C 158.377 370.626 158.047 371.286 157.707 371.966 C 148.861 361.379 140.86 350.579 133.763 338.727 C 132.654 336.878 131.535 335.035 130.414 333.193 C 119.397 315.034 119.397 315.034 115.707 306.404 C 114.339 303.206 112.752 300.344 110.895 297.404 C 107.044 291.164 104.307 284.477 101.461 277.74 C 100.549 275.594 99.602 273.466 98.645 271.341 C 97.998 269.883 97.352 268.425 96.707 266.966 C 96.188 265.796 95.668 264.625 95.133 263.419 C 94.574 262.143 94.015 260.867 93.457 259.591 C 92.936 258.408 92.416 257.224 91.879 256.005 C 90.707 252.966 90.707 252.966 90.707 249.966 C 90.047 249.966 89.387 249.966 88.707 249.966 C 87.582 244.216 87.582 244.216 88.707 241.966 C 89.367 241.966 90.027 241.966 90.707 241.966 C 90.707 241.306 90.707 240.646 90.707 239.966 C 92.455 239.149 94.206 238.338 95.957 237.529 C 96.932 237.076 97.906 236.624 98.91 236.157 C 102.385 234.677 104.933 233.966 108.707 233.966 Z" fill="#7C7983"/>
    <path d="M 208.895 162.716 C 210.187 162.951 210.187 162.951 211.504 163.191 C 216.412 164.193 220.554 165.658 224.962 168.035 C 226.817 169.068 226.817 169.068 229.344 169.997 C 232.283 171.202 234.837 172.771 237.52 174.466 C 238.496 175.074 239.472 175.683 240.477 176.31 C 241.213 176.856 241.949 177.403 242.708 177.966 C 242.708 178.626 242.708 179.286 242.708 179.966 C 243.434 180.18 244.159 180.394 244.907 180.614 C 248.468 182.333 250.101 184.485 252.52 187.591 C 253.31 188.594 254.101 189.597 254.915 190.63 C 255.506 191.401 256.098 192.172 256.708 192.966 C 255.206 196.958 253.327 200.636 251.333 204.404 C 241.646 223.651 242.654 242.151 245.708 262.966 C 209.156 263.409 173.253 262.362 136.958 257.966 C 135.049 257.735 135.049 257.735 133.102 257.5 C 112.573 254.831 112.573 254.831 109.708 251.966 C 109.619 249.59 109.592 247.244 109.61 244.868 C 109.612 244.16 109.613 243.451 109.614 242.72 C 109.62 240.448 109.633 238.176 109.645 235.904 C 109.65 234.366 109.655 232.829 109.659 231.292 C 109.67 227.517 109.687 223.741 109.708 219.966 C 110.368 219.966 111.028 219.966 111.708 219.966 C 111.768 219.242 111.829 218.517 111.891 217.771 C 112.323 212.795 112.778 207.879 113.708 202.966 C 114.589 202.864 114.589 202.864 115.489 202.759 C 118.568 201.659 119.427 199.986 121.208 197.279 C 122.128 195.913 122.128 195.913 123.067 194.521 C 124.249 192.68 125.373 190.802 126.458 188.904 C 130.14 184.096 134.949 180.665 139.708 176.966 C 140.381 176.405 141.054 175.845 141.747 175.267 C 160.575 160.004 186.022 158.54 208.895 162.716 Z" fill="#EBEDA6"/>
    <path d="M 413.707 250.966 C 412.817 257.67 410.232 263.536 407.645 269.723 C 407.016 271.228 406.391 272.735 405.77 274.244 C 397.661 293.924 388.437 313.196 378.52 332.029 C 377.995 333.027 377.995 333.027 377.459 334.045 C 375.752 337.227 373.897 340.102 371.707 342.966 C 371.093 344.159 370.509 345.368 369.957 346.591 C 367.421 351.779 364.11 356.316 360.707 360.966 C 360.025 361.917 359.343 362.869 358.641 363.849 C 346.478 380.516 332.711 393.8 314.707 403.966 C 313.037 404.961 311.369 405.958 309.707 406.966 C 310.703 407.239 310.703 407.239 311.719 407.517 C 321.719 410.364 321.719 410.364 324.707 412.966 C 325.679 416.011 326.058 417.944 325.012 420.993 C 322.12 425.365 316.571 426.666 311.707 427.966 C 308.568 428.509 305.427 428.821 302.254 429.099 C 301.344 429.181 300.435 429.264 299.498 429.349 C 289.611 430.168 279.739 430.268 269.824 430.227 C 266.775 430.216 263.727 430.227 260.678 430.239 C 243.677 430.252 226.439 429.654 209.77 426.029 C 208.576 425.794 208.576 425.794 207.358 425.554 C 201.758 424.393 195.979 423.095 191.707 419.091 C 190.707 416.966 190.707 416.966 190.582 414.529 C 192.775 409.535 197.971 407.256 202.707 404.966 C 201.717 404.458 200.727 403.95 199.707 403.427 C 192.59 399.733 185.964 396.018 179.707 390.966 C 177.534 389.425 175.36 387.885 173.176 386.361 C 172.691 385.9 172.207 385.44 171.707 384.966 C 171.707 383.976 171.707 382.986 171.707 381.966 C 172.367 382.626 173.027 383.286 173.707 383.966 C 175.289 384.626 176.899 385.221 178.52 385.779 C 184.005 387.694 189.383 389.819 194.762 392.013 C 197.62 392.938 199.731 393.164 202.707 392.966 C 202.522 392.327 202.336 391.687 202.145 391.029 C 202 390.348 201.856 389.667 201.707 388.966 C 202.037 388.636 202.367 388.306 202.707 387.966 C 204.793 388.064 206.877 388.224 208.957 388.404 C 221.84 389.39 234.797 389.051 247.707 388.966 C 247.707 390.286 247.707 391.606 247.707 392.966 C 235.472 395.643 223.159 395.164 210.707 394.966 C 222.053 396.519 232.975 396.491 244.27 394.654 C 245.007 394.536 245.744 394.418 246.504 394.297 C 251.287 393.446 255.29 391.982 259.707 389.966 C 261.055 389.528 262.408 389.107 263.77 388.716 C 268.785 387.111 273.357 384.736 278.01 382.303 C 282.513 379.966 282.513 379.966 284.707 379.966 C 284.707 379.306 284.707 378.646 284.707 377.966 C 288.726 376.154 292.318 374.631 296.707 373.966 C 297.037 375.286 297.367 376.606 297.707 377.966 C 290.957 381.966 290.957 381.966 288.707 381.966 C 288.707 382.626 288.707 383.286 288.707 383.966 C 285.668 385.43 282.626 386.886 279.582 388.341 C 278.298 388.96 278.298 388.96 276.989 389.591 C 272.623 391.673 268.355 393.579 263.707 394.966 C 278.452 392.065 290.875 385.59 302.992 376.822 C 305.707 374.966 305.707 374.966 308.707 373.966 C 309.816 372.083 309.816 372.083 310.707 369.966 C 311.697 368.481 311.697 368.481 312.707 366.966 C 313.367 366.966 314.027 366.966 314.707 366.966 C 314.707 366.306 314.707 365.646 314.707 364.966 C 316.371 363.296 318.038 361.63 319.707 359.966 C 321.532 357.678 323.215 355.3 324.895 352.904 C 325.332 352.292 325.77 351.68 326.221 351.05 C 328.296 348.12 330.241 345.25 331.707 341.966 C 332.367 341.966 333.027 341.966 333.707 341.966 C 334.069 340.469 334.069 340.469 334.438 338.943 C 335.661 334.665 337.741 331.134 340.02 327.341 C 343.432 321.473 346.176 315.697 348.469 309.29 C 349.867 305.536 351.492 301.925 353.145 298.279 C 356.988 289.723 359.884 280.901 362.707 271.966 C 363.367 271.966 364.027 271.966 364.707 271.966 C 364.75 269.967 364.748 267.966 364.707 265.966 C 364.377 265.636 364.047 265.306 363.707 264.966 C 363.367 266.822 363.367 266.822 363.02 268.716 C 361.67 274.789 359.18 280.281 356.707 285.966 C 355.851 288.07 354.997 290.174 354.145 292.279 C 352.758 295.628 351.321 298.794 349.457 301.904 C 347.845 304.726 347.095 306.77 346.707 309.966 C 345.057 309.966 343.407 309.966 341.707 309.966 C 342.582 302.216 342.582 302.216 343.707 299.966 C 344.367 299.966 345.027 299.966 345.707 299.966 C 346.079 298.295 346.079 298.295 346.457 296.591 C 347.712 291.517 349.678 286.773 351.707 281.966 C 352.367 281.966 353.027 281.966 353.707 281.966 C 353.79 281.017 353.872 280.069 353.957 279.091 C 354.451 275.831 355.272 272.776 356.332 269.654 C 356.613 268.812 356.894 267.97 357.184 267.103 C 359.414 263.975 362.116 263.636 365.707 262.966 C 366.496 262.815 367.284 262.664 368.096 262.509 C 370.797 262.014 373.501 261.552 376.207 261.091 C 387.806 259.04 399.429 256.97 410.071 251.7 C 411.707 250.966 411.707 250.966 413.707 250.966 Z" fill="#413E4A"/>
    <path d="M 142.707 53.966 C 147.092 59.199 149.197 65.69 151.707 71.966 C 152.558 74.03 153.412 76.093 154.27 78.154 C 154.642 79.055 155.015 79.956 155.399 80.884 C 156.382 83.2 157.389 85.498 158.418 87.794 C 161.303 94.262 164.059 100.785 166.826 107.305 C 167.769 109.528 168.716 111.75 169.662 113.972 C 170.273 115.409 170.883 116.846 171.492 118.282 C 171.771 118.935 172.049 119.587 172.335 120.259 C 178.211 134.138 178.211 134.138 177.582 138.404 C 177.468 139.225 177.353 140.046 177.235 140.892 C 177.061 141.906 176.887 142.921 176.707 143.966 C 176.532 145.009 176.532 145.009 176.352 146.073 C 175.511 151.045 174.622 156.007 173.707 160.966 C 173.047 160.966 172.387 160.966 171.707 160.966 C 171.707 161.626 171.707 162.286 171.707 162.966 C 170.908 163.185 170.109 163.404 169.285 163.63 C 155.194 167.699 142.279 174.126 131.961 184.767 C 130.707 185.966 130.707 185.966 128.707 185.966 C 128.46 186.688 128.212 187.41 127.957 188.154 C 126.577 191.259 124.881 193.358 122.707 195.966 C 121.012 198.28 119.362 200.622 117.707 202.966 C 112.464 198.686 108.052 194.146 103.707 188.966 C 103.196 188.381 102.684 187.796 102.156 187.193 C 98.707 183.209 98.707 183.209 98.707 180.966 C 98.13 180.735 97.552 180.505 96.957 180.267 C 94.132 178.634 92.703 176.735 90.707 174.154 C 87.158 169.691 83.474 165.445 79.582 161.279 C 78.561 160.184 77.541 159.088 76.52 157.993 C 76.039 157.478 75.558 156.962 75.063 156.43 C 64.138 144.628 64.138 144.628 64.326 138.008 C 64.983 134.492 67.261 132.408 69.781 130.075 C 70.302 129.564 70.823 129.052 71.36 128.524 C 73.02 126.902 74.707 125.309 76.395 123.716 C 77.51 122.632 78.624 121.546 79.737 120.458 C 89.539 110.933 89.539 110.933 93.707 107.966 C 96.52 108.216 96.52 108.216 98.707 108.966 C 99.037 109.956 99.367 110.946 99.707 111.966 C 101.034 112.646 102.368 113.311 103.707 113.966 C 105.629 115.841 105.629 115.841 107.457 117.966 C 108.378 119.018 108.378 119.018 109.317 120.091 C 110.707 121.966 110.707 121.966 110.707 123.966 C 111.269 124.19 111.831 124.415 112.41 124.646 C 115.38 126.353 117.211 128.514 119.457 131.091 C 120.256 132.001 121.056 132.911 121.879 133.849 C 122.482 134.548 123.086 135.246 123.707 135.966 C 120.935 128.065 117.849 120.322 114.618 112.598 C 113.817 110.679 113.021 108.758 112.226 106.836 C 110.044 101.564 107.86 96.294 105.59 91.06 C 100.468 79.139 100.468 79.139 100.965 73.81 C 104.086 66.058 118.477 62.157 125.68 58.896 C 127.502 58.06 129.307 57.187 131.11 56.31 C 132.07 55.846 133.03 55.382 134.02 54.904 C 134.841 54.5 135.662 54.097 136.508 53.681 C 139.072 52.848 140.237 52.932 142.707 53.966 Z" fill="#996964"/>
    <path d="M 366.707 173.966 C 375.705 175.004 383.301 183.904 388.926 190.521 C 396.576 201.023 400.498 213.532 400.883 226.447 C 400.907 227.218 400.931 227.99 400.955 228.784 C 400.999 230.375 401.03 231.967 401.049 233.558 C 401.179 238.391 401.179 238.391 403.75 242.388 C 404.396 242.909 405.042 243.429 405.707 243.966 C 405.707 246.029 405.707 246.029 404.707 247.966 C 395.034 257.64 375.631 257.357 362.944 258.267 C 357.306 258.672 351.738 259.152 346.145 259.966 C 324.222 263.065 302.414 263.17 280.332 262.966 C 275.09 262.919 269.849 262.878 264.607 262.854 C 262.531 262.841 260.456 262.816 258.381 262.791 C 257.137 262.784 255.893 262.778 254.612 262.771 C 253.516 262.76 252.421 262.75 251.292 262.739 C 248.543 262.702 248.543 262.702 246.707 264.966 C 246.377 262.326 246.047 259.686 245.707 256.966 C 250.017 255.943 254.272 255.727 258.68 255.572 C 260.301 255.505 261.923 255.438 263.544 255.37 C 264.396 255.335 265.248 255.3 266.125 255.264 C 282.472 254.581 298.646 253.33 314.879 251.287 C 322.864 250.295 330.656 249.708 338.707 249.966 C 338.707 249.306 338.707 248.646 338.707 247.966 C 339.325 247.868 339.942 247.77 340.578 247.669 C 348.364 246.295 354.835 243.684 361.645 239.716 C 364.707 237.966 364.707 237.966 366.707 237.966 C 367.367 236.646 368.027 235.326 368.707 233.966 C 369.367 233.966 370.027 233.966 370.707 233.966 C 370.707 232.976 370.707 231.986 370.707 230.966 C 371.367 230.966 372.027 230.966 372.707 230.966 C 372.893 229.636 372.893 229.636 373.082 228.279 C 373.651 225.262 374.473 222.763 375.707 219.966 C 376.367 219.966 377.027 219.966 377.707 219.966 C 377.795 216.154 377.848 212.342 377.895 208.529 C 377.92 207.459 377.945 206.39 377.971 205.288 C 378.027 199.229 377.582 194.317 375.259 188.688 C 374.707 186.966 374.707 186.966 375.707 184.966 C 375.047 184.966 374.387 184.966 373.707 184.966 C 373.707 183.976 373.707 182.986 373.707 181.966 C 373.047 181.966 372.387 181.966 371.707 181.966 C 369.586 179.491 368.077 176.916 366.707 173.966 Z" fill="#775EA5"/>
    <path d="M 388.996 66.271 C 392.228 68.633 394.469 70.61 396.707 73.966 C 396.562 81.704 394.001 87.834 390.895 94.841 C 390.165 96.523 390.165 96.523 389.421 98.239 C 387.863 101.82 386.286 105.394 384.707 108.966 C 383.656 111.37 382.605 113.773 381.555 116.177 C 377.044 126.454 372.506 136.686 367.375 146.669 C 363.992 153.357 360.873 160.174 357.707 166.966 C 353.516 167.057 350.685 166.34 346.707 164.966 C 342.719 163.919 338.714 162.939 334.707 161.966 C 335.198 155.438 336.464 150.168 338.953 144.138 C 339.28 143.319 339.607 142.499 339.944 141.655 C 340.642 139.908 341.344 138.162 342.051 136.418 C 343.902 131.845 345.718 127.258 347.531 122.669 C 348.073 121.301 348.073 121.301 348.626 119.904 C 352.247 110.694 355.495 101.38 358.611 91.989 C 365.762 70.536 365.762 70.536 375.082 64.404 C 380.083 63.57 384.516 63.718 388.996 66.271 Z" fill="#6C6875"/>
    <path d="M 165.707 164.966 C 165.707 165.626 165.707 166.286 165.707 166.966 C 167.357 166.306 169.007 165.646 170.707 164.966 C 170.707 165.626 170.707 166.286 170.707 166.966 C 173.677 167.461 173.677 167.461 176.707 167.966 C 176.707 168.956 176.707 169.946 176.707 170.966 C 179.677 171.461 179.677 171.461 182.707 171.966 C 183.746 175.082 183.841 177.325 183.832 180.591 C 183.836 182.064 183.836 182.064 183.84 183.568 C 183.707 185.966 183.707 185.966 182.707 186.966 C 181.041 187.007 179.373 187.009 177.707 186.966 C 178.202 189.441 178.202 189.441 178.707 191.966 C 178.047 191.966 177.387 191.966 176.707 191.966 C 176.707 192.626 176.707 193.286 176.707 193.966 C 176.02 194.076 175.333 194.185 174.625 194.298 C 173.724 194.457 172.823 194.615 171.895 194.779 C 171.001 194.929 170.108 195.08 169.188 195.236 C 166.678 195.76 166.678 195.76 165.231 197.443 C 163.101 199.572 161.051 199.851 158.145 200.529 C 153.979 201.416 153.979 201.416 150.707 203.966 C 149.191 204.461 149.191 204.461 147.645 204.966 C 144.586 205.624 144.586 205.624 143.707 207.966 C 142.374 208.633 141.041 209.299 139.707 209.966 C 139.377 210.626 139.047 211.286 138.707 211.966 C 138.047 211.966 137.387 211.966 136.707 211.966 C 136.305 212.863 136.305 212.863 135.895 213.779 C 134.714 215.953 133.439 217.234 131.707 218.966 C 131.377 219.956 131.047 220.946 130.707 221.966 C 130.047 221.966 129.387 221.966 128.707 221.966 C 128.491 222.894 128.491 222.894 128.27 223.841 C 127.707 225.966 127.707 225.966 126.707 227.966 C 126.047 227.966 125.387 227.966 124.707 227.966 C 124.707 228.626 124.707 229.286 124.707 229.966 C 124.047 229.966 123.387 229.966 122.707 229.966 C 122.707 230.956 122.707 231.946 122.707 232.966 C 121.346 232.873 121.346 232.873 119.957 232.779 C 116.39 232.984 115.311 233.652 112.707 235.966 C 112.377 235.966 112.047 235.966 111.707 235.966 C 111.377 240.586 111.047 245.206 110.707 249.966 C 110.377 249.966 110.047 249.966 109.707 249.966 C 109.707 240.066 109.707 230.166 109.707 219.966 C 110.367 219.966 111.027 219.966 111.707 219.966 C 111.768 219.242 111.828 218.517 111.891 217.771 C 112.322 212.795 112.778 207.879 113.707 202.966 C 114.589 202.864 114.589 202.864 115.489 202.759 C 118.568 201.659 119.427 199.986 121.207 197.279 C 121.821 196.368 122.434 195.458 123.067 194.521 C 124.248 192.68 125.372 190.802 126.457 188.904 C 130.14 184.096 134.949 180.665 139.707 176.966 C 140.38 176.405 141.053 175.845 141.746 175.267 C 148.242 170.001 157.106 164.296 165.707 164.966 Z" fill="#EBEBAC"/>
    <path d="M 112.707 258.966 C 113.4 259.087 114.092 259.208 114.805 259.333 C 123.084 260.751 131.378 261.896 139.707 262.966 C 139.926 263.817 140.146 264.668 140.371 265.544 C 143.221 276.433 146.369 287.218 149.707 297.966 C 149.947 298.739 150.187 299.512 150.434 300.308 C 156.895 320.915 165.548 341.091 175.852 360.076 C 176.707 361.966 176.707 361.966 176.707 364.966 C 173.643 365.221 172.075 365.185 169.395 363.591 C 168.838 363.055 168.281 362.519 167.707 361.966 C 167.707 361.306 167.707 360.646 167.707 359.966 C 167.134 359.735 166.56 359.505 165.969 359.267 C 157.339 354.303 151.138 342.107 145.707 333.966 C 144.831 332.661 144.831 332.661 143.938 331.329 C 131.265 311.95 112.707 282.894 112.707 258.966 Z" fill="#D5D2D9"/>
    <path d="M 307.707 103.966 C 312.948 104.571 316.337 108.256 319.473 112.169 C 321.315 114.716 323.031 117.308 324.707 119.966 C 325.186 120.705 325.664 121.443 326.156 122.204 C 332.806 133.766 333.1 148.939 333.707 161.966 C 333.151 161.94 332.594 161.914 332.021 161.887 C 317.886 161.316 299.986 160.78 287.707 168.966 C 286.717 168.966 285.727 168.966 284.707 168.966 C 284.707 169.626 284.707 170.286 284.707 170.966 C 283.418 171.638 282.126 172.303 280.832 172.966 C 280.113 173.337 279.394 173.709 278.653 174.091 C 276.707 174.966 276.707 174.966 274.707 174.966 C 274.707 175.626 274.707 176.286 274.707 176.966 C 269.296 180.966 269.296 180.966 266.707 180.966 C 266.625 181.544 266.542 182.121 266.457 182.716 C 265.479 185.651 263.982 186.881 261.707 188.966 C 260.037 190.629 258.37 192.295 256.707 193.966 C 256.032 193.123 255.356 192.28 254.66 191.411 C 253.76 190.304 252.859 189.198 251.957 188.091 C 251.514 187.535 251.07 186.98 250.614 186.407 C 248.234 183.504 246.275 181.283 242.707 179.966 C 242.707 179.306 242.707 178.646 242.707 177.966 C 242.027 177.739 241.346 177.512 240.645 177.279 C 237.707 175.966 237.707 175.966 234.52 173.591 C 221.966 164.444 203.312 161.769 188.207 161.841 C 187.391 161.837 186.575 161.833 185.735 161.829 C 180.954 161.837 176.422 162.168 171.707 162.966 C 171.707 162.306 171.707 161.646 171.707 160.966 C 172.367 160.966 173.027 160.966 173.707 160.966 C 173.707 158.656 173.707 156.346 173.707 153.966 C 174.367 154.956 175.027 155.946 175.707 156.966 C 178.286 157.246 180.622 157.338 183.199 157.294 C 183.942 157.292 184.684 157.29 185.449 157.288 C 187.021 157.282 188.593 157.268 190.165 157.247 C 192.566 157.216 194.966 157.206 197.367 157.2 C 198.895 157.191 200.422 157.181 201.949 157.169 C 202.666 157.165 203.383 157.161 204.122 157.156 C 207.451 157.109 210.522 156.991 213.707 155.966 C 214.037 156.956 214.367 157.946 214.707 158.966 C 218.667 158.966 222.627 158.966 226.707 158.966 C 227.202 161.441 227.202 161.441 227.707 163.966 C 228.697 163.966 229.687 163.966 230.707 163.966 C 230.707 164.956 230.707 165.946 230.707 166.966 C 234.079 169.214 236.995 170.018 240.895 171.091 C 241.549 171.273 242.203 171.455 242.877 171.642 C 244.486 172.088 246.096 172.528 247.707 172.966 C 247.707 173.626 247.707 174.286 247.707 174.966 C 251.997 174.966 256.287 174.966 260.707 174.966 C 260.707 174.306 260.707 173.646 260.707 172.966 C 262.687 172.636 264.667 172.306 266.707 171.966 C 266.707 171.306 266.707 170.646 266.707 169.966 C 268.803 168.402 270.876 166.983 273.082 165.591 C 273.718 165.187 274.353 164.783 275.008 164.366 C 281.574 160.283 288.074 157.361 295.707 155.966 C 295.707 155.306 295.707 154.646 295.707 153.966 C 296.977 153.318 298.248 152.672 299.52 152.029 C 300.227 151.669 300.935 151.309 301.664 150.939 C 303.707 149.966 303.707 149.966 306.707 148.966 C 307.037 147.976 307.367 146.986 307.707 145.966 C 308.707 144.966 309.707 143.966 310.707 142.966 C 311.037 141.976 311.367 140.986 311.707 139.966 C 312.367 139.966 313.027 139.966 313.707 139.966 C 315.353 124.333 315.353 124.333 309.707 109.966 C 309.707 108.646 309.707 107.326 309.707 105.966 C 309.047 105.966 308.387 105.966 307.707 105.966 C 307.707 105.306 307.707 104.646 307.707 103.966 Z" fill="#F07E98"/>
    <path d="M 246.125 181.079 C 248.985 183.168 250.869 185.347 253.02 188.153 C 254.066 189.505 254.066 189.505 255.133 190.884 C 255.653 191.571 256.172 192.258 256.707 192.966 C 255.206 196.958 253.327 200.636 251.332 204.403 C 241.646 223.651 242.654 242.151 245.707 262.966 C 209.156 263.408 173.253 262.362 136.957 257.966 C 135.048 257.735 135.048 257.735 133.101 257.5 C 116.818 255.383 116.818 255.383 110.707 252.966 C 109.516 249.392 109.972 247.457 110.645 243.778 C 110.839 242.692 111.034 241.605 111.235 240.485 C 111.391 239.654 111.547 238.822 111.707 237.966 C 112.037 237.966 112.367 237.966 112.707 237.966 C 112.707 240.606 112.707 243.246 112.707 245.966 C 114.092 246.185 114.092 246.185 115.505 246.409 C 118.933 246.953 122.36 247.499 125.787 248.047 C 127.27 248.284 128.753 248.519 130.236 248.754 C 132.369 249.092 134.501 249.433 136.633 249.774 C 137.916 249.979 139.199 250.183 140.521 250.393 C 143.707 250.966 143.707 250.966 146.707 251.966 C 148.448 252.064 150.192 252.104 151.935 252.111 C 153.004 252.117 154.073 252.124 155.175 252.13 C 156.334 252.131 157.493 252.133 158.688 252.134 C 160.489 252.139 160.489 252.139 162.327 252.144 C 164.878 252.149 167.429 252.151 169.98 252.151 C 173.834 252.153 177.688 252.171 181.541 252.19 C 204.173 253.301 204.173 253.301 224.707 245.966 C 228.582 245.216 228.582 245.216 231.707 244.966 C 232.037 242.656 232.367 240.346 232.707 237.966 C 233.367 237.966 234.027 237.966 234.707 237.966 C 235.171 236.264 235.171 236.264 235.645 234.528 C 236.707 230.966 236.707 230.966 237.707 229.966 C 238.006 228.044 238.246 226.113 238.461 224.181 C 238.593 223.011 238.725 221.841 238.862 220.636 C 239.064 218.788 239.064 218.788 239.27 216.903 C 239.408 215.668 239.547 214.432 239.69 213.159 C 240.033 210.095 240.372 207.031 240.707 203.966 C 241.367 203.966 242.027 203.966 242.707 203.966 C 242.568 200.882 242.42 197.799 242.27 194.716 C 242.23 193.843 242.191 192.97 242.151 192.071 C 242.088 190.805 242.088 190.805 242.024 189.513 C 241.987 188.738 241.95 187.963 241.913 187.164 C 241.711 185.008 241.29 183.048 240.707 180.966 C 243.707 179.966 243.707 179.966 246.125 181.079 Z" fill="#E2E584"/>
    <path d="M 303.707 172.966 C 306.77 175.029 306.77 175.029 308.707 177.966 C 308.862 182.292 308.397 184.214 305.457 187.419 C 302.898 189.789 300.298 192.028 297.582 194.216 C 296.624 194.992 295.667 195.768 294.68 196.568 C 293.699 197.359 292.718 198.151 291.707 198.966 C 288.887 201.254 286.073 203.548 283.27 205.857 C 281.697 207.151 280.116 208.435 278.52 209.7 C 269.322 217.246 262.466 227.689 258.707 238.966 C 256.145 240.154 256.145 240.154 253.707 240.966 C 252.923 222.435 260.397 207.439 271.707 192.966 C 272.367 192.966 273.027 192.966 273.707 192.966 C 274.367 191.316 275.027 189.666 275.707 187.966 C 276.367 187.966 277.027 187.966 277.707 187.966 C 277.934 187.347 278.161 186.729 278.395 186.091 C 280.096 183.337 281.761 183.145 284.707 181.966 C 285.004 181.342 285.3 180.718 285.606 180.075 C 288.914 173.74 297.206 171.882 303.707 172.966 Z" fill="#D4C1E1"/>
    <path d="M 178.707 171.966 C 181.161 175.647 181.524 178.692 180.707 182.966 C 178.306 186.19 176.765 187.661 172.895 188.779 C 172.173 188.84 171.451 188.902 170.707 188.966 C 170.707 189.626 170.707 190.286 170.707 190.966 C 164.957 193.966 164.957 193.966 162.707 193.966 C 162.707 194.626 162.707 195.286 162.707 195.966 C 161.655 196.358 160.604 196.75 159.52 197.154 C 156.649 198.364 155.44 199.233 153.145 201.529 C 150.42 204.254 148.345 204.891 144.707 205.966 C 144.377 206.626 144.047 207.286 143.707 207.966 C 142.374 208.633 141.041 209.299 139.707 209.966 C 139.377 210.626 139.047 211.286 138.707 211.966 C 138.047 211.966 137.387 211.966 136.707 211.966 C 136.305 212.863 136.305 212.863 135.895 213.779 C 134.714 215.953 133.439 217.234 131.707 218.966 C 131.377 219.956 131.047 220.946 130.707 221.966 C 130.047 221.966 129.387 221.966 128.707 221.966 C 128.491 222.894 128.491 222.894 128.27 223.841 C 127.707 225.966 127.707 225.966 126.707 227.966 C 126.047 227.966 125.387 227.966 124.707 227.966 C 124.707 228.626 124.707 229.286 124.707 229.966 C 124.047 229.966 123.387 229.966 122.707 229.966 C 122.707 230.956 122.707 231.946 122.707 232.966 C 121.717 232.636 120.727 232.306 119.707 231.966 C 119.525 227.327 119.853 224.19 121.707 219.966 C 122.443 217.313 123.071 214.646 123.707 211.966 C 124.367 211.966 125.027 211.966 125.707 211.966 C 125.955 211.1 126.202 210.234 126.457 209.341 C 128.672 203.362 132.191 199.363 136.707 194.966 C 137.367 193.976 138.027 192.986 138.707 191.966 C 139.367 191.966 140.027 191.966 140.707 191.966 C 140.934 191.409 141.161 190.852 141.395 190.279 C 144.969 183.981 151.558 179.541 157.707 175.966 C 160.52 175.263 160.52 175.263 162.707 174.966 C 162.707 174.306 162.707 173.646 162.707 172.966 C 168.103 171.014 173.097 170.264 178.707 171.966 Z" fill="#F9F9E5"/>
    <path d="M 245.207 96.466 C 247.443 100.193 247.119 102.645 246.707 106.966 C 244.536 110.223 243.268 110.637 239.766 112.021 C 236.565 113.49 233.779 115.511 230.883 117.501 C 228.566 119.061 226.161 120.413 223.723 121.775 C 211.979 128.716 200.453 136.42 194.082 148.841 C 192.487 151.921 192.021 152.792 188.895 154.529 C 188.173 154.673 187.451 154.817 186.707 154.966 C 186.149 147.543 187.131 142.465 190.707 135.966 C 191.286 134.9 191.865 133.834 192.461 132.736 C 195.946 126.53 195.946 126.53 197.707 123.966 C 198.367 123.966 199.027 123.966 199.707 123.966 C 199.975 123.389 200.244 122.811 200.52 122.216 C 201.737 119.911 203.011 117.945 204.707 115.966 C 205.367 115.966 206.027 115.966 206.707 115.966 C 207.037 114.976 207.367 113.986 207.707 112.966 C 209.145 111.279 209.145 111.279 210.707 109.966 C 211.367 109.966 212.027 109.966 212.707 109.966 C 212.956 109.372 213.205 108.778 213.461 108.165 C 214.888 105.647 216.312 104.469 218.645 102.779 C 219.334 102.269 220.024 101.76 220.735 101.236 C 222.707 99.966 222.707 99.966 225.707 98.966 C 226.037 98.306 226.367 97.646 226.707 96.966 C 232.668 95.084 239.516 93.051 245.207 96.466 Z" fill="#FBC6D0"/>
    <path d="M 392.707 70.966 C 395.707 71.966 395.707 71.966 396.707 73.966 C 396.434 81.721 394.015 87.801 390.895 94.841 C 390.165 96.523 390.165 96.523 389.421 98.239 C 387.863 101.82 386.286 105.393 384.707 108.966 C 383.656 111.37 382.605 113.773 381.555 116.177 C 377.044 126.453 372.506 136.685 367.375 146.669 C 363.992 153.356 360.873 160.174 357.707 166.966 C 356.387 166.966 355.067 166.966 353.707 166.966 C 354.209 159.433 357.343 152.842 361.246 146.443 C 362.69 143.995 363.711 141.623 364.707 138.966 C 365.685 136.358 366.662 134.04 368.116 131.66 C 369.716 128.951 370.984 126.248 372.231 123.361 C 372.695 122.294 373.159 121.227 373.637 120.128 C 374.114 119.023 374.591 117.917 375.082 116.779 C 380.366 104.548 380.366 104.548 383.356 98.677 C 385.498 94.462 387.317 90.211 388.957 85.779 C 389.213 85.119 389.468 84.46 389.731 83.781 C 391.334 79.499 392.212 75.512 392.707 70.966 Z" fill="#45424D"/>
    <path d="M 65.707 140.966 C 71.228 143.939 74.481 148.149 78.344 153.025 C 81.29 156.692 84.425 160.156 87.59 163.634 C 89.488 165.724 91.355 167.836 93.207 169.966 C 95.844 172.994 98.517 175.985 101.207 178.966 C 106.064 184.351 110.893 189.756 115.52 195.341 C 117.606 197.925 117.606 197.925 119.707 199.966 C 118.717 200.956 117.727 201.946 116.707 202.966 C 114.454 200.573 112.205 198.176 109.957 195.779 C 109.323 195.105 108.689 194.431 108.035 193.738 C 98.707 183.778 98.707 183.778 98.707 180.966 C 98.13 180.735 97.552 180.505 96.957 180.267 C 94.132 178.634 92.703 176.735 90.707 174.154 C 87.158 169.691 83.474 165.445 79.582 161.279 C 75.618 157.032 71.711 152.754 67.914 148.357 C 67.203 147.538 66.474 146.733 65.707 145.966 C 65.667 144.3 65.665 142.632 65.707 140.966 Z" fill="#664140"/>
    <path d="M 101.707 73.966 C 102.367 73.966 103.027 73.966 103.707 73.966 C 104.082 74.91 104.458 75.853 104.844 76.825 C 107.338 83.09 109.842 89.35 112.395 95.591 C 112.77 96.511 113.145 97.432 113.531 98.38 C 114.667 101.016 114.667 101.016 116.266 103.517 C 117.665 105.894 118.391 107.874 119.082 110.529 C 120.799 116.561 123.249 122.205 125.707 127.966 C 126.848 130.647 127.97 133.335 129.082 136.029 C 129.357 136.672 129.632 137.316 129.916 137.979 C 131.821 142.625 131.821 142.625 130.707 145.966 C 127.222 142.062 124.973 138.868 123.145 133.904 C 122.646 132.589 122.145 131.275 121.641 129.962 C 121.349 129.199 121.058 128.436 120.758 127.649 C 118.754 122.531 116.621 117.466 114.508 112.393 C 113.447 109.84 112.392 107.284 111.336 104.729 C 109.444 100.145 107.544 95.566 105.598 91.005 C 105.051 89.7 104.504 88.396 103.957 87.091 C 103.509 86.042 103.06 84.992 102.598 83.911 C 101.561 80.484 101.547 77.527 101.707 73.966 Z" fill="#66413F"/>
    <path d="M 108.707 239.966 C 108.902 241.924 109.088 243.882 109.27 245.841 C 109.374 246.932 109.479 248.022 109.586 249.146 C 109.707 251.966 109.707 251.966 108.707 253.966 C 109.326 254.09 109.945 254.214 110.582 254.341 C 112.707 254.966 112.707 254.966 114.707 256.966 C 114.428 258.643 114.084 260.309 113.707 261.966 C 113.67 263.966 113.661 265.967 113.707 267.966 C 112.062 267.993 110.416 268.012 108.77 268.029 C 107.853 268.04 106.937 268.052 105.992 268.064 C 103.707 267.966 103.707 267.966 102.707 266.966 C 102.607 264.475 102.568 262.019 102.582 259.529 C 102.578 258.834 102.575 258.14 102.571 257.425 C 102.581 252.219 102.581 252.219 103.707 249.966 C 103.068 249.719 102.429 249.471 101.77 249.216 C 99.707 247.966 99.707 247.966 98.957 245.841 C 98.875 245.222 98.792 244.604 98.707 243.966 C 104.207 239.966 104.207 239.966 108.707 239.966 Z" fill="#7C7885"/>
    <path d="M 116.707 81.966 C 121.707 89.466 121.707 89.466 121.707 92.966 C 122.367 92.306 123.027 91.646 123.707 90.966 C 125.998 90.428 128.288 90.079 130.614 89.724 C 132.894 89.144 132.894 89.144 133.989 86.896 C 134.226 86.259 134.463 85.622 134.707 84.966 C 134.707 85.956 134.707 86.946 134.707 87.966 C 136.687 87.306 138.667 86.646 140.707 85.966 C 140.707 86.626 140.707 87.286 140.707 87.966 C 139.387 88.296 138.067 88.626 136.707 88.966 C 137.008 89.725 137.308 90.485 137.617 91.267 C 137.998 92.261 138.378 93.255 138.77 94.279 C 139.153 95.265 139.535 96.251 139.93 97.267 C 140.707 99.966 140.707 99.966 139.707 102.966 C 138.387 99.996 137.067 97.026 135.707 93.966 C 135.377 94.956 135.047 95.946 134.707 96.966 C 134.047 96.966 133.387 96.966 132.707 96.966 C 132.377 97.956 132.047 98.946 131.707 99.966 C 131.707 99.306 131.707 98.646 131.707 97.966 C 131.047 97.966 130.387 97.966 129.707 97.966 C 129.707 97.306 129.707 96.646 129.707 95.966 C 129.047 95.966 128.387 95.966 127.707 95.966 C 128.037 96.956 128.367 97.946 128.707 98.966 C 128.501 99.874 128.295 100.781 128.082 101.716 C 127.582 106.051 128.776 108.104 130.707 111.966 C 131.697 111.636 132.687 111.306 133.707 110.966 C 134.367 111.626 135.027 112.286 135.707 112.966 C 134.82 113.399 133.934 113.832 133.02 114.279 C 129.756 115.886 129.756 115.886 126.957 117.654 C 124.707 118.966 124.707 118.966 122.707 118.966 C 122.377 116.986 122.047 115.006 121.707 112.966 C 122.697 112.636 123.687 112.306 124.707 111.966 C 124.707 112.626 124.707 113.286 124.707 113.966 C 125.367 113.966 126.027 113.966 126.707 113.966 C 126.047 112.976 125.387 111.986 124.707 110.966 C 125.037 109.976 125.367 108.986 125.707 107.966 C 125.177 105.979 125.177 105.979 124.27 103.966 C 123.14 101.292 122.707 99.941 122.707 96.966 C 120.397 97.626 118.087 98.286 115.707 98.966 C 116.202 97.481 116.202 97.481 116.707 95.966 C 117.697 95.636 118.687 95.306 119.707 94.966 C 119.377 92.656 119.047 90.346 118.707 87.966 C 118.047 87.966 117.387 87.966 116.707 87.966 C 116.707 85.986 116.707 84.006 116.707 81.966 Z" fill="#8E5D58"/>
    <path d="M 306.707 362.966 C 309.182 363.461 309.182 363.461 311.707 363.966 C 309.039 373.393 306.791 375.636 298.707 380.966 C 297.809 381.572 296.91 382.178 295.985 382.802 C 285.921 389.434 273.214 396.953 260.707 395.966 C 263.735 393.948 266.422 392.891 269.832 391.654 C 274.826 389.781 279.36 387.67 283.903 384.884 C 285.707 383.966 285.707 383.966 288.707 383.966 C 288.707 383.306 288.707 382.646 288.707 381.966 C 289.238 381.782 289.769 381.597 290.317 381.407 C 293.658 380.035 296.082 379.005 297.989 375.837 C 298.63 374.266 299.248 372.685 299.84 371.095 C 300.945 368.382 302.393 366.741 304.707 364.966 C 305.367 364.966 306.027 364.966 306.707 364.966 C 306.707 364.306 306.707 363.646 306.707 362.966 Z" fill="#64606E"/>
    <path d="M 92.707 119.966 C 93.367 119.966 94.027 119.966 94.707 119.966 C 96.069 121.61 97.397 123.281 98.707 124.966 C 99.553 125.812 100.399 126.657 101.27 127.529 C 103.324 129.583 105.04 131.597 106.707 133.966 C 108.683 133.618 108.683 133.618 110.707 132.966 C 111.037 132.306 111.367 131.646 111.707 130.966 C 112.367 131.296 113.027 131.626 113.707 131.966 C 112.717 133.946 111.727 135.926 110.707 137.966 C 111.465 138.797 111.465 138.797 112.239 139.646 C 112.888 140.37 113.538 141.095 114.207 141.841 C 114.857 142.56 115.507 143.28 116.176 144.021 C 117.707 145.966 117.707 145.966 117.707 147.966 C 118.367 147.966 119.027 147.966 119.707 147.966 C 119.707 148.626 119.707 149.286 119.707 149.966 C 121.027 149.966 122.347 149.966 123.707 149.966 C 123.235 154.214 120.741 156.166 117.707 158.966 C 119.057 162.803 120.785 165.618 123.332 168.779 C 123.964 169.569 124.596 170.359 125.246 171.173 C 125.728 171.765 126.211 172.356 126.707 172.966 C 128.027 171.976 129.347 170.986 130.707 169.966 C 131.697 170.461 131.697 170.461 132.707 170.966 C 132.233 171.379 131.759 171.791 131.27 172.216 C 129.545 174.148 129.141 175.448 128.707 177.966 C 127.717 177.966 126.727 177.966 125.707 177.966 C 124.717 178.626 123.727 179.286 122.707 179.966 C 123.388 178.698 123.388 178.698 124.082 177.404 C 125.087 174.09 125.087 174.09 123.504 172.079 C 122.4 170.849 121.262 169.648 120.09 168.482 C 118.707 166.966 118.707 166.966 118.707 164.966 C 118.047 164.966 117.387 164.966 116.707 164.966 C 116.212 162.986 116.212 162.986 115.707 160.966 C 115.047 160.966 114.387 160.966 113.707 160.966 C 113.707 160.306 113.707 159.646 113.707 158.966 C 114.367 158.966 115.027 158.966 115.707 158.966 C 115.996 158.368 116.285 157.77 116.582 157.154 C 117.707 154.966 117.707 154.966 119.707 151.966 C 118.913 151.123 118.119 150.28 117.301 149.411 C 116.27 148.305 115.238 147.198 114.207 146.091 C 113.683 145.535 113.158 144.98 112.617 144.407 C 108.707 140.193 108.707 140.193 108.707 137.966 C 108.047 137.966 107.387 137.966 106.707 137.966 C 106.707 137.306 106.707 136.646 106.707 135.966 C 106.047 135.966 105.387 135.966 104.707 135.966 C 103.235 134.505 103.235 134.505 101.645 132.591 C 101.118 131.965 100.59 131.338 100.047 130.693 C 98.707 128.966 98.707 128.966 97.707 126.966 C 97.047 126.966 96.387 126.966 95.707 126.966 C 95.089 127.915 94.47 128.864 93.832 129.841 C 91.701 132.975 91.005 133.567 87.707 134.966 C 86.018 136.271 84.347 137.6 82.707 138.966 C 83.18 134.709 85.594 132.709 88.707 129.966 C 89.697 129.636 90.687 129.306 91.707 128.966 C 93.624 126.716 93.624 126.716 94.707 123.966 C 94.016 121.663 94.016 121.663 92.707 119.966 Z" fill="#7D4C48"/>
    <path d="M 325.707 123.966 C 333.498 134.353 332.778 149.473 333.707 161.966 C 333.151 161.94 332.594 161.914 332.021 161.887 C 318.09 161.324 305.895 162.681 292.513 166.621 C 290.707 166.966 290.707 166.966 288.707 165.966 C 291.258 163.612 292.417 162.983 295.957 162.779 C 297.319 162.871 297.319 162.871 298.707 162.966 C 298.707 162.306 298.707 161.646 298.707 160.966 C 309.213 158.432 319.958 158.334 330.707 157.966 C 330.778 150.921 330.778 150.921 330.207 143.904 C 330.042 142.604 329.877 141.305 329.707 139.966 C 328.057 139.966 326.407 139.966 324.707 139.966 C 324.707 138.976 324.707 137.986 324.707 136.966 C 325.367 136.966 326.027 136.966 326.707 136.966 C 326.377 132.676 326.047 128.386 325.707 123.966 Z" fill="#E280A2"/>
    <path d="M 215.707 163.966 C 224.408 164.912 232.36 167.677 240.383 171.099 C 242.809 172.004 245.159 172.524 247.707 172.966 C 247.707 174.286 247.707 175.606 247.707 176.966 C 248.367 177.296 249.027 177.626 249.707 177.966 C 249.79 178.667 249.872 179.369 249.957 180.091 C 251.047 184.269 253.669 186.968 256.707 189.966 C 257.367 190.296 258.027 190.626 258.707 190.966 C 258.212 192.451 258.212 192.451 257.707 193.966 C 254.293 190.652 251.209 187.232 248.235 183.517 C 246.536 181.792 244.913 180.929 242.707 179.966 C 242.707 179.306 242.707 178.646 242.707 177.966 C 242.027 177.739 241.346 177.512 240.645 177.279 C 237.707 175.966 237.707 175.966 234.52 173.591 C 230.28 170.446 225.627 168.777 220.707 166.966 C 219.039 166.304 217.372 165.638 215.707 164.966 C 215.707 164.636 215.707 164.306 215.707 163.966 Z" fill="#E48591"/>
    <path d="M 400.707 234.966 C 400.975 235.894 401.244 236.822 401.52 237.779 C 402.435 240.939 402.435 240.939 404.395 242.591 C 404.828 243.045 405.261 243.499 405.707 243.966 C 405.624 246.619 405.016 247.658 403.145 249.529 C 393.734 255.079 381.555 257.617 370.707 256.966 C 373.638 255.012 374.47 254.713 377.77 254.466 C 381.707 254.374 381.707 254.374 383.707 251.966 C 387.548 250.489 391.66 250.899 395.707 250.966 C 396.037 248.986 396.367 247.006 396.707 244.966 C 396.047 244.636 395.387 244.306 394.707 243.966 C 395.367 243.966 396.027 243.966 396.707 243.966 C 396.831 242.667 396.955 241.367 397.082 240.029 C 397.293 237.814 397.293 237.814 397.707 235.966 C 399.707 234.966 399.707 234.966 400.707 234.966 Z" fill="#746096"/>
    <path d="M 106.707 137.966 C 107.367 137.966 108.027 137.966 108.707 137.966 C 110.248 139.662 111.717 141.424 113.145 143.216 C 113.927 144.191 114.71 145.165 115.516 146.169 C 117.276 148.415 119.009 150.673 120.707 152.966 C 119.084 154.675 117.414 156.341 115.707 157.966 C 115.047 157.966 114.387 157.966 113.707 157.966 C 112.375 156.427 112.375 156.427 110.895 154.341 C 108.295 150.751 105.577 147.343 102.707 143.966 C 103.367 143.347 104.027 142.729 104.707 142.091 C 106.936 140.21 106.936 140.21 106.707 137.966 Z" fill="#9B6A65"/>
    <path d="M 257.707 192.966 C 257.707 196.708 257.194 200.256 256.707 203.966 C 255.387 204.296 254.067 204.626 252.707 204.966 C 252.707 206.616 252.707 208.266 252.707 209.966 C 251.717 210.296 250.727 210.626 249.707 210.966 C 247.223 215.19 247.954 218.277 248.707 222.966 C 248.27 225.904 248.27 225.904 247.707 227.966 C 246.717 227.966 245.727 227.966 244.707 227.966 C 244.216 241.694 244.216 241.694 246.465 255.154 C 246.707 256.966 246.707 256.966 244.707 259.966 C 239.568 238.216 242.2 217.185 253.707 197.966 C 255.011 196.276 256.337 194.602 257.707 192.966 Z" fill="#8C7997"/>
    <path d="M 89.707 131.966 C 92.207 134.279 92.207 134.279 94.707 136.966 C 94.707 139.966 94.707 139.966 93.707 142.966 C 93.669 144.632 93.662 146.3 93.707 147.966 C 93.047 147.966 92.387 147.966 91.707 147.966 C 91.377 148.626 91.047 149.286 90.707 149.966 C 86.986 147.651 84.095 145.68 81.707 141.966 C 83.358 137.674 86.445 135.087 89.707 131.966 Z" fill="#9C6A66"/>
    <path d="M 90.707 141.966 C 90.377 142.956 90.047 143.946 89.707 144.966 C 90.697 144.636 91.687 144.306 92.707 143.966 C 92.047 143.306 91.387 142.646 90.707 141.966 Z" fill="#9C6A66"/>
    <path d="M 149.707 128.966 C 151.95 134.169 153.263 137.309 151.707 142.966 C 151.047 142.966 150.387 142.966 149.707 142.966 C 149.377 141.646 149.047 140.326 148.707 138.966 C 147.717 138.966 146.727 138.966 145.707 138.966 C 145.377 139.626 145.047 140.286 144.707 140.966 C 141.707 139.966 141.707 139.966 140.02 137.029 C 138.707 133.966 138.707 133.966 138.707 131.966 C 145.207 128.966 145.207 128.966 149.707 128.966 Z" fill="#9A6964"/>
    <path d="M 155.707 145.966 C 155.831 146.75 155.955 147.534 156.082 148.341 C 156.498 151.107 156.498 151.107 158.707 152.966 C 159.105 154.954 159.445 156.955 159.707 158.966 C 156.707 160.966 156.707 160.966 152.707 160.966 C 152.377 159.316 152.047 157.666 151.707 155.966 C 150.717 155.636 149.727 155.306 148.707 154.966 C 146.707 151.966 146.707 151.966 146.707 147.966 C 152.332 145.966 152.332 145.966 155.707 145.966 Z" fill="#9B6B66"/>
    <path d="M 173.707 154.966 C 173.707 156.946 173.707 158.926 173.707 160.966 C 173.047 160.966 172.387 160.966 171.707 160.966 C 171.707 161.626 171.707 162.286 171.707 162.966 C 169.624 163.613 167.541 164.259 165.457 164.904 C 164.297 165.263 163.137 165.623 161.942 165.993 C 160.874 166.314 159.807 166.635 158.707 166.966 C 157.949 167.215 157.191 167.464 156.41 167.72 C 155.848 167.801 155.286 167.882 154.707 167.966 C 154.047 167.306 153.387 166.646 152.707 165.966 C 152.707 164.976 152.707 163.986 152.707 162.966 C 155.677 162.306 158.647 161.646 161.707 160.966 C 161.707 161.956 161.707 162.946 161.707 163.966 C 162.367 163.966 163.027 163.966 163.707 163.966 C 163.377 162.316 163.047 160.666 162.707 158.966 C 163.974 158.292 165.246 157.627 166.52 156.966 C 167.227 156.595 167.935 156.224 168.664 155.841 C 170.707 154.966 170.707 154.966 173.707 154.966 Z" fill="#986C60"/>
    <path d="M 187.145 160.591 C 187.971 160.593 188.797 160.594 189.648 160.596 C 196.18 160.721 202.478 161.521 208.895 162.716 C 210.185 162.951 210.185 162.951 211.501 163.191 C 216.416 164.192 220.599 165.651 225.01 168.048 C 227.171 169.216 229.41 170.104 231.708 170.966 C 231.708 171.296 231.708 171.626 231.708 171.966 C 227.265 171.513 223.787 170.616 219.751 168.732 C 215.575 167.167 211.1 166.641 206.708 165.966 C 206.708 165.306 206.708 164.646 206.708 163.966 C 196.148 163.636 185.588 163.306 174.708 162.966 C 179.092 160.774 182.379 160.581 187.145 160.591 Z" fill="#F9D5B0"/>
    <path d="M 152.707 107.966 C 158.707 115.68 158.707 115.68 158.707 120.966 C 159.697 121.626 160.687 122.286 161.707 122.966 C 161.047 122.966 160.387 122.966 159.707 122.966 C 159.377 123.956 159.047 124.946 158.707 125.966 C 158.707 125.306 158.707 124.646 158.707 123.966 C 156.397 124.956 154.087 125.946 151.707 126.966 C 151.84 127.546 151.973 128.126 152.11 128.724 C 153.104 133.124 154.021 137.505 154.707 141.966 C 154.047 141.966 153.387 141.966 152.707 141.966 C 151.717 137.676 150.727 133.386 149.707 128.966 C 147.397 129.296 145.087 129.626 142.707 129.966 C 144.027 128.976 145.347 127.986 146.707 126.966 C 146.551 126.363 146.395 125.759 146.235 125.138 C 146.04 124.339 145.845 123.539 145.645 122.716 C 145.448 121.927 145.25 121.138 145.047 120.325 C 144.692 117.862 144.938 116.31 145.707 113.966 C 146.378 115.422 147.044 116.881 147.707 118.341 C 148.264 119.559 148.264 119.559 148.832 120.802 C 149.707 122.966 149.707 122.966 149.707 124.966 C 152.017 123.976 154.327 122.986 156.707 121.966 C 156.419 121.207 156.13 120.448 155.832 119.665 C 155.461 118.671 155.09 117.678 154.707 116.654 C 154.15 115.174 154.15 115.174 153.582 113.665 C 152.707 110.966 152.707 110.966 152.707 107.966 Z" fill="#7C4B46"/>
    <path d="M 298.707 164.966 C 298.707 165.626 298.707 166.286 298.707 166.966 C 293.707 168.966 288.707 170.966 283.707 172.966 C 283.707 173.626 283.707 174.286 283.707 174.966 C 282.717 174.966 281.727 174.966 280.707 174.966 C 280.707 175.626 280.707 176.286 280.707 176.966 C 280.104 177.208 279.501 177.451 278.879 177.7 C 274.39 179.583 270.889 181.148 267.707 184.966 C 265.569 187.105 264.575 187.393 261.707 187.966 C 262.347 187.368 262.986 186.77 263.645 186.154 C 265.91 184.058 265.91 184.058 266.707 180.966 C 272.079 176.966 272.079 176.966 274.707 176.966 C 274.707 176.306 274.707 175.646 274.707 174.966 C 275.996 174.294 277.289 173.629 278.582 172.966 C 279.302 172.595 280.021 172.224 280.762 171.841 C 282.707 170.966 282.707 170.966 284.707 170.966 C 284.707 170.306 284.707 169.646 284.707 168.966 C 294.117 164.374 294.117 164.374 298.707 164.966 Z" fill="#A26DA2"/>
    <path d="M 108.707 239.966 C 109.037 243.926 109.367 247.886 109.707 251.966 C 102.358 250.4 102.358 250.4 99.645 248.591 C 98.707 246.966 98.707 246.966 98.707 244.966 C 100.859 240.662 104.17 239.966 108.707 239.966 Z" fill="#454249"/>
    <path d="M 159.707 125.966 C 162.278 128.981 163.229 131.326 163.895 135.216 C 164.053 136.108 164.212 137 164.375 137.919 C 164.54 138.932 164.54 138.932 164.707 139.966 C 166.687 139.636 168.667 139.306 170.707 138.966 C 173.162 144.089 174.211 148.305 174.707 153.966 C 172.727 153.306 170.747 152.646 168.707 151.966 C 170.027 151.306 171.347 150.646 172.707 149.966 C 170.397 148.976 168.087 147.986 165.707 146.966 C 166.367 146.636 167.027 146.306 167.707 145.966 C 167.707 145.306 167.707 144.646 167.707 143.966 C 167.047 143.636 166.387 143.306 165.707 142.966 C 166.697 142.966 167.687 142.966 168.707 142.966 C 168.707 142.306 168.707 141.646 168.707 140.966 C 165.407 141.626 162.107 142.286 158.707 142.966 C 159.367 142.636 160.027 142.306 160.707 141.966 C 161.037 141.306 161.367 140.646 161.707 139.966 C 162.367 140.296 163.027 140.626 163.707 140.966 C 163.419 140.218 163.13 139.471 162.832 138.7 C 162.275 137.223 162.275 137.223 161.707 135.716 C 161.336 134.742 160.965 133.767 160.582 132.763 C 159.707 129.966 159.707 129.966 159.707 125.966 Z" fill="#8D5C57"/>
    <path d="M 292.707 379.966 C 293.367 380.296 294.027 380.626 294.707 380.966 C 293.67 384.376 292.478 385.105 289.364 387.001 C 287.986 387.692 286.6 388.367 285.207 389.029 C 284.486 389.379 283.765 389.729 283.022 390.089 C 275.848 393.499 268.813 396.606 260.707 395.966 C 263.735 393.948 266.422 392.891 269.832 391.654 C 274.826 389.781 279.36 387.67 283.903 384.884 C 285.707 383.966 285.707 383.966 288.707 383.966 C 288.707 383.306 288.707 382.646 288.707 381.966 C 290.582 380.904 290.582 380.904 292.707 379.966 Z" fill="#64606E"/>
    <path d="M 173.707 153.966 C 174.037 153.966 174.367 153.966 174.707 153.966 C 174.707 155.946 174.707 157.926 174.707 159.966 C 175.278 159.805 175.848 159.644 176.436 159.479 C 187.02 157.09 200.668 158.106 210.707 161.966 C 211.697 162.626 212.687 163.286 213.707 163.966 C 212.353 163.822 210.999 163.675 209.645 163.529 C 208.891 163.447 208.137 163.366 207.36 163.282 C 205.398 163.048 203.442 162.759 201.492 162.439 C 197.035 161.882 192.693 161.82 188.207 161.841 C 187.391 161.837 186.575 161.833 185.735 161.829 C 180.954 161.837 176.422 162.168 171.707 162.966 C 171.707 162.306 171.707 161.646 171.707 160.966 C 172.367 160.966 173.027 160.966 173.707 160.966 C 173.707 158.656 173.707 156.346 173.707 153.966 Z" fill="#D68683"/>
    <path d="M 276.707 86.966 C 277.945 87.358 279.182 87.75 280.457 88.154 C 281.2 88.422 281.942 88.69 282.707 88.966 C 282.707 89.296 282.707 89.626 282.707 89.966 C 277.855 90.16 274.241 89.679 269.707 87.966 C 265.984 86.759 262.43 86.852 258.535 86.868 C 257.512 86.871 257.512 86.871 256.467 86.873 C 254.297 86.878 252.127 86.891 249.957 86.904 C 248.482 86.909 247.007 86.913 245.531 86.917 C 241.923 86.928 238.315 86.945 234.707 86.966 C 245.146 80.007 265.566 83.082 276.707 86.966 Z" fill="#E5A7B7"/>
    <path d="M 151.707 105.966 C 151.734 108.258 151.754 110.549 151.77 112.841 C 151.781 114.117 151.793 115.393 151.805 116.708 C 151.707 119.966 151.707 119.966 150.707 121.966 C 151.037 122.956 151.367 123.946 151.707 124.966 C 151.047 124.966 150.387 124.966 149.707 124.966 C 143.707 111.597 143.707 111.597 143.707 107.966 C 146.613 106.709 148.503 105.966 151.707 105.966 Z" fill="#9B6A65"/>
    <path d="M 144.707 57.966 C 147.067 60.326 147.199 61.745 147.707 64.966 C 147.047 64.966 146.387 64.966 145.707 64.966 C 146.367 67.276 147.027 69.586 147.707 71.966 C 147.047 71.966 146.387 71.966 145.707 71.966 C 145.707 71.306 145.707 70.646 145.707 69.966 C 145.047 69.966 144.387 69.966 143.707 69.966 C 143.707 70.956 143.707 71.946 143.707 72.966 C 144.367 72.966 145.027 72.966 145.707 72.966 C 145.707 73.626 145.707 74.286 145.707 74.966 C 144.387 75.296 143.067 75.626 141.707 75.966 C 141.377 74.646 141.047 73.326 140.707 71.966 C 140.047 71.966 139.387 71.966 138.707 71.966 C 138.707 71.306 138.707 70.646 138.707 69.966 C 139.367 69.966 140.027 69.966 140.707 69.966 C 140.707 67.986 140.707 66.006 140.707 63.966 C 140.047 63.966 139.387 63.966 138.707 63.966 C 138.707 63.306 138.707 62.646 138.707 61.966 C 139.697 61.966 140.687 61.966 141.707 61.966 C 142.367 60.976 143.027 59.986 143.707 58.966 C 144.037 58.636 144.367 58.306 144.707 57.966 Z" fill="#9D6D69"/>
    <path d="M 111.707 72.966 C 112.697 72.966 113.687 72.966 114.707 72.966 C 115.037 74.616 115.367 76.266 115.707 77.966 C 116.697 78.296 117.687 78.626 118.707 78.966 C 118.047 78.966 117.387 78.966 116.707 78.966 C 116.707 79.956 116.707 80.946 116.707 81.966 C 115.057 82.992 113.388 83.989 111.707 84.966 C 109.924 87.036 109.924 87.036 108.707 88.966 C 107.717 85.996 106.727 83.026 105.707 79.966 C 106.697 79.368 107.687 78.77 108.707 78.154 C 109.697 77.432 110.687 76.71 111.707 75.966 C 111.707 74.976 111.707 73.986 111.707 72.966 Z" fill="#8F5E59"/>
    <path d="M 75.707 135.966 C 76.367 135.966 77.027 135.966 77.707 135.966 C 78.037 137.286 78.367 138.606 78.707 139.966 C 80.027 139.636 81.347 139.306 82.707 138.966 C 82.769 139.987 82.769 139.987 82.832 141.029 C 84.081 145.221 86.748 147.825 89.707 150.966 C 92.967 150.272 94.498 149.507 96.707 146.966 C 97.367 147.296 98.027 147.626 98.707 147.966 C 97.443 149.285 96.17 150.596 94.895 151.904 C 94.187 152.634 93.479 153.365 92.75 154.118 C 90.707 155.966 90.707 155.966 87.707 156.966 C 87.707 156.306 87.707 155.646 87.707 154.966 C 88.367 154.966 89.027 154.966 89.707 154.966 C 89.202 154.412 88.697 153.857 88.176 153.286 C 87.526 152.562 86.877 151.837 86.207 151.091 C 85.558 150.372 84.908 149.652 84.239 148.911 C 82.707 146.966 82.707 146.966 82.707 144.966 C 82.047 144.966 81.387 144.966 80.707 144.966 C 80.707 144.306 80.707 143.646 80.707 142.966 C 79.057 143.296 77.407 143.626 75.707 143.966 C 75.986 143.1 75.986 143.1 76.27 142.216 C 76.748 139.759 76.465 138.322 75.707 135.966 Z" fill="#7E4E49"/>
    <path d="M 306.707 362.966 C 308.357 363.296 310.007 363.626 311.707 363.966 C 310.538 367.295 309.627 369.88 306.707 371.966 C 303.52 372.654 303.52 372.654 300.707 372.966 C 301.083 370.184 301.38 368.378 303.145 366.154 C 304.707 364.966 304.707 364.966 306.707 364.966 C 306.707 364.306 306.707 363.646 306.707 362.966 Z" fill="#44404E"/>
    <path d="M 130.707 115.966 C 134.137 119.722 135.272 124.201 136.707 128.966 C 139.677 129.461 139.677 129.461 142.707 129.966 C 140.727 130.956 140.727 130.956 138.707 131.966 C 139.158 132.888 139.158 132.888 139.617 133.829 C 139.998 134.638 140.378 135.446 140.77 136.279 C 141.153 137.079 141.535 137.88 141.93 138.704 C 142.707 140.966 142.707 140.966 141.707 143.966 C 141.419 142.997 141.13 142.027 140.832 141.029 C 140.065 137.859 140.065 137.859 137.707 136.966 C 137.707 136.306 137.707 135.646 137.707 134.966 C 136.057 135.296 134.407 135.626 132.707 135.966 C 132.707 135.306 132.707 134.646 132.707 133.966 C 134.027 133.636 135.347 133.306 136.707 132.966 C 136.358 132.158 136.009 131.35 135.649 130.517 C 135.194 129.448 134.739 128.38 134.27 127.279 C 133.817 126.223 133.365 125.167 132.899 124.079 C 131.853 121.346 131.172 118.846 130.707 115.966 Z" fill="#7C4C47"/>
    <path d="M 149.707 99.966 C 150.037 100.626 150.367 101.286 150.707 101.966 C 152.027 101.966 153.347 101.966 154.707 101.966 C 154.707 102.626 154.707 103.286 154.707 103.966 C 154.047 103.966 153.387 103.966 152.707 103.966 C 152.377 105.286 152.047 106.606 151.707 107.966 C 151.707 107.306 151.707 106.646 151.707 105.966 C 150.944 106.296 150.181 106.626 149.395 106.966 C 146.707 107.966 146.707 107.966 143.707 107.966 C 144.037 109.946 144.367 111.926 144.707 113.966 C 144.047 112.646 143.387 111.326 142.707 109.966 C 141.717 109.966 140.727 109.966 139.707 109.966 C 139.377 110.956 139.047 111.946 138.707 112.966 C 137.717 112.306 136.727 111.646 135.707 110.966 C 136.914 110.069 136.914 110.069 138.145 109.154 C 140.931 107.157 140.931 107.157 141.707 103.966 C 142.367 104.626 143.027 105.286 143.707 105.966 C 145.687 105.306 147.667 104.646 149.707 103.966 C 149.707 102.646 149.707 101.326 149.707 99.966 Z" fill="#7D4C47"/>
    <path d="M 116.707 81.966 C 121.707 89.466 121.707 89.466 121.707 92.966 C 122.367 92.306 123.027 91.646 123.707 90.966 C 127.332 90.841 127.332 90.841 130.707 90.966 C 128.707 93.966 128.707 93.966 126.082 94.654 C 125.299 94.757 124.515 94.86 123.707 94.966 C 123.707 96.616 123.707 98.266 123.707 99.966 C 123.377 98.976 123.047 97.986 122.707 96.966 C 120.397 97.626 118.087 98.286 115.707 98.966 C 116.202 97.481 116.202 97.481 116.707 95.966 C 117.697 95.636 118.687 95.306 119.707 94.966 C 119.377 92.656 119.047 90.346 118.707 87.966 C 118.047 87.966 117.387 87.966 116.707 87.966 C 116.707 85.986 116.707 84.006 116.707 81.966 Z" fill="#80504A"/>
    <path d="M 120.707 200.966 C 120.707 201.956 120.707 202.946 120.707 203.966 C 120.047 203.966 119.387 203.966 118.707 203.966 C 118.707 205.286 118.707 206.606 118.707 207.966 C 118.047 207.966 117.387 207.966 116.707 207.966 C 116.047 210.606 115.387 213.246 114.707 215.966 C 114.047 215.966 113.387 215.966 112.707 215.966 C 112.377 217.286 112.047 218.606 111.707 219.966 C 112.671 208.444 112.671 208.444 113.707 202.966 C 116.017 202.306 118.327 201.646 120.707 200.966 Z" fill="#DEDCB8"/>
    <path d="M 333.707 158.966 C 334.037 160.286 334.367 161.606 334.707 162.966 C 331.231 164.035 328.036 164.081 324.41 164.064 C 323.205 164.06 322 164.057 320.758 164.054 C 319.504 164.046 318.25 164.037 316.957 164.029 C 315.688 164.024 314.418 164.02 313.11 164.015 C 309.975 164.003 306.841 163.987 303.707 163.966 C 309.338 160.212 315.341 160.813 321.895 160.841 C 322.809 160.837 323.724 160.833 324.666 160.829 C 325.54 160.831 326.413 160.832 327.313 160.833 C 328.108 160.834 328.904 160.835 329.724 160.837 C 331.707 160.966 331.707 160.966 333.707 161.966 C 333.707 160.976 333.707 159.986 333.707 158.966 Z" fill="#A56E9D"/>
    <path d="M 131.707 164.966 C 132.367 164.966 133.027 164.966 133.707 164.966 C 133.707 165.626 133.707 166.286 133.707 166.966 C 134.367 166.966 135.027 166.966 135.707 166.966 C 137.06 168.953 138.393 170.954 139.707 172.966 C 140.367 173.296 141.027 173.626 141.707 173.966 C 142.037 172.976 142.367 171.986 142.707 170.966 C 144.027 170.966 145.347 170.966 146.707 170.966 C 145.358 175.013 143.359 175.921 139.707 177.966 C 138.717 177.636 137.727 177.306 136.707 176.966 C 136.604 176.182 136.501 175.399 136.395 174.591 C 135.931 171.636 135.931 171.636 132.707 169.966 C 132.707 169.306 132.707 168.646 132.707 167.966 C 132.047 167.636 131.387 167.306 130.707 166.966 C 131.037 166.306 131.367 165.646 131.707 164.966 Z" fill="#917058"/>
    <path d="M 288.707 167.966 C 287.387 168.296 286.067 168.626 284.707 168.966 C 284.707 169.626 284.707 170.286 284.707 170.966 C 283.418 171.638 282.126 172.303 280.832 172.966 C 280.113 173.337 279.394 173.709 278.653 174.091 C 276.707 174.966 276.707 174.966 274.707 174.966 C 274.707 175.626 274.707 176.286 274.707 176.966 C 272.746 178.355 270.746 179.692 268.707 180.966 C 268.047 180.636 267.387 180.306 266.707 179.966 C 267.037 179.306 267.367 178.646 267.707 177.966 C 268.697 177.966 269.687 177.966 270.707 177.966 C 270.707 176.976 270.707 175.986 270.707 174.966 C 271.512 174.677 272.316 174.389 273.145 174.091 C 275.84 173.233 275.84 173.233 276.707 170.966 C 278.357 170.966 280.007 170.966 281.707 170.966 C 281.707 169.976 281.707 168.986 281.707 167.966 C 284.718 167.032 285.574 166.922 288.707 167.966 Z" fill="#DD7DA3"/>
    <path d="M 140.707 77.966 C 142.027 79.616 143.347 81.266 144.707 82.966 C 146.687 82.306 148.667 81.646 150.707 80.966 C 149.707 83.966 149.707 83.966 147.645 85.154 C 147.005 85.422 146.366 85.69 145.707 85.966 C 146.008 86.725 146.308 87.485 146.617 88.267 C 146.998 89.261 147.378 90.255 147.77 91.279 C 148.153 92.265 148.535 93.251 148.93 94.267 C 149.707 96.966 149.707 96.966 148.707 99.966 C 147.87 98.01 147.037 96.051 146.207 94.091 C 145.743 93.001 145.279 91.91 144.801 90.786 C 143.707 87.966 143.707 87.966 143.707 85.966 C 142.717 85.636 141.727 85.306 140.707 84.966 C 140.707 82.633 140.707 80.299 140.707 77.966 Z" fill="#7B4945"/>
    <path d="M 250.707 186.966 C 255.582 191.591 255.582 191.591 256.707 194.966 C 255.563 197.341 255.563 197.341 253.895 199.966 C 253.352 200.832 252.809 201.699 252.25 202.591 C 251.081 204.391 249.898 206.181 248.707 207.966 C 248.707 204.336 248.707 200.706 248.707 196.966 C 250.027 197.296 251.347 197.626 252.707 197.966 C 253.485 195.665 253.485 195.665 253.707 192.966 C 252.336 190.776 252.336 190.776 250.707 188.966 C 250.707 188.306 250.707 187.646 250.707 186.966 Z" fill="#E5D798"/>
    <path d="M 311.707 105.966 C 318.29 109.064 322.383 115.688 325.707 121.966 C 325.707 122.626 325.707 123.286 325.707 123.966 C 325.047 123.966 324.387 123.966 323.707 123.966 C 323.404 123.34 323.101 122.713 322.789 122.068 C 320.225 117.065 319.029 114.979 313.707 112.966 C 312.395 109.341 312.395 109.341 311.707 105.966 Z" fill="#DE8CA1"/>
    <path d="M 126.707 175.966 C 128.357 177.616 130.007 179.266 131.707 180.966 C 131.377 181.956 131.047 182.946 130.707 183.966 C 129.387 183.966 128.067 183.966 126.707 183.966 C 126.707 184.626 126.707 185.286 126.707 185.966 C 126.047 185.966 125.387 185.966 124.707 185.966 C 123.644 182.582 123.493 181.386 125.145 178.154 C 125.66 177.432 126.176 176.71 126.707 175.966 Z" fill="#9B6A64"/>
    <path d="M 399.707 240.966 C 403.707 241.966 403.707 241.966 405.707 243.966 C 405.34 246.901 404.843 247.83 402.707 249.966 C 401.717 249.966 400.727 249.966 399.707 249.966 C 399.707 246.996 399.707 244.026 399.707 240.966 Z" fill="#474053"/>
    <path d="M 342.707 227.966 C 344.895 228.279 344.895 228.279 346.707 228.966 C 346.707 229.626 346.707 230.286 346.707 230.966 C 345.944 231.255 345.181 231.544 344.395 231.841 C 341.557 232.929 341.557 232.929 338.707 234.966 C 334.95 235.342 333.954 235.13 330.707 232.966 C 330.707 231.976 330.707 230.986 330.707 229.966 C 331.697 230.296 332.687 230.626 333.707 230.966 C 333.707 231.626 333.707 232.286 333.707 232.966 C 337.925 231.839 337.925 231.839 341.332 229.279 C 341.786 228.845 342.24 228.412 342.707 227.966 Z" fill="#7F66A8"/>
    <path d="M 242.707 177.966 C 244.027 177.966 245.347 177.966 246.707 177.966 C 248.199 179.54 248.199 179.54 249.582 181.654 C 252.26 185.499 254.989 188.133 258.707 190.966 C 258.377 191.956 258.047 192.946 257.707 193.966 C 254.293 190.652 251.209 187.232 248.235 183.517 C 246.536 181.792 244.913 180.929 242.707 179.966 C 242.707 179.306 242.707 178.646 242.707 177.966 Z" fill="#DB8C84"/>
    <path d="M 185.707 121.966 C 186.672 124.969 186.931 127.008 185.707 129.966 C 184.717 130.296 183.727 130.626 182.707 130.966 C 181.489 133.471 181.489 133.471 180.707 135.966 C 179.717 135.636 178.727 135.306 177.707 134.966 C 178.33 133.694 178.955 132.423 179.582 131.154 C 179.93 130.446 180.278 129.738 180.637 129.009 C 181.707 126.966 181.707 126.966 183.707 123.966 C 184.367 123.966 185.027 123.966 185.707 123.966 C 185.707 123.306 185.707 122.646 185.707 121.966 Z" fill="#E5A7B8"/>
    <path d="M 167.707 115.966 C 169.859 119.194 169.908 120.25 169.707 123.966 C 167.397 124.296 165.087 124.626 162.707 124.966 C 162.02 123.154 162.02 123.154 161.707 120.966 C 162.957 119.216 162.957 119.216 164.707 117.966 C 165.697 117.966 166.687 117.966 167.707 117.966 C 167.707 117.306 167.707 116.646 167.707 115.966 Z" fill="#8F6059"/>
    <path d="M 127.707 70.966 C 130.017 70.966 132.327 70.966 134.707 70.966 C 133.387 72.286 132.067 73.606 130.707 74.966 C 131.697 77.936 132.687 80.906 133.707 83.966 C 130.46 82.342 130.006 79.212 128.707 75.966 C 127.985 76.11 127.264 76.255 126.52 76.404 C 122.614 77.185 122.614 77.185 118.707 77.966 C 121.646 75.463 123.886 74.497 127.707 73.966 C 127.707 72.976 127.707 71.986 127.707 70.966 Z" fill="#764540"/>
    <path d="M 154.707 141.966 C 156.027 142.626 157.347 143.286 158.707 143.966 C 158.047 143.966 157.387 143.966 156.707 143.966 C 157.367 146.936 158.027 149.906 158.707 152.966 C 157.717 152.636 156.727 152.306 155.707 151.966 C 155.707 149.986 155.707 148.006 155.707 145.966 C 152.737 146.626 149.767 147.286 146.707 147.966 C 149.794 144.879 150.627 144.517 154.707 143.966 C 154.707 143.306 154.707 142.646 154.707 141.966 Z" fill="#7D4C47"/>
    <path d="M 142.707 143.966 C 143.367 145.286 144.027 146.606 144.707 147.966 C 145.367 147.966 146.027 147.966 146.707 147.966 C 147.237 149.421 147.756 150.88 148.27 152.341 C 148.56 153.153 148.85 153.965 149.149 154.802 C 149.707 156.966 149.707 156.966 148.707 158.966 C 145.707 153.341 145.707 153.341 145.707 149.966 C 145.109 150.296 144.511 150.626 143.895 150.966 C 141.707 151.966 141.707 151.966 138.707 151.966 C 138.707 151.306 138.707 150.646 138.707 149.966 C 140.357 149.636 142.007 149.306 143.707 148.966 C 143.377 147.316 143.047 145.666 142.707 143.966 Z" fill="#7B4B46"/>
    <path d="M 123.707 99.966 C 126.645 101.435 127.036 103.561 128.332 106.529 C 128.778 107.54 129.224 108.552 129.684 109.595 C 130.022 110.377 130.359 111.16 130.707 111.966 C 131.697 111.636 132.687 111.306 133.707 110.966 C 134.367 111.626 135.027 112.286 135.707 112.966 C 133.727 113.956 131.747 114.946 129.707 115.966 C 128.888 114.24 128.077 112.51 127.27 110.779 C 126.817 109.816 126.365 108.853 125.899 107.861 C 124.803 105.2 124.158 102.798 123.707 99.966 Z" fill="#7B4A45"/>
    <path d="M 159.707 92.966 C 162.179 95.93 163.37 98.506 164.395 102.216 C 164.646 103.108 164.898 104 165.156 104.919 C 165.429 105.932 165.429 105.932 165.707 106.966 C 165.047 106.966 164.387 106.966 163.707 106.966 C 161.727 103.501 161.727 103.501 159.707 99.966 C 159.377 99.966 159.047 99.966 158.707 99.966 C 158.665 97.967 158.666 95.966 158.707 93.966 C 159.037 93.636 159.367 93.306 159.707 92.966 Z" fill="#977575"/>
    <path d="M 134.707 63.966 C 136.357 65.616 138.007 67.266 139.707 68.966 C 139.377 69.956 139.047 70.946 138.707 71.966 C 139.367 71.966 140.027 71.966 140.707 71.966 C 141.332 73.841 141.332 73.841 141.707 75.966 C 141.047 76.626 140.387 77.286 139.707 77.966 C 138.247 75.319 137.707 74.072 137.707 70.966 C 136.717 70.636 135.727 70.306 134.707 69.966 C 134.707 67.986 134.707 66.006 134.707 63.966 Z" fill="#7E4947"/>
    <path d="M 234.707 86.966 C 234.707 87.626 234.707 88.286 234.707 88.966 C 233.573 89.275 232.439 89.585 231.27 89.904 C 227.92 90.595 227.92 90.595 226.707 91.966 C 224.037 92.107 221.383 92.009 218.707 91.966 C 221.31 90.231 223.23 89.314 226.145 88.341 C 226.907 88.081 227.668 87.82 228.453 87.552 C 230.707 86.966 230.707 86.966 234.707 86.966 Z" fill="#E2A8B6"/>
    <path d="M 107.707 235.966 C 108.037 237.286 108.367 238.606 108.707 239.966 C 104.252 241.451 104.252 241.451 99.707 242.966 C 99.377 242.306 99.047 241.646 98.707 240.966 C 99.367 240.636 100.027 240.306 100.707 239.966 C 100.047 239.306 99.387 238.646 98.707 237.966 C 102.172 237.471 102.172 237.471 105.707 236.966 C 105.707 237.626 105.707 238.286 105.707 238.966 C 106.367 238.966 107.027 238.966 107.707 238.966 C 107.707 237.976 107.707 236.986 107.707 235.966 Z" fill="#737076"/>
    <path d="M 95.707 125.966 C 96.697 126.296 97.687 126.626 98.707 126.966 C 99.395 129.029 99.395 129.029 99.707 130.966 C 98.717 130.966 97.727 130.966 96.707 130.966 C 96.707 131.626 96.707 132.286 96.707 132.966 C 96.047 132.636 95.387 132.306 94.707 131.966 C 93.717 131.636 92.727 131.306 91.707 130.966 C 93.027 129.316 94.347 127.666 95.707 125.966 Z" fill="#9D6C67"/>
    <path d="M 97.707 168.966 C 100.677 169.461 100.677 169.461 103.707 169.966 C 103.047 171.616 102.387 173.266 101.707 174.966 C 101.047 174.966 100.387 174.966 99.707 174.966 C 99.707 174.306 99.707 173.646 99.707 172.966 C 98.387 172.966 97.067 172.966 95.707 172.966 C 96.367 171.646 97.027 170.326 97.707 168.966 Z" fill="#8F5F59"/>
    <path d="M 266.707 181.966 C 265.576 185.361 264.279 186.546 261.707 188.966 C 260.705 189.964 259.704 190.963 258.707 191.966 C 259.156 190.484 259.617 189.005 260.082 187.529 C 260.338 186.705 260.593 185.881 260.856 185.032 C 262.174 181.834 263.32 181.966 266.707 181.966 Z" fill="#D47CA3"/>
    <path d="M 131.707 164.966 C 132.367 164.966 133.027 164.966 133.707 164.966 C 133.707 165.626 133.707 166.286 133.707 166.966 C 134.367 166.966 135.027 166.966 135.707 166.966 C 138.707 170.428 138.707 170.428 138.707 172.966 C 136.707 171.966 134.707 170.966 132.707 169.966 C 132.707 169.306 132.707 168.646 132.707 167.966 C 132.047 167.636 131.387 167.306 130.707 166.966 C 131.037 166.306 131.367 165.646 131.707 164.966 Z" fill="#7F4E49"/>
    <path d="M 357.707 93.966 C 358.367 95.286 359.027 96.606 359.707 97.966 C 360.367 98.296 361.027 98.626 361.707 98.966 C 361.707 99.626 361.707 100.286 361.707 100.966 C 361.047 100.966 360.387 100.966 359.707 100.966 C 359.377 101.956 359.047 102.946 358.707 103.966 C 358.707 102.976 358.707 101.986 358.707 100.966 C 358.047 100.966 357.387 100.966 356.707 100.966 C 356.707 101.956 356.707 102.946 356.707 103.966 C 356.047 103.636 355.387 103.306 354.707 102.966 C 355.697 99.996 356.687 97.026 357.707 93.966 Z" fill="#797581"/>
    <path d="M 342.707 134.966 C 343.626 138.64 344.203 142.218 344.707 145.966 C 344.047 144.976 343.387 143.986 342.707 142.966 C 341.717 143.296 340.727 143.626 339.707 143.966 C 340.697 140.996 341.687 138.026 342.707 134.966 Z" fill="#797380"/>
    <path d="M 286.707 89.966 C 290.942 91.277 294.781 92.91 298.707 94.966 C 295.697 96.24 294.699 95.963 291.582 94.716 C 288.707 92.966 288.707 92.966 286.707 89.966 Z" fill="#E3ACBA"/>
    <path d="M 300.707 97.966 C 305.138 99.174 307.688 100.483 310.707 103.966 C 306.676 103.691 305.138 103.431 302.332 100.404 C 301.528 99.197 301.528 99.197 300.707 97.966 Z" fill="#D993A4"/>
    <path d="M 170.707 381.966 C 178.136 385.109 178.136 385.109 181.707 386.966 C 179.116 388.262 177.584 388.309 174.707 387.966 C 172.395 386.091 172.395 386.091 170.707 383.966 C 170.707 383.306 170.707 382.646 170.707 381.966 Z" fill="#56535E"/>
    <path d="M 175.707 386.966 C 178.582 387.154 178.582 387.154 181.707 387.966 C 183.082 390.529 183.082 390.529 183.707 392.966 C 180.341 391.524 178.197 389.633 175.707 386.966 Z" fill="#3F3C45"/>
    <path d="M 325.707 123.966 C 327.861 126.588 329.108 128.61 329.707 131.966 C 328.717 131.966 327.727 131.966 326.707 131.966 C 325.353 129.257 325.642 126.957 325.707 123.966 Z" fill="#D98EA3"/>
    <path d="M 140.707 160.966 C 141.367 160.966 142.027 160.966 142.707 160.966 C 142.02 163.404 142.02 163.404 140.707 165.966 C 138.082 166.779 138.082 166.779 135.707 166.966 C 137.323 164.925 138.993 162.925 140.707 160.966 Z" fill="#83524D"/>
</svg>