<?xml version="1.0" encoding="utf-8"?>
<svg viewBox="33.757 32.38 400 400" xmlns="http://www.w3.org/2000/svg">
  <g stroke-width="2.00" fill="none" stroke-linecap="butt">
    <path stroke="#9d888a" vector-effect="non-scaling-stroke" d=" M 90.93 62.06 Q 89.79 65.54 90.68 67.52 C 92.10 70.64 93.55 73.64 94.67 76.89 C 96.40 81.85 98.80 86.50 100.60 91.43 C 102.54 96.76 105.05 101.68 107.00 107.16 Q 108.45 111.25 110.44 115.46 C 112.05 118.84 112.95 122.56 114.61 126.08"/>
    <path stroke="#baa0a1" vector-effect="non-scaling-stroke" d=" M 114.61 126.08 Q 113.69 125.81 112.94 124.73 Q 112.26 123.74 111.51 122.90 Q 100.25 110.39 88.29 97.91 Q 84.92 94.40 81.53 97.63 Q 70.61 108.01 60.09 118.38 Q 57.54 120.89 55.44 123.48 Q 53.56 125.79 54.23 128.21"/>
    <path stroke="#9d888a" vector-effect="non-scaling-stroke" d=" M 54.23 128.21 Q 54.09 132.14 55.29 133.48 Q 71.07 151.19 86.67 169.07 Q 95.87 179.62 105.19 190.04 Q 105.71 190.62 106.15 191.67"/>
    <path stroke="#e2e1c1" vector-effect="non-scaling-stroke" d=" M 106.15 191.67 Q 105.81 193.41 104.99 195.24 Q 102.05 201.78 100.54 208.80 Q 99.16 215.18 98.23 221.34"/>
    <path stroke="#aaa7b0" vector-effect="non-scaling-stroke" d=" M 98.23 221.34 C 93.14 222.55 78.18 227.38 77.56 232.80 Q 77.39 234.26 78.33 236.43 Q 87.70 258.16 95.32 274.42 C 104.08 293.11 113.97 311.34 124.78 328.94 Q 132.75 341.90 141.70 353.05 Q 144.51 356.54 147.73 359.50"/>
    <path stroke="#a29ea9" vector-effect="non-scaling-stroke" d=" M 147.73 359.50 Q 154.26 367.20 160.22 371.46"/>
    <path stroke="#8d8a93" vector-effect="non-scaling-stroke" d=" M 160.22 371.46 Q 163.03 374.82 166.09 376.83 C 168.01 378.08 169.60 379.50 171.45 380.77 Q 182.27 388.19 193.93 393.30 Q 194.73 393.65 193.87 393.82 Q 187.86 395.08 183.07 398.59 Q 179.82 400.97 180.47 404.69 C 181.12 408.33 184.96 410.60 188.20 411.33 Q 196.58 413.24 205.68 414.84 C 214.42 416.38 223.09 416.78 231.77 417.54 Q 253.57 419.45 276.03 417.93 Q 286.42 417.23 297.15 416.07 Q 302.82 415.46 310.35 411.91 Q 313.09 410.61 314.02 408.41 C 315.41 405.13 314.62 401.06 311.23 399.42 Q 304.75 396.28 298.21 395.08 Q 296.56 394.78 298.07 394.05 C 298.67 393.77 299.62 393.80 300.21 393.49 C 305.10 390.97 309.92 388.46 314.50 385.36 Q 333.10 372.77 347.40 352.24 Q 359.24 335.24 368.93 317.03 Q 379.24 297.65 387.03 280.04 Q 391.77 269.32 396.21 258.34 Q 398.28 253.24 400.08 248.52 Q 401.96 243.58 404.10 238.76"/>
    <path stroke="#aaa7b0" vector-effect="non-scaling-stroke" d=" M 404.10 238.76 C 406.17 234.58 406.64 230.91 402.46 228.50 Q 396.93 225.32 391.01 223.07"/>
    <path stroke="#a799c1" vector-effect="non-scaling-stroke" d=" M 391.01 223.07 Q 390.19 223.21 390.18 222.75 Q 390.07 215.46 388.88 206.17 C 386.24 185.76 372.29 169.04 354.26 159.72"/>
    <path stroke="#b1a3c7" vector-effect="non-scaling-stroke" d=" M 354.26 159.72 L 346.35 155.81"/>
    <path stroke="#8d8a93" vector-effect="non-scaling-stroke" d=" M 346.35 155.81 Q 348.38 151.29 352.56 142.82 Q 361.54 124.66 379.74 83.08 C 381.79 78.38 383.54 73.44 385.38 68.63 Q 387.71 62.54 382.18 57.88"/>
    <path stroke="#a29ea9" vector-effect="non-scaling-stroke" d=" M 382.18 57.88 Q 380.31 55.66 376.99 53.75 Q 372.19 50.98 366.37 52.98 Q 362.71 54.24 360.72 55.97 C 357.37 58.87 354.69 62.58 352.97 66.95 Q 349.56 75.56 347.31 83.38 C 346.08 87.63 344.27 91.42 342.97 95.48 Q 341.51 100.04 339.62 104.47 C 337.50 109.44 335.96 114.46 333.86 119.37 C 331.41 125.11 329.58 130.71 327.04 137.24 Q 324.65 143.37 323.04 149.77"/>
    <path stroke="#b1a3c7" vector-effect="non-scaling-stroke" d=" M 323.04 149.77 Q 321.97 150.32 321.46 149.62"/>
    <path stroke="#e4a8b9" vector-effect="non-scaling-stroke" d=" M 321.46 149.62 Q 322.44 138.67 320.51 128.14 C 319.48 122.51 318.58 118.71 316.32 113.93 Q 307.91 96.19 291.78 86.14"/>
    <path stroke="#e7b7c6" vector-effect="non-scaling-stroke" d=" M 291.78 86.14 C 279.72 78.68 267.46 74.80 253.00 72.73 Q 238.76 70.68 225.02 74.17 C 219.32 75.62 213.54 77.29 208.24 79.88 Q 183.95 91.75 171.28 116.20 Q 169.44 119.76 168.29 123.56 Q 168.17 123.97 167.93 124.12 Q 167.64 124.30 167.24 124.31"/>
    <path stroke="#baa0a1" vector-effect="non-scaling-stroke" d=" M 167.24 124.31 Q 165.71 120.44 159.53 105.23 Q 152.36 87.58 147.45 76.35 Q 146.75 74.75 145.97 72.97 Q 140.18 59.67 133.89 45.04 Q 132.79 42.48 130.47 41.67 Q 128.75 41.08 126.21 42.21 Q 110.35 49.30 96.07 56.31 Q 91.99 58.31 90.93 62.06"/>
    <path stroke="#c9838c" vector-effect="non-scaling-stroke" d=" M 167.24 124.31 C 167.50 124.78 167.59 125.38 167.40 125.92 Q 163.44 137.01 163.50 148.23"/>
    <path stroke="#c6737e" vector-effect="non-scaling-stroke" d=" M 163.50 148.23 Q 164.66 149.49 163.84 150.14"/>
    <path stroke="#c4ac87" vector-effect="non-scaling-stroke" d=" M 163.84 150.14 C 157.75 151.70 151.82 152.83 146.12 155.44 Q 139.64 158.42 137.76 159.48 Q 128.06 164.95 118.58 174.84 Q 115.21 178.36 108.56 188.24"/>
    <path stroke="#805350" vector-effect="non-scaling-stroke" d=" M 108.56 188.24 Q 98.44 177.18 88.58 165.92 Q 73.41 148.59 58.21 131.29 Q 56.17 128.97 54.23 128.21"/>
    <path stroke="#805350" vector-effect="non-scaling-stroke" d=" M 114.61 126.08 C 115.64 127.42 116.44 128.81 117.77 129.95 Q 119.68 131.60 120.76 134.09 A 0.21 0.21 0.0 0 0 121.14 134.09 L 121.47 133.37 A 0.84 0.81 -49.0 0 0 121.43 132.64 Q 119.38 128.98 118.27 125.45 Q 117.08 121.68 115.46 118.20 C 113.27 113.51 111.85 108.76 109.76 104.12 Q 107.63 99.37 105.78 94.34 C 104.39 90.55 102.45 87.01 101.12 83.16 Q 99.75 79.21 97.77 74.81 Q 95.18 69.03 92.61 62.28 Q 92.41 61.75 91.86 61.71 Q 91.55 61.69 91.43 61.98 Q 91.28 62.30 90.93 62.06"/>
    <path stroke="#e9eb94" vector-effect="non-scaling-stroke" d=" M 231.04 166.09 Q 229.03 167.19 229.79 169.77 Q 232.64 179.42 231.35 187.24 Q 230.53 192.24 229.95 197.56 C 229.46 202.09 228.21 206.30 227.75 210.92 Q 226.82 220.24 221.33 228.62 Q 218.92 232.29 214.49 234.83 C 206.73 239.27 198.47 240.21 189.78 240.73 Q 163.26 242.29 136.01 240.27 Q 124.39 239.40 98.67 234.26"/>
    <path stroke="#989779" vector-effect="non-scaling-stroke" d=" M 98.67 234.26 L 98.06 226.78"/>
    <path stroke="#b4b396" vector-effect="non-scaling-stroke" d=" M 98.06 226.78 L 98.23 221.34"/>
    <path stroke="#a89470" vector-effect="non-scaling-stroke" d=" M 108.56 188.24 Q 107.59 190.57 106.15 191.67"/>
    <path stroke="#f38ba4" vector-effect="non-scaling-stroke" d=" M 291.78 86.14 Q 291.39 86.05 291.14 86.18 A 0.41 0.41 0.0 0 0 291.06 86.85 C 292.87 88.48 294.80 89.83 296.19 91.91 Q 302.25 101.00 303.98 109.62 Q 307.32 126.33 294.72 137.38 C 286.31 144.75 274.99 146.60 265.57 152.18 Q 260.93 154.92 256.56 158.27 Q 247.27 165.37 236.02 161.64 Q 231.46 160.14 227.22 158.80 Q 224.19 157.84 218.48 155.68 Q 213.35 153.73 208.83 152.47 C 207.21 152.03 206.23 150.91 204.49 150.88 Q 204.01 150.87 203.60 150.61 Q 203.21 150.37 202.72 150.27 Q 197.24 149.16 190.72 148.08 Q 176.93 145.80 163.50 148.23"/>
    <path stroke="#bd76a5" vector-effect="non-scaling-stroke" d=" M 321.46 149.62 C 310.41 149.01 302.89 149.02 293.21 151.11 Q 285.52 152.78 279.06 155.62 Q 259.39 164.25 246.20 182.02"/>
    <path stroke="#ebb28b" vector-effect="non-scaling-stroke" d=" M 246.20 182.02 Q 239.83 172.45 231.04 166.09"/>
    <path stroke="#eeb49f" vector-effect="non-scaling-stroke" d=" M 231.04 166.09 Q 220.94 158.62 209.00 154.47 Q 186.85 146.78 163.84 150.14"/>
    <path stroke="#b1b182" vector-effect="non-scaling-stroke" d=" M 235.65 251.34 Q 197.45 251.04 179.75 250.16 Q 154.77 248.93 137.45 246.68 C 124.97 245.06 112.11 244.09 99.99 240.47 Q 99.29 240.26 99.34 239.54"/>
    <path stroke="#949466" vector-effect="non-scaling-stroke" d=" M 99.34 239.54 L 98.67 234.26"/>
    <path stroke="#605d68" vector-effect="non-scaling-stroke" d=" M 98.06 226.78 Q 92.68 228.83 90.96 229.93 Q 89.21 231.04 88.35 232.64 C 86.93 235.25 91.37 237.85 93.25 238.34 Q 95.95 239.03 98.67 240.17 A 0.48 0.48 0.0 0 0 99.26 239.97 Q 99.36 239.79 99.34 239.54"/>
    <path stroke="#605d68" vector-effect="non-scaling-stroke" d=" M 388.29 238.04 Q 388.53 238.68 388.87 238.62 Q 392.52 237.93 394.81 234.95 C 396.98 232.14 391.39 229.25 389.46 228.87"/>
    <path stroke="#605d68" vector-effect="non-scaling-stroke" d=" M 404.10 238.76 Q 404.14 238.24 404.13 238.22 A 0.72 0.72 0.0 0 0 403.08 238.00 Q 398.02 241.76 392.02 243.56 C 380.63 246.98 368.65 249.96 356.38 251.20 C 355.40 251.30 354.43 252.14 353.51 252.01 Q 350.61 251.59 348.23 252.65"/>
    <path stroke="#74717d" vector-effect="non-scaling-stroke" d=" M 348.23 252.65 Q 343.58 253.01 338.97 253.69 C 330.02 255.00 321.11 255.21 312.03 255.87 C 308.97 256.09 305.97 255.95 302.90 256.36 Q 299.51 256.80 296.09 256.95 C 281.74 257.55 267.54 258.21 253.41 258.22 Q 237.67 258.23 220.64 258.24 Q 219.39 258.24 219.14 259.47 Q 218.86 260.92 218.84 262.34 Q 218.74 270.26 217.93 278.33 Q 216.59 291.88 214.65 303.90 Q 212.92 314.63 209.15 328.02 Q 207.97 332.23 206.26 336.40 Q 204.46 340.78 202.67 344.33 C 200.20 349.22 195.62 355.13 191.10 358.70 Q 182.93 365.13 171.94 365.52 C 169.42 365.61 166.84 365.11 164.32 364.87 Q 162.05 364.65 158.91 363.29 Q 153.67 361.02 147.73 359.50"/>
    <path stroke="#8167ad" vector-effect="non-scaling-stroke" d=" M 354.26 159.72 Q 361.90 168.35 364.03 173.69 Q 371.51 192.48 364.86 210.76 Q 361.26 220.63 351.51 227.76 Q 346.28 231.58 338.28 234.20 Q 328.79 237.32 323.49 237.93 Q 305.75 239.99 288.88 241.55 C 271.20 243.18 253.81 243.55 236.08 244.43 Q 235.61 244.45 235.30 244.81 L 234.11 246.20"/>
    <path stroke="#b8ad9a" vector-effect="non-scaling-stroke" d=" M 234.11 246.20 Q 233.43 244.29 233.10 242.24 Q 231.13 229.81 232.25 217.18 C 232.97 209.10 235.68 201.85 238.86 194.64 Q 240.21 191.58 242.42 188.03 Q 244.35 184.95 246.20 182.02"/>
    <path stroke="#7a6b96" vector-effect="non-scaling-stroke" d=" M 391.01 223.07 Q 390.45 223.13 390.07 223.58 Q 389.81 223.90 389.79 224.51 Q 389.72 226.83 389.46 228.87"/>
    <path stroke="#5d4f79" vector-effect="non-scaling-stroke" d=" M 389.46 228.87 L 388.29 238.04"/>
    <path stroke="#7a6b96" vector-effect="non-scaling-stroke" d=" M 388.29 238.04 L 388.24 238.47 Q 388.20 238.94 387.76 239.09 Q 378.22 242.33 368.35 243.70 C 353.24 245.80 337.48 247.92 322.25 248.92 Q 279.91 251.68 235.65 251.34"/>
    <path stroke="#aea394" vector-effect="non-scaling-stroke" d=" M 235.65 251.34 L 234.11 246.20"/>
    <path stroke="#585461" vector-effect="non-scaling-stroke" d=" M 160.22 371.46 Q 170.22 375.83 180.16 378.91 Q 188.38 381.46 197.72 382.89 Q 210.62 384.85 215.88 384.89 Q 222.70 384.93 235.38 382.76 Q 241.11 381.78 246.73 379.83 Q 252.82 377.73 257.46 375.71 Q 271.18 369.74 283.74 362.00 Q 285.38 360.99 286.48 362.57 L 286.76 362.99 Q 288.18 365.03 286.10 366.38 Q 272.67 375.15 257.54 381.34 Q 254.76 382.48 251.75 383.15 A 0.25 0.25 0.0 0 0 251.56 383.45 L 251.61 383.71 Q 251.65 383.88 251.81 383.85 Q 254.79 383.33 257.58 382.71 Q 260.34 382.10 262.85 381.26 Q 275.28 377.06 285.92 369.87 Q 289.89 367.19 293.79 364.32 C 295.61 362.98 296.56 361.26 298.28 359.94 Q 300.17 358.49 301.86 356.70 Q 314.48 343.38 323.32 327.69 C 325.76 323.36 328.46 319.08 330.48 314.61 C 332.43 310.29 334.92 306.36 336.55 301.97 C 338.32 297.20 340.80 292.66 342.46 287.81 C 344.27 282.55 346.48 277.62 348.15 272.15 Q 349.65 267.21 351.79 262.03 C 353.00 259.12 353.35 256.22 354.46 253.34 Q 354.57 253.05 354.28 252.95 L 353.97 252.85 Q 353.73 252.77 353.65 253.02 Q 351.94 258.58 349.57 263.75 C 347.96 267.26 347.23 270.94 345.53 274.48 C 343.47 278.74 341.91 283.28 339.78 287.44 Q 337.43 292.05 335.61 296.73 A 2.18 2.18 0.0 0 1 333.84 298.11 Q 332.24 298.31 331.31 297.27 Q 330.07 295.89 330.93 294.25 Q 333.79 288.84 336.01 283.52 C 338.16 278.36 340.85 273.53 342.42 268.40 Q 343.46 265.00 344.08 263.79 Q 346.74 258.63 348.23 252.65"/>
    <path stroke="#67597f" vector-effect="non-scaling-stroke" d=" M 346.35 155.81 Q 344.50 156.02 341.66 154.03"/>
    <path stroke="#585461" vector-effect="non-scaling-stroke" d=" M 382.18 57.88 Q 382.76 63.45 381.93 65.47 Q 367.32 100.85 350.69 135.33 Q 350.53 135.66 346.34 144.76 Q 344.19 149.41 341.66 154.03"/>
    <path stroke="#7b6d95" vector-effect="non-scaling-stroke" d=" M 341.66 154.03 Q 334.20 152.10 323.55 150.40 Q 323.01 150.31 323.04 149.77"/>
    <path stroke="#805350" vector-effect="non-scaling-stroke" d=" M 140.92 152.66 Q 141.10 152.86 141.21 153.10 Q 141.30 153.29 141.28 153.50 Q 141.26 153.71 141.11 153.84 Q 140.60 154.32 141.25 154.59 Q 141.66 154.76 141.98 155.03 Q 142.63 155.58 142.48 154.74 L 142.06 152.41 Q 141.93 151.69 142.62 151.46 Q 145.82 150.40 148.98 148.27 A 1.08 1.08 0.0 0 1 150.62 148.89 Q 150.81 149.63 151.24 150.11 Q 152.58 151.62 152.35 149.61 Q 152.29 149.16 152.01 148.80 A 1.07 1.07 0.0 0 1 152.37 147.18 L 161.62 142.59 A 1.11 1.10 -11.1 0 0 162.23 141.69 L 162.28 141.10 A 0.31 0.31 0.0 0 0 161.80 140.81 Q 156.98 143.92 151.96 146.17 A 1.09 1.09 0.0 0 1 150.49 145.56 L 145.87 133.45 A 0.72 0.72 0.0 0 1 146.14 132.60 Q 149.36 130.46 153.00 129.88 Q 155.32 129.51 160.26 127.26 Q 160.57 127.12 160.56 126.76 A 0.50 0.50 0.0 0 0 159.96 126.27 Q 157.71 126.72 155.32 128.15 A 0.88 0.87 79.1 0 1 154.02 127.26 Q 154.12 126.59 153.85 125.98 C 152.46 122.86 152.04 119.80 150.65 116.62 Q 149.61 114.24 148.72 111.99 A 0.65 0.64 -22.6 0 1 149.06 111.17 L 156.72 107.77 Q 157.27 107.53 156.85 107.09 L 156.68 106.91 A 0.80 0.79 55.3 0 0 155.76 106.74 L 149.51 109.78 A 1.44 1.44 0.0 0 1 147.50 108.91 Q 145.34 101.79 141.27 93.08 A 0.98 0.98 0.0 0 1 141.73 91.79 L 143.29 91.02 Q 143.85 90.74 143.36 90.35 L 142.99 90.05 A 0.48 0.48 0.0 0 0 142.39 90.05 Q 140.72 91.41 140.06 89.39 Q 138.68 85.15 136.76 81.22 C 135.57 78.81 135.25 76.16 134.14 73.68 A 1.16 1.16 0.0 0 1 134.83 72.11 L 139.78 70.45 A 0.90 0.89 -9.7 0 0 140.38 69.61 L 140.38 69.35 A 0.43 0.43 0.0 0 0 139.77 68.96 L 133.75 71.70 Q 133.22 71.94 132.95 71.42 Q 130.35 66.32 128.96 61.26 C 128.67 60.20 127.92 59.51 127.56 58.49 A 0.72 0.72 0.0 0 1 127.86 57.63 L 129.91 56.36 A 0.43 0.43 0.0 0 0 129.98 55.69 L 129.77 55.49 Q 129.64 55.36 129.48 55.45 L 127.72 56.46 Q 127.12 56.79 126.80 56.19 L 124.60 52.14 Q 124.54 52.04 124.50 52.05 L 124.27 52.12 A 0.47 0.46 -18.4 0 0 123.97 52.70 Q 124.64 54.80 125.91 56.60 A 0.32 0.32 0.0 0 1 125.84 57.04 Q 122.60 59.42 118.60 60.84 A 0.30 0.29 -21.7 0 1 118.23 60.69 L 117.94 60.09 Q 117.54 59.24 117.19 60.11 Q 117.03 60.51 117.08 60.94 A 0.86 0.86 0.0 0 1 116.48 61.87 C 113.04 62.92 110.04 64.93 106.46 66.16 A 1.54 1.53 64.3 0 1 104.67 65.53 Q 103.56 63.78 103.20 61.69 Q 103.18 61.58 103.08 61.61 L 102.76 61.71 Q 102.57 61.77 102.57 61.97 Q 102.57 64.41 104.24 65.97 A 0.68 0.68 0.0 0 1 104.03 67.10 L 101.38 68.14 Q 100.11 68.64 101.45 68.93 Q 102.68 69.20 103.71 68.20 A 0.86 0.85 -31.8 0 1 105.12 68.53 Q 105.84 70.67 106.57 72.97 C 107.60 76.24 109.30 79.15 110.34 82.43 A 0.98 0.97 77.5 0 1 109.54 83.69 Q 107.20 84.00 106.33 84.99 Q 104.63 86.94 106.96 85.82 Q 108.73 84.96 110.41 84.19 A 1.27 1.26 78.7 0 1 112.20 85.39 C 112.15 86.69 112.41 87.85 113.01 89.01 Q 116.18 95.15 118.28 101.80 A 0.83 0.83 0.0 0 1 117.82 102.81 L 113.22 104.80 Q 112.69 105.03 112.81 105.59 L 112.86 105.85 A 0.27 0.27 0.0 0 0 113.21 106.05 Q 116.05 105.14 118.32 103.47 Q 119.11 102.89 119.48 103.79 L 126.06 119.62 Q 126.26 120.10 125.81 120.37 L 121.50 122.92 A 0.33 0.33 0.0 0 0 121.69 123.54 Q 123.48 123.45 124.78 122.10 A 1.66 1.66 0.0 0 1 127.50 122.60 L 133.25 135.99 A 0.84 0.84 0.0 0 1 132.54 137.16 Q 129.79 137.36 128.03 139.20 Q 127.55 139.71 128.24 139.87 L 128.58 139.94 Q 129.24 140.09 129.77 139.66 Q 131.61 138.18 133.77 137.86 Q 134.40 137.77 134.60 138.37 Q 136.74 144.71 140.35 150.97 A 0.75 0.75 0.0 0 1 139.63 152.09 Q 139.12 152.04 138.80 152.47 Q 138.50 152.90 139.01 152.99 Q 139.71 153.12 140.16 152.66 Q 140.54 152.28 140.92 152.66"/>
    <path stroke="#805350" vector-effect="non-scaling-stroke" d=" M 107.87 173.52 L 112.50 178.10 Q 112.66 178.26 112.82 178.10 L 113.23 177.67 Q 113.30 177.59 113.23 177.51 L 108.49 172.58 Q 107.93 172.00 108.42 171.36 Q 109.10 170.46 110.01 169.81 Q 113.26 167.50 115.55 164.20 A 0.93 0.92 -45.3 0 1 117.06 164.19 L 120.91 169.58 Q 121.09 169.83 121.32 169.64 L 121.90 169.17 Q 122.09 169.01 121.93 168.82 L 117.74 163.63 Q 117.21 162.97 117.83 162.39 L 122.66 157.85 Q 123.35 157.21 124.04 157.84 Q 126.80 160.39 128.96 163.01 Q 129.02 163.10 129.11 163.04 L 129.35 162.88 Q 129.66 162.68 129.48 162.35 Q 127.75 159.30 125.09 157.34 A 1.13 1.12 -46.7 0 1 125.04 155.57 L 131.59 150.07 A 0.64 0.64 0.0 0 0 130.98 148.97 Q 130.13 149.26 129.79 150.19 A 1.34 1.26 -11.2 0 1 129.39 150.75 L 124.06 155.07 A 0.40 0.40 0.0 0 1 123.51 155.02 L 113.55 143.41 Q 113.24 143.06 113.04 142.64 Q 112.79 142.11 112.31 141.69 Q 111.93 141.36 111.94 140.86 Q 111.96 139.70 113.12 139.00 Q 113.29 138.90 113.20 138.73 L 113.06 138.45 Q 112.94 138.21 112.73 138.39 L 111.27 139.67 Q 110.85 140.04 110.44 139.65 Q 109.15 138.38 108.02 136.96 Q 104.83 132.94 101.26 129.06 Q 99.57 127.21 98.21 124.95 Q 97.95 124.52 98.38 124.26 Q 101.08 122.63 103.02 119.21 Q 103.29 118.74 102.75 118.79 L 102.04 118.85 A 0.26 0.21 5.3 0 0 101.85 118.98 Q 100.23 122.18 97.73 123.73 A 1.07 1.06 -36.0 0 1 96.36 123.52 L 87.40 113.09 Q 86.83 112.43 87.59 112.00 Q 88.51 111.48 88.91 110.60 Q 89.26 109.83 88.51 110.21 Q 87.66 110.64 87.10 111.43 A 1.10 1.09 -44.3 0 1 85.31 111.41 L 82.83 107.82 Q 82.70 107.63 82.52 107.78 L 82.27 108.01 A 0.46 0.46 0.0 0 0 82.20 108.61 L 84.73 112.14 Q 85.03 112.56 84.75 113.00 C 83.58 114.80 81.28 118.25 78.80 117.90 A 0.40 0.39 -84.0 0 0 78.35 118.27 Q 78.20 120.01 76.69 121.32 Q 73.09 124.44 70.07 127.63 Q 69.15 128.59 68.17 127.71 Q 66.50 126.21 65.73 124.36 Q 65.61 124.05 65.32 124.21 L 65.01 124.39 A 0.34 0.33 -33.2 0 0 64.90 124.88 L 67.72 128.58 A 0.72 0.72 0.0 0 1 67.35 129.70 Q 66.30 130.00 65.96 130.85 Q 65.48 132.07 66.43 131.17 Q 67.40 130.26 68.36 130.02 Q 68.98 129.86 69.40 130.34 L 78.89 141.13 A 1.17 1.16 45.2 0 1 78.89 142.66 L 76.00 145.98 A 0.30 0.30 0.0 0 0 76.03 146.40 L 76.23 146.57 Q 76.33 146.66 76.43 146.57 Q 78.26 144.97 79.61 143.03 A 0.60 0.60 0.0 0 1 80.55 142.98 L 93.21 157.22 A 0.73 0.72 -34.3 0 1 92.99 158.35 Q 90.38 159.66 89.42 161.88 Q 88.96 162.93 89.89 162.26 Q 91.06 161.41 93.41 158.90 A 0.79 0.79 0.0 0 1 94.57 158.90 L 106.27 171.46 A 0.84 0.83 46.7 0 1 106.24 172.64 L 103.28 175.46 Q 102.75 175.96 103.30 176.45 L 103.57 176.69 Q 103.61 176.73 103.65 176.69 Q 105.45 175.02 107.06 173.51 Q 107.47 173.12 107.87 173.52"/>
    <path stroke="#805350" vector-effect="non-scaling-stroke" d=" M 123.22 71.79 Q 123.88 73.40 124.16 75.17 Q 124.40 76.70 125.72 75.88 Q 128.57 74.10 131.41 72.90 Q 132.21 72.56 131.83 71.78 Q 129.90 67.83 128.74 63.66 C 128.32 62.16 127.57 60.81 126.91 59.40 Q 126.42 58.35 125.35 58.82 L 119.67 61.34 Q 118.63 61.80 119.14 62.81 Q 121.33 67.14 123.22 71.79"/>
    <path stroke="#805350" vector-effect="non-scaling-stroke" d=" M 123.35 74.74 Q 120.82 68.21 117.97 62.95 Q 117.66 62.39 117.07 62.63 C 113.40 64.11 110.40 65.96 106.32 66.83 A 0.80 0.80 0.0 0 0 105.72 67.84 Q 107.83 74.72 111.58 81.81 Q 111.85 82.33 112.37 82.08 L 122.36 77.26 Q 124.02 76.46 123.35 74.74"/>
    <path stroke="#805350" vector-effect="non-scaling-stroke" d=" M 132.59 95.00 Q 135.25 94.65 137.12 93.33 Q 138.07 92.66 139.11 92.24 Q 140.20 91.81 139.68 90.76 Q 138.05 87.46 136.62 83.91 C 135.56 81.27 135.13 78.59 133.60 76.14 A 1.71 1.69 30.7 0 1 133.34 75.14 L 133.37 74.50 Q 133.41 73.78 132.70 73.86 Q 131.01 74.03 129.51 75.09 Q 127.93 76.19 126.22 76.72 Q 125.01 77.09 125.55 78.24 Q 129.21 86.09 131.27 94.11 Q 131.54 95.14 132.59 95.00"/>
    <path stroke="#805350" vector-effect="non-scaling-stroke" d=" M 130.54 96.33 Q 131.26 95.89 130.96 95.11 L 124.59 78.40 A 1.01 1.01 0.0 0 0 123.19 77.86 L 113.07 83.06 Q 112.58 83.31 112.71 83.85 C 113.16 85.63 112.97 86.96 113.94 88.69 Q 117.16 94.43 118.71 100.32 Q 119.14 101.97 120.73 101.32 Q 125.85 99.20 130.54 96.33"/>
    <path stroke="#805350" vector-effect="non-scaling-stroke" d=" M 139.81 113.38 L 146.47 111.13 Q 147.23 110.88 146.82 110.18 C 146.10 108.94 146.40 107.69 145.73 106.28 Q 142.66 99.89 140.43 93.57 Q 140.26 93.07 139.79 93.29 L 133.15 96.35 Q 132.64 96.58 132.83 97.11 C 133.82 99.99 135.17 102.68 135.91 105.67 Q 136.81 109.35 138.89 113.02 A 0.78 0.77 -23.5 0 0 139.81 113.38"/>
    <path stroke="#805350" vector-effect="non-scaling-stroke" d=" M 126.89 118.79 A 0.88 0.88 0.0 0 0 128.06 119.25 L 137.10 115.22 A 0.88 0.88 0.0 0 0 137.57 114.13 L 132.13 98.24 A 0.88 0.88 0.0 0 0 130.92 97.73 L 120.89 102.46 A 0.88 0.88 0.0 0 0 120.45 103.60 L 126.89 118.79"/>
    <path stroke="#805350" vector-effect="non-scaling-stroke" d=" M 140.22 117.05 C 141.25 121.37 143.12 125.87 144.67 130.28 A 1.38 1.37 68.7 0 0 146.51 131.09 L 150.38 129.42 Q 150.86 129.21 151.39 129.16 L 152.95 129.01 Q 153.74 128.93 153.49 128.17 Q 151.02 120.47 147.80 113.12 Q 147.34 112.06 146.26 112.48 L 141.66 114.28 A 2.38 2.37 -17.6 0 0 140.22 117.05"/>
    <path stroke="#805350" vector-effect="non-scaling-stroke" d=" M 137.65 116.48 L 128.56 119.97 A 0.72 0.72 0.0 0 0 128.14 120.90 L 132.78 132.97 A 3.35 2.18 69.0 0 0 136.01 135.32 L 142.38 132.87 A 3.35 2.18 69.0 0 0 143.21 128.96 L 138.58 116.89 A 0.72 0.72 0.0 0 0 137.65 116.48"/>
    <path stroke="#805350" vector-effect="non-scaling-stroke" d=" M 141.03 150.58 A 0.34 0.34 0.0 0 0 141.48 150.75 L 149.44 146.97 A 0.34 0.34 0.0 0 0 149.61 146.55 L 144.87 133.56 A 0.34 0.34 0.0 0 0 144.43 133.36 L 135.20 136.71 A 0.34 0.34 0.0 0 0 135.01 137.16 L 141.03 150.58"/>
    <path stroke="#f9b2c2" vector-effect="non-scaling-stroke" d=" M 177.71 130.37 C 176.51 133.50 174.76 139.27 175.82 142.67 A 0.60 0.59 67.8 0 0 176.66 143.03 C 178.54 142.06 180.48 140.60 181.50 138.68 C 188.70 124.99 200.41 116.35 213.97 108.54 Q 221.18 104.39 228.15 100.19 C 232.71 97.45 239.05 92.14 234.65 86.25 C 231.16 81.57 223.81 82.63 219.27 84.72 C 206.77 90.49 196.49 101.39 187.78 112.33 Q 181.68 119.99 177.71 130.37"/>
    <path stroke="#805350" vector-effect="non-scaling-stroke" d=" M 86.59 113.55 A 0.61 0.61 0.0 0 0 85.68 113.53 L 80.80 118.78 A 0.61 0.61 0.0 0 0 80.79 119.60 L 90.26 130.26 A 0.61 0.61 0.0 0 0 91.14 130.29 L 96.05 125.49 A 0.61 0.61 0.0 0 0 96.09 124.66 L 86.59 113.55"/>
    <path stroke="#805350" vector-effect="non-scaling-stroke" d=" M 79.99 120.40 A 0.77 0.77 0.0 0 0 78.89 120.35 L 69.97 128.79 A 0.77 0.77 0.0 0 0 69.92 129.87 L 79.73 140.73 A 0.77 0.77 0.0 0 0 80.84 140.76 L 89.53 132.06 A 0.77 0.77 0.0 0 0 89.56 131.00 L 79.99 120.40"/>
    <path stroke="#805350" vector-effect="non-scaling-stroke" d=" M 103.99 146.86 A 0.34 0.34 0.0 0 0 104.51 146.87 L 109.74 140.84 A 0.34 0.34 0.0 0 0 109.74 140.40 L 97.38 125.93 A 0.34 0.34 0.0 0 0 96.88 125.91 L 91.53 131.26 A 0.34 0.34 0.0 0 0 91.51 131.72 L 103.99 146.86"/>
    <path stroke="#805350" vector-effect="non-scaling-stroke" d=" M 94.00 156.48 A 0.30 0.30 0.0 0 0 94.43 156.49 L 103.16 147.88 A 0.30 0.30 0.0 0 0 103.18 147.48 L 90.82 132.61 A 0.30 0.30 0.0 0 0 90.38 132.59 L 81.06 141.80 A 0.30 0.30 0.0 0 0 81.05 142.21 L 94.00 156.48"/>
    <path stroke="#805350" vector-effect="non-scaling-stroke" d=" M 105.52 148.66 L 116.36 161.92 Q 116.75 162.39 117.11 161.90 Q 119.09 159.21 122.20 157.33 Q 123.81 156.36 122.50 155.01 Q 116.30 148.63 111.55 142.02 Q 111.08 141.37 110.44 141.84 Q 108.72 143.10 105.50 147.22 Q 104.94 147.95 105.52 148.66"/>
    <path stroke="#805350" vector-effect="non-scaling-stroke" d=" M 104.50 149.03 A 0.66 0.66 0.0 0 0 103.52 148.99 L 95.31 157.29 A 0.66 0.66 0.0 0 0 95.30 158.20 L 106.96 170.47 A 0.66 0.66 0.0 0 0 107.89 170.50 L 115.35 163.45 A 0.66 0.66 0.0 0 0 115.41 162.56 L 104.50 149.03"/>
    <path stroke="#f3f4c9" vector-effect="non-scaling-stroke" d=" M 158.85 159.22 C 154.90 160.36 150.12 162.55 146.39 165.02 C 135.87 171.99 126.96 182.00 119.05 192.69 Q 111.66 202.68 109.14 215.28 Q 108.67 217.62 108.91 219.91 A 1.38 1.38 0.0 0 0 111.23 220.77 Q 114.59 217.61 116.68 213.76 C 123.06 202.01 135.77 192.33 147.62 185.83 Q 156.76 180.82 165.72 174.91 Q 168.60 173.01 169.88 170.68 C 172.40 166.13 170.00 160.66 165.03 159.31 Q 161.68 158.40 158.85 159.22"/>
    <path stroke="#b19bca" vector-effect="non-scaling-stroke" d=" M 245.69 208.71 Q 242.96 215.75 242.72 225.90 Q 242.68 227.53 243.33 229.06 A 0.64 0.64 0.0 0 0 244.27 229.34 Q 247.57 227.14 249.00 223.33 Q 253.41 211.58 262.70 202.31 Q 270.80 194.23 279.60 187.65 Q 285.51 183.22 290.67 179.18 C 292.70 177.58 295.45 175.18 296.61 172.76 C 298.88 168.01 298.02 163.53 292.56 161.61 C 288.93 160.33 285.64 161.56 282.26 163.04 C 275.87 165.85 270.04 171.48 265.41 176.91 C 257.35 186.36 250.12 197.28 245.69 208.71"/>
    <path stroke="#aaa7b0" vector-effect="non-scaling-stroke" d=" M 155.98 331.06 C 153.69 326.39 151.88 321.73 149.78 317.05 C 147.06 310.98 144.84 304.20 142.28 297.76 C 140.58 293.46 139.48 288.95 137.91 284.48 C 135.20 276.79 133.27 268.52 130.70 260.67 C 129.80 257.95 129.44 255.07 128.83 252.25 A 1.36 1.36 0.0 0 0 127.60 251.19 Q 114.78 250.27 102.34 246.67 A 0.57 0.57 0.0 0 0 101.63 247.38 Q 103.77 254.92 106.27 262.69 C 108.07 268.26 110.55 273.47 112.50 278.86 Q 113.73 282.23 115.36 285.76 Q 116.86 289.04 118.50 292.47 Q 123.17 302.29 129.89 313.46 Q 140.30 330.75 152.61 344.60 Q 154.46 346.68 156.54 348.60 C 159.23 351.08 160.77 353.30 164.86 353.64 Q 165.42 353.69 165.64 353.17 Q 166.39 351.41 165.41 349.56 Q 160.74 340.76 155.98 331.06"/>
    <path stroke="#585461" vector-effect="non-scaling-stroke" d=" M 300.2341 351.2131 A 2.47 2.47 0.0 0 0 296.7411 351.1765 L 290.1966 357.5854 A 2.47 2.47 0.0 0 0 290.1600 361.0783 L 290.2859 361.2069 A 2.47 2.47 0.0 0 0 293.7789 361.2435 L 300.3234 354.8346 A 2.47 2.47 0.0 0 0 300.3600 351.3417 L 300.2341 351.2131"/>
    <path stroke="#585461" vector-effect="non-scaling-stroke" d=" M 237.11 378.04 Q 236.82 376.23 234.72 376.48 Q 220.58 378.17 211.43 377.67 Q 204.94 377.32 192.90 376.04 A 1.36 1.32 29.3 0 0 191.95 376.29 Q 190.44 377.40 190.69 379.60 Q 190.76 380.20 191.33 380.40 Q 194.64 381.55 198.49 381.95 Q 217.75 383.95 234.86 381.76 Q 235.80 381.65 236.58 381.12 Q 237.49 380.50 237.35 379.56 Q 237.23 378.81 237.11 378.04"/>
  </g>
  <path fill="#9c6b66" d="M 167.24 124.31 C 167.5 124.78 167.59 125.38 167.4 125.92 C 164.76 133.31333333333333 163.46 140.75 163.5 148.23 C 164.27333333333334 149.07 164.38666666666666 149.70666666666668 163.84 150.14 C 157.75 151.7 151.82 152.83 146.12 155.44 C 141.79999999999998 157.42666666666665 139.01333333333332 158.7733333333333 137.76 159.48 C 131.29333333333332 163.12666666666667 124.9 168.24666666666667 118.58 174.84 C 116.33333333333333 177.18666666666667 112.99333333333333 181.65333333333334 108.56 188.24 C 101.81333333333333 180.86666666666667 95.15333333333334 173.42666666666668 88.58 165.92 C 78.46666666666667 154.36666666666667 68.34333333333333 142.82333333333332 58.21 131.29 C 56.85 129.74333333333334 55.52333333333333 128.71666666666667 54.23 128.21 C 53.78333333333333 126.59666666666668 54.18666666666667 125.02000000000001 55.44 123.48 C 56.839999999999996 121.75333333333333 58.39 120.05333333333333 60.09 118.38 C 67.10333333333334 111.46666666666667 74.25 104.55 81.53 97.63 C 83.79 95.47666666666667 86.04333333333334 95.57000000000001 88.29 97.91 C 96.26333333333334 106.23 104.00333333333333 114.56 111.51 122.9 C 112.01 123.46 112.48666666666666 124.07 112.94 124.73 C 113.44 125.45 113.99666666666667 125.9 114.61 126.08 C 115.64 127.42 116.44 128.81 117.77 129.95 C 119.04333333333334 131.04999999999998 120.04 132.43 120.76 134.09 C 120.82885303726592 134.23626206819472 121.03021951889045 134.2531402615664 121.12245966692416 134.12038074806904 C 121.12914354650005 134.11076076566783 121.13501079064453 134.10059840070917 121.14 134.09 L 121.47 133.37 C 121.5708152454349 133.12958662812594 121.55602644551551 132.85969103038806 121.43000000000004 132.64 C 120.06333333333333 130.2 119.00999999999999 127.80333333333333 118.27 125.45 C 117.47666666666666 122.93666666666667 116.53999999999999 120.52000000000001 115.46 118.2 C 113.27 113.51 111.85 108.76 109.76 104.12 C 108.34 100.95333333333333 107.01333333333334 97.69333333333334 105.78 94.34 C 104.39 90.55 102.45 87.01 101.12 83.16 C 100.20666666666666 80.52666666666666 99.09 77.74333333333333 97.77 74.81 C 96.04333333333334 70.95666666666666 94.32333333333334 66.78 92.61 62.28 C 92.47666666666666 61.92666666666667 92.22666666666666 61.736666666666665 91.86 61.71 C 91.65333333333334 61.696666666666665 91.51 61.78666666666666 91.43 61.98 C 91.33 62.19333333333333 91.16333333333334 62.22 90.93 62.06 C 91.63666666666667 59.56 93.35 57.64333333333334 96.07 56.31 C 105.58999999999999 51.63666666666666 115.63666666666666 46.93666666666667 126.21 42.21 C 127.90333333333334 41.45666666666666 129.32333333333332 41.276666666666664 130.47 41.67 C 132.01666666666665 42.21 133.15666666666667 43.33333333333333 133.89 45.04 C 138.08333333333334 54.79333333333334 142.11 64.10333333333334 145.97 72.97 C 146.49 74.15666666666667 146.98333333333332 75.28333333333333 147.45 76.35 C 150.72333333333333 83.83666666666666 154.75 93.46333333333334 159.53 105.23 C 163.65 115.37 166.22 121.73 167.24 124.31 Z"/>
  <path fill="#9c6b66" d="M 107.87 173.52 L 112.5 178.1 C 112.60666666666667 178.20666666666665 112.71333333333332 178.20666666666665 112.82 178.1 L 113.23 177.67 C 113.27666666666667 177.61666666666667 113.27666666666667 177.56333333333333 113.23 177.51 L 108.49 172.58 C 108.11666666666667 172.19333333333333 108.09333333333333 171.78666666666666 108.42 171.36 C 108.87333333333333 170.76000000000002 109.40333333333334 170.24333333333334 110.01 169.81 C 112.17666666666668 168.27 114.02333333333334 166.4 115.55 164.2 C 115.92078360884501 163.676681803922 116.69357921639174 163.67156395289985 117.06000000000002 164.19 L 120.91 169.58 C 121.03 169.74666666666667 121.16666666666667 169.76666666666668 121.32 169.64 L 121.9 169.17 C 122.02666666666667 169.06333333333333 122.03666666666668 168.94666666666666 121.93 168.82 L 117.74 163.63 C 117.38666666666666 163.19 117.41666666666666 162.77666666666667 117.83 162.39 L 122.66 157.85 C 123.11999999999999 157.42333333333335 123.58 157.42000000000002 124.04 157.84 C 125.88 159.54 127.52 161.26333333333332 128.96 163.01 C 129 163.07 129.05 163.07999999999998 129.11 163.04 L 129.35 162.88 C 129.55666666666667 162.74666666666667 129.6 162.57 129.48 162.35 C 128.32666666666665 160.31666666666666 126.86333333333333 158.64666666666668 125.09 157.34 C 124.50309778465609 156.91109318257452 124.47853484290533 156.04156501233876 125.04000000000002 155.56999999999996 L 131.59 150.07 C 131.96909922851992 149.75534193024566 131.86540889395877 149.1482936835782 131.40335739778578 148.97731315600203 C 131.26715544471506 148.9269121033362 131.11786144789247 148.92433317051635 130.98 148.97 C 130.41333333333333 149.16333333333333 130.01666666666665 149.57 129.79 150.19 C 129.71148309801902 150.40603875292095 129.57331249064538 150.5994776029172 129.39 150.75 L 124.06 155.07 C 123.89272847716248 155.20287373622278 123.65056852905342 155.18085919547838 123.51 155.02 L 113.55 143.41 C 113.34333333333333 143.17666666666668 113.17333333333333 142.92 113.04 142.64 C 112.87333333333333 142.28666666666666 112.63000000000001 141.97 112.31 141.69 C 112.05666666666667 141.47 111.93333333333334 141.19333333333336 111.94 140.86 C 111.95333333333333 140.08666666666667 112.34666666666666 139.46666666666667 113.12 139 C 113.23333333333333 138.93333333333334 113.26 138.84333333333333 113.2 138.73 L 113.06 138.45 C 112.98 138.29 112.87 138.27 112.73 138.39 L 111.27 139.67 C 110.99 139.91666666666666 110.71333333333332 139.91 110.44 139.65 C 109.58 138.80333333333334 108.77333333333334 137.90666666666667 108.02 136.96 C 105.89333333333333 134.28 103.64 131.64666666666668 101.26 129.06 C 100.13333333333333 127.82666666666667 99.11666666666666 126.45666666666666 98.21 124.95 C 98.03666666666666 124.66333333333333 98.09333333333333 124.43333333333334 98.38 124.26 C 100.17999999999999 123.17333333333333 101.72666666666666 121.49 103.02 119.21 C 103.2 118.89666666666666 103.11 118.75666666666666 102.75 118.79 L 102.04 118.85 C 101.95176189666849 118.86268229465335 101.87981018425876 118.91191241376158 101.85 118.98000000000002 C 100.77 121.11333333333334 99.39666666666668 122.69666666666667 97.73 123.73 C 97.28085267592431 124.00687128165652 96.69925022877527 123.91772053921935 96.36 123.52000000000001 L 87.4 113.09 C 87.02 112.65 87.08333333333333 112.28666666666668 87.59 112 C 88.20333333333333 111.65333333333334 88.64333333333333 111.18666666666667 88.91 110.6 C 89.14333333333333 110.08666666666666 89.01 109.95666666666666 88.51 110.21 C 87.94333333333333 110.49666666666667 87.47333333333333 110.90333333333334 87.1 111.43 C 86.6512699322967 112.04400471339656 85.73359416253322 112.03375135281301 85.31 111.41 L 82.83 107.82 C 82.74333333333334 107.69333333333333 82.64 107.67999999999999 82.52 107.78 L 82.27 108.01 C 82.1002189941771 108.1645142710849 82.07034794066381 108.4205518714344 82.2 108.61 L 84.73 112.14 C 84.93 112.42 84.93666666666667 112.70666666666666 84.75 113 C 83.58 114.8 81.28 118.25 78.8 117.9 C 78.57383441742232 117.86463660166979 78.36570400561631 118.03576604913724 78.35 118.26999999999998 C 78.25 119.43 77.69666666666667 120.44666666666667 76.69 121.32 C 74.29 123.39999999999999 72.08333333333333 125.50333333333333 70.07 127.63 C 69.45666666666666 128.27 68.82333333333334 128.29666666666668 68.17 127.71 C 67.05666666666667 126.71 66.24333333333334 125.59333333333333 65.73 124.36 C 65.65 124.15333333333334 65.51333333333334 124.10333333333332 65.32 124.21 L 65.01 124.39 C 64.83256432748064 124.4914646134797 64.78098638235393 124.72122091153187 64.9 124.88 L 67.72 128.58 C 68.01874844841146 128.98057518391033 67.82857982002766 129.55622076208522 67.35 129.7 C 66.64999999999999 129.9 66.18666666666667 130.28333333333333 65.96 130.85 C 65.64 131.66333333333333 65.79666666666667 131.76999999999998 66.43 131.17 C 67.07666666666667 130.56333333333333 67.72 130.18 68.36 130.02 C 68.77333333333334 129.91333333333336 69.12 130.02 69.4 130.34 L 78.89 141.13 C 79.27180959753402 141.57181400954263 79.27180959718741 142.22474077367877 78.89000000000001 142.66000000000003 L 76 145.98 C 75.89356891791118 146.1046824157715 75.90692807802799 146.29171065583665 76.03 146.4 L 76.23 146.57 C 76.29666666666667 146.63 76.36333333333333 146.63 76.43 146.57 C 77.65 145.50333333333333 78.71000000000001 144.32333333333332 79.61 143.03 C 79.83374532889366 142.7138321837426 80.29397722126397 142.68935176414263 80.55 142.98 L 93.21 157.22 C 93.5274749623563 157.57212307964716 93.4183868318676 158.13243938248345 92.99 158.35 C 91.25 159.22333333333333 90.06 160.4 89.42 161.88 C 89.11333333333333 162.58 89.27 162.70666666666668 89.89 162.26 C 90.67 161.69333333333333 91.84333333333333 160.57333333333332 93.41 158.9 C 93.72273015930979 158.56183564413334 94.2572698406902 158.56183564413334 94.57 158.9 L 106.27 171.46 C 106.58726406701714 171.79810547396264 106.57383659484341 172.3262532074479 106.24000000000002 172.64000000000001 L 103.28 175.46 C 102.92666666666666 175.79333333333335 102.93333333333334 176.12333333333333 103.3 176.45 L 103.57 176.69 C 103.59666666666666 176.71666666666667 103.62333333333333 176.71666666666667 103.65 176.69 C 104.85000000000001 175.57666666666668 105.98666666666666 174.51666666666668 107.06 173.51 C 107.33333333333333 173.25 107.60333333333334 173.25333333333333 107.87 173.52 Z"/>
  <path fill="#9c6b66" d="M 140.92 152.66 C 141.04 152.79333333333335 141.13666666666666 152.94 141.21 153.1 C 141.27 153.22666666666666 141.29333333333335 153.35999999999999 141.28 153.5 C 141.26666666666665 153.64000000000001 141.21 153.75333333333333 141.11 153.84 C 140.77 154.16 140.81666666666666 154.41 141.25 154.59 C 141.52333333333334 154.70333333333332 141.76666666666665 154.85 141.98 155.03 C 142.41333333333333 155.39666666666668 142.57999999999998 155.3 142.48 154.74 L 142.06 152.41 C 141.97333333333333 151.93 142.16 151.61333333333334 142.62 151.46 C 144.75333333333333 150.75333333333333 146.87333333333333 149.69 148.98 148.27 C 149.5949266241826 147.86215797865674 150.42867231082042 148.17735451811214 150.62 148.89 C 150.74666666666667 149.38333333333333 150.95333333333335 149.79 151.24 150.11 C 152.13333333333335 151.11666666666667 152.50333333333333 150.95000000000002 152.35 149.61 C 152.31 149.31 152.19666666666666 149.04 152.01 148.8 C 151.58950675597822 148.26793319125872 151.763736648022 147.48389867600974 152.37 147.18 L 161.62 142.59 C 161.96802955157222 142.41626997403156 162.19949058571342 142.07477008697964 162.22999999999996 141.69 L 162.28 141.1 C 162.3045211605655 140.86262506275372 162.0628809785715 140.68772079201122 161.84504767241177 140.78517231265434 C 161.82936993807468 140.79218601996257 161.81430219379573 140.80049049439882 161.8 140.81 C 158.58666666666667 142.88333333333333 155.30666666666667 144.67 151.96 146.17 C 151.3857953698779 146.42992713649502 150.71147015959693 146.15010511093217 150.49 145.56 L 145.87 133.45 C 145.75256351927277 133.13832166074724 145.8642304557287 132.7867776020227 146.14 132.6 C 148.28666666666666 131.17333333333335 150.57333333333335 130.26666666666668 153 129.88 C 154.54666666666665 129.63333333333333 156.96666666666667 128.76 160.26 127.26 C 160.46666666666667 127.16666666666667 160.56666666666666 127 160.56 126.76 C 160.56006457406514 126.44362641262067 160.26998154802482 126.20672527483093 159.96 126.27 C 158.46 126.57 156.91333333333333 127.19666666666667 155.32 128.15 C 154.74120136539125 128.48859959632594 154.01411372847406 128.0654108844132 154.01124225335377 127.38826031867139 C 154.0110602269652 127.3453348999166 154.01398729646667 127.30246692497172 154.02 127.26000000000003 C 154.08666666666667 126.81333333333333 154.03 126.38666666666667 153.85 125.98 C 152.46 122.86 152.04 119.8 150.65 116.62 C 149.95666666666668 115.03333333333333 149.31333333333333 113.49 148.72 111.99 C 148.59587456401746 111.673118539423 148.74526007892973 111.31283582199526 149.06 111.17000000000002 L 156.72 107.77 C 157.08666666666667 107.61 157.13 107.38333333333334 156.85 107.09 L 156.68 106.91 C 156.44015998806324 106.65931488909021 156.06856763389987 106.59065108374358 155.76 106.73999999999998 L 149.51 109.78 C 148.71501220367307 110.16950436338749 147.76013161922975 109.75619784098255 147.5 108.91 C 146.06 104.16333333333334 143.98333333333335 98.88666666666667 141.27 93.08 C 141.0475666923786 92.5964310704229 141.25178707432812 92.02372608693105 141.73 91.79 L 143.29 91.02 C 143.66333333333333 90.83333333333333 143.68666666666667 90.61 143.36 90.35 L 142.99 90.05 C 142.8146402562499 89.90959984 142.5653597437501 89.90959984 142.39 90.05 C 141.27666666666667 90.95666666666666 140.5 90.73666666666666 140.06 89.39 C 139.14000000000001 86.56333333333333 138.04 83.84 136.76 81.22 C 135.57 78.81 135.25 76.16 134.14 73.68 C 133.8628033102075 73.05558644011036 134.18255246680104 72.32804125839061 134.83 72.11 L 139.78 70.45 C 140.1390059468406 70.32317469072593 140.37930150516988 69.98676090864923 140.37999999999997 69.60999999999999 L 140.38 69.35 C 140.37962647166728 69.03650497561642 140.0547064266368 68.82876920914521 139.77 68.96 L 133.75 71.7 C 133.39666666666668 71.86 133.13 71.76666666666667 132.95 71.42 C 131.21666666666667 68.02 129.88666666666666 64.63333333333333 128.96 61.26 C 128.67 60.2 127.92 59.51 127.56 58.49 C 127.44293719187203 58.16846617506992 127.56834684935879 57.80895849055587 127.86 57.63 L 129.91 56.36 C 130.14364625727606 56.211317982796494 130.17786814676987 55.88376561168759 129.98 55.69 L 129.77 55.49 C 129.68333333333334 55.403333333333336 129.58666666666664 55.39 129.48 55.45 L 127.72 56.46 C 127.32000000000001 56.68 127.01333333333334 56.589999999999996 126.8 56.19 L 124.6 52.14 C 124.56 52.07333333333333 124.52666666666667 52.04333333333333 124.5 52.05 L 124.27 52.12 C 124.02654779636516 52.20224887970901 123.89291805169341 52.46059975585745 123.96999999999998 52.699999999999996 C 124.41666666666667 54.1 125.06333333333333 55.4 125.91 56.6 C 126.00936594512902 56.74149301890458 125.97836938957455 56.93632851173597 125.84 57.04 C 123.67999999999999 58.626666666666665 121.26666666666667 59.89333333333334 118.6 60.84 C 118.45320622134378 60.8922813411827 118.29243500784311 60.82710382076612 118.23 60.690000000000005 L 117.94 60.09 C 117.67333333333333 59.52333333333333 117.42333333333333 59.53 117.19 60.11 C 117.08333333333333 60.376666666666665 117.04666666666667 60.65333333333333 117.08 60.94 C 117.13253743294345 61.35460772836776 116.87940270603181 61.746966554559194 116.48 61.87 C 113.04 62.92 110.04 64.93 106.46 66.16 C 105.79213369384593 66.3890860449612 105.05254109971816 66.12878250568352 104.67000000000002 65.53000000000002 C 103.93 64.36333333333333 103.44 63.083333333333336 103.2 61.69 C 103.18666666666667 61.61666666666667 103.14666666666668 61.589999999999996 103.08 61.61 L 102.76 61.71 C 102.63333333333333 61.75 102.57 61.836666666666666 102.57 61.97 C 102.57 63.596666666666664 103.12666666666667 64.92999999999999 104.24 65.97 C 104.60609352066874 66.3095314847787 104.49363492428664 66.91466583689623 104.03 67.1 L 101.38 68.14 C 100.53333333333333 68.47333333333333 100.55666666666667 68.73666666666666 101.45 68.93 C 102.27000000000001 69.11 103.02333333333334 68.86666666666667 103.71 68.2 C 104.1640530135919 67.75806744878382 104.92138274294072 67.935314831531 105.12 68.53000000000003 C 105.60000000000001 69.95666666666666 106.08333333333333 71.43666666666667 106.57 72.97 C 107.6 76.24 109.3 79.15 110.34 82.43 C 110.51982413892424 83.0113038941889 110.1374862244237 83.61348611005094 109.54000000000002 83.69 C 107.98 83.89666666666666 106.91 84.33 106.33 84.99 C 105.19666666666666 86.28999999999999 105.40666666666667 86.56666666666666 106.96 85.82 C 108.14 85.24666666666666 109.29 84.70333333333333 110.41 84.19 C 111.2621383090257 83.79447064668972 112.2316446140862 84.4444190073404 112.20000000000002 85.38999999999999 C 112.15 86.69 112.41 87.85 113.01 89.01 C 115.12333333333333 93.10333333333334 116.88000000000001 97.36666666666667 118.28 101.8 C 118.40738453443078 102.2047555444588 118.2089658587831 102.6404139419545 117.82 102.81 L 113.22 104.8 C 112.86666666666666 104.95333333333333 112.73 105.21666666666667 112.81 105.59 L 112.86 105.85 C 112.89345853211465 106.00786302745504 113.05700829079125 106.10132003236481 113.21 106.05 C 115.10333333333332 105.44333333333333 116.80666666666666 104.58333333333333 118.32 103.47 C 118.84666666666666 103.08333333333333 119.23333333333333 103.19 119.48 103.79 L 126.06 119.62 C 126.19333333333334 119.94 126.11 120.19 125.81 120.37 L 121.5 122.92 C 121.27522010032347 123.03835256665886 121.26285307470494 123.35565430003656 121.47773935387286 123.49114312008713 C 121.54092438726539 123.5309821719445 121.6157561317727 123.54820649306086 121.69 123.54 C 122.88333333333334 123.48 123.91333333333334 123 124.78 122.1 C 125.60466516116819 121.24625592690725 127.03286274756944 121.50879224811351 127.5 122.6 L 133.25 135.99 C 133.47841061582616 136.5203712709481 133.11591475175098 137.1177236096058 132.54 137.16 C 130.70666666666665 137.29333333333335 129.20333333333332 137.97333333333333 128.03 139.2 C 127.71 139.54 127.78 139.76333333333335 128.24 139.87 L 128.58 139.94 C 129.02 140.04 129.41666666666669 139.94666666666666 129.77 139.66 C 130.99666666666667 138.67333333333335 132.33 138.07333333333335 133.77 137.86 C 134.19 137.8 134.46666666666667 137.97 134.6 138.37 C 136.02666666666667 142.59666666666666 137.94333333333333 146.79666666666668 140.35 150.97 C 140.63730738083746 151.47078718259323 140.2747564664905 152.09479853509845 139.6974083540564 152.09322043430183 C 139.67490196403088 152.09315891621375 139.65240974919752 152.0920843505847 139.63 152.09 C 139.29 152.05666666666667 139.01333333333335 152.18333333333334 138.8 152.47 C 138.6 152.75666666666666 138.67 152.93 139.01 152.99 C 139.47666666666666 153.07666666666668 139.86 152.96666666666667 140.16 152.66 C 140.41333333333333 152.40666666666667 140.66666666666666 152.40666666666667 140.92 152.66 Z"/>
  <path fill="#633b39" d="M 140.16 152.66 C 139.86 152.96666666666667 139.47666666666666 153.07666666666668 139.01 152.99 C 138.67 152.93 138.6 152.75666666666666 138.8 152.47 C 139.01333333333335 152.18333333333334 139.29 152.05666666666667 139.63 152.09 C 140.20486902095993 152.1434690758653 140.62204413168163 151.55457327829055 140.3809151992179 151.0299875643579 C 140.3715154251759 151.00953797696806 140.3611999187857 150.9895218645536 140.35 150.97 C 137.94333333333333 146.79666666666668 136.02666666666667 142.59666666666666 134.6 138.37 C 134.46666666666667 137.97 134.19 137.8 133.77 137.86 C 132.33 138.07333333333335 130.99666666666667 138.67333333333335 129.77 139.66 C 129.41666666666669 139.94666666666666 129.02 140.04 128.58 139.94 L 128.24 139.87 C 127.78 139.76333333333335 127.71 139.54 128.03 139.2 C 129.20333333333332 137.97333333333333 130.70666666666665 137.29333333333335 132.54 137.16 C 133.11591475175098 137.1177236096058 133.47841061582616 136.5203712709481 133.25 135.99 L 127.5 122.6 C 127.03286274756944 121.50879224811351 125.60466516116819 121.24625592690725 124.78 122.1 C 123.91333333333334 123 122.88333333333334 123.48 121.69 123.54 C 121.43750367709256 123.56790950109831 121.24948055352665 123.31201765184566 121.35155837802229 123.07939467129651 C 121.38157328066926 123.01099434880602 121.43390585233256 122.9548003181282 121.5 122.92 L 125.81 120.37 C 126.11 120.19 126.19333333333334 119.94 126.06 119.62 L 119.48 103.79 C 119.23333333333333 103.19 118.84666666666666 103.08333333333333 118.32 103.47 C 116.80666666666666 104.58333333333333 115.10333333333332 105.44333333333333 113.21 106.05 C 113.05700829079125 106.10132003236481 112.89345853211465 106.00786302745504 112.86 105.85 L 112.81 105.59 C 112.73 105.21666666666667 112.86666666666666 104.95333333333333 113.22 104.8 L 117.82 102.81 C 118.2089658587831 102.6404139419545 118.40738453443078 102.2047555444588 118.28 101.8 C 116.88000000000001 97.36666666666667 115.12333333333333 93.10333333333334 113.01 89.01 C 112.41 87.85 112.15 86.69 112.2 85.39 C 112.2316446140862 84.4444190073404 111.2621383090257 83.79447064668972 110.41 84.19 C 109.29 84.70333333333333 108.14 85.24666666666666 106.96 85.82 C 105.40666666666667 86.56666666666666 105.19666666666666 86.28999999999999 106.33 84.99 C 106.91 84.33 107.98 83.89666666666666 109.54 83.69 C 110.1374862244237 83.61348611005094 110.51982413892424 83.0113038941889 110.34 82.42999999999999 C 109.3 79.15 107.6 76.24 106.57 72.97 C 106.08333333333333 71.43666666666667 105.60000000000001 69.95666666666666 105.12 68.53 C 104.92138274294072 67.935314831531 104.1640530135919 67.75806744878382 103.71000000000001 68.20000000000002 C 103.02333333333334 68.86666666666667 102.27000000000001 69.11 101.45 68.93 C 100.55666666666667 68.73666666666666 100.53333333333333 68.47333333333333 101.38 68.14 L 104.03 67.1 C 104.49363492428664 66.91466583689623 104.60609352066874 66.3095314847787 104.24 65.97 C 103.12666666666667 64.92999999999999 102.57 63.596666666666664 102.57 61.97 C 102.57 61.836666666666666 102.63333333333333 61.75 102.76 61.71 L 103.08 61.61 C 103.14666666666668 61.589999999999996 103.18666666666667 61.61666666666667 103.2 61.69 C 103.44 63.083333333333336 103.93 64.36333333333333 104.67 65.53 C 105.05254109971816 66.12878250568352 105.79213369384593 66.3890860449612 106.46000000000001 66.16 C 110.04 64.93 113.04 62.92 116.48 61.87 C 116.87940270603181 61.746966554559194 117.13253743294345 61.35460772836776 117.08 60.94 C 117.04666666666667 60.65333333333333 117.08333333333333 60.376666666666665 117.19 60.11 C 117.42333333333333 59.53 117.67333333333333 59.52333333333333 117.94 60.09 L 118.23 60.69 C 118.29243500784311 60.82710382076612 118.45320622134378 60.8922813411827 118.6 60.84 C 121.26666666666667 59.89333333333334 123.67999999999999 58.626666666666665 125.84 57.04 C 125.97836938957455 56.93632851173597 126.00936594512902 56.74149301890458 125.91 56.6 C 125.06333333333333 55.4 124.41666666666667 54.1 123.97 52.7 C 123.89291805169341 52.46059975585745 124.02654779636516 52.20224887970901 124.26999999999998 52.11999999999999 L 124.5 52.05 C 124.52666666666667 52.04333333333333 124.56 52.07333333333333 124.6 52.14 L 126.8 56.19 C 127.01333333333334 56.589999999999996 127.32000000000001 56.68 127.72 56.46 L 129.48 55.45 C 129.58666666666664 55.39 129.68333333333334 55.403333333333336 129.77 55.49 L 129.98 55.69 C 130.17786814676987 55.88376561168759 130.14364625727606 56.211317982796494 129.91 56.36 L 127.86 57.63 C 127.56834684935879 57.80895849055587 127.44293719187203 58.16846617506992 127.56 58.49 C 127.92 59.51 128.67 60.2 128.96 61.26 C 129.88666666666666 64.63333333333333 131.21666666666667 68.02 132.95 71.42 C 133.13 71.76666666666667 133.39666666666668 71.86 133.75 71.7 L 139.77 68.96 C 140.0547064266368 68.82876920914521 140.37962647166728 69.03650497561642 140.38 69.35 L 140.38 69.61 C 140.37930150516988 69.98676090864923 140.1390059468406 70.32317469072593 139.77999999999997 70.44999999999999 L 134.83 72.11 C 134.18255246680104 72.32804125839061 133.8628033102075 73.05558644011036 134.14 73.68 C 135.25 76.16 135.57 78.81 136.76 81.22 C 138.04 83.84 139.14000000000001 86.56333333333333 140.06 89.39 C 140.5 90.73666666666666 141.27666666666667 90.95666666666666 142.39 90.05 C 142.5653597437501 89.90959984 142.8146402562499 89.90959984 142.99 90.05 L 143.36 90.35 C 143.68666666666667 90.61 143.66333333333333 90.83333333333333 143.29 91.02 L 141.73 91.79 C 141.25178707432812 92.02372608693105 141.0475666923786 92.5964310704229 141.27 93.08 C 143.98333333333335 98.88666666666667 146.06 104.16333333333334 147.5 108.91 C 147.76013161922975 109.75619784098255 148.71501220367307 110.16950436338749 149.51 109.78 L 155.76 106.74 C 156.06856763389987 106.59065108374358 156.44015998806324 106.65931488909021 156.68 106.91 L 156.85 107.09 C 157.13 107.38333333333334 157.08666666666667 107.61 156.72 107.77 L 149.06 111.17 C 148.74526007892973 111.31283582199526 148.59587456401746 111.673118539423 148.72000000000003 111.99 C 149.31333333333333 113.49 149.95666666666668 115.03333333333333 150.65 116.62 C 152.04 119.8 152.46 122.86 153.85 125.98 C 154.03 126.38666666666667 154.08666666666667 126.81333333333333 154.02 127.26 C 153.925149309725 127.9299178040442 154.58386247129687 128.45546963873167 155.2056836908877 128.20599330202558 C 155.24510171339546 128.19017868595006 155.2833092328025 128.17146425063763 155.32000000000002 128.15 C 156.91333333333333 127.19666666666667 158.46 126.57 159.96 126.27 C 160.26998154802482 126.20672527483093 160.56006457406514 126.44362641262067 160.56 126.76 C 160.56666666666666 127 160.46666666666667 127.16666666666667 160.26 127.26 C 156.96666666666667 128.76 154.54666666666665 129.63333333333333 153 129.88 C 150.57333333333335 130.26666666666668 148.28666666666666 131.17333333333335 146.14 132.6 C 145.8642304557287 132.7867776020227 145.75256351927277 133.13832166074724 145.87 133.45 L 150.49 145.56 C 150.71147015959693 146.15010511093217 151.3857953698779 146.42992713649502 151.96 146.17 C 155.30666666666667 144.67 158.58666666666667 142.88333333333333 161.8 140.81 C 161.99872094352887 140.67787076496418 162.26595562588682 140.8104117247682 162.28102242824602 141.0485737276461 C 162.28210680477622 141.06571454360366 162.28176481846492 141.0829158301362 162.28 141.1 L 162.23 141.69 C 162.19949058571342 142.07477008697964 161.96802955157222 142.41626997403156 161.62 142.59 L 152.37 147.18 C 151.763736648022 147.48389867600974 151.58950675597822 148.26793319125872 152.01 148.8 C 152.19666666666666 149.04 152.31 149.31 152.35 149.61 C 152.50333333333333 150.95000000000002 152.13333333333335 151.11666666666667 151.24 150.11 C 150.95333333333335 149.79 150.74666666666667 149.38333333333333 150.62 148.89 C 150.42867231082042 148.17735451811214 149.5949266241826 147.86215797865674 148.98 148.27 C 146.87333333333333 149.69 144.75333333333333 150.75333333333333 142.62 151.46 C 142.16 151.61333333333334 141.97333333333333 151.93 142.06 152.41 L 142.48 154.74 C 142.57999999999998 155.3 142.41333333333333 155.39666666666668 141.98 155.03 C 141.76666666666665 154.85 141.52333333333334 154.70333333333332 141.25 154.59 C 140.81666666666666 154.41 140.77 154.16 141.11 153.84 C 141.21 153.75333333333333 141.26666666666665 153.64000000000001 141.28 153.5 C 141.29333333333335 153.35999999999999 141.27 153.22666666666666 141.21 153.1 C 141.13666666666666 152.94 141.04 152.79333333333335 140.92 152.66 C 140.66666666666666 152.40666666666667 140.41333333333333 152.40666666666667 140.16 152.66 Z"/>
  <path fill="#633b39" d="M 141.03 150.58 C 141.10725965040615 150.75127239099402 141.30879450682036 150.82740778128073 141.48 150.75 L 149.44 146.97 C 149.5952872878909 146.89365723642402 149.66846628487502 146.71286206698875 149.61 146.55 L 144.87 133.56 C 144.80450284526577 133.38254476670784 144.60676577077848 133.29266427855777 144.43 133.36 L 135.2 136.71 C 135.02094579461095 136.77942308644606 134.93488150887362 136.9832595527614 135.01 137.16 L 141.03 150.58 Z"/>
  <path fill="#633b39" d="M 137.65 116.48 L 128.56 119.97 C 128.1865670002292 120.11014938423246 127.99823113274043 120.52717880492854 128.14 120.9 L 132.78 132.97 C 133.44131060844347 134.69423472928761 134.88605415470266 135.74536321567504 136.01 135.32 L 142.38 132.87 C 143.50207615325976 132.43572431841088 143.8735534626437 130.68575124709906 143.21 128.96 L 138.58 116.89 C 138.43583743031763 116.52051319485314 138.02001269704203 116.33719261327663 137.65 116.48 Z"/>
  <path fill="#633b39" d="M 140.22 117.05 C 141.25 121.37 143.12 125.87 144.67 130.28 C 144.93672306402982 131.03378428757455 145.78170180587676 131.4057586226893 146.51 131.08999999999997 L 150.38 129.42 C 150.70000000000002 129.28 151.03666666666666 129.19333333333333 151.39 129.16 L 152.95 129.01 C 153.47666666666666 128.95666666666668 153.65666666666667 128.67666666666668 153.49 128.17 C 151.84333333333333 123.03666666666666 149.9466666666667 118.02 147.8 113.12 C 147.49333333333334 112.41333333333334 146.98 112.2 146.26 112.48 L 141.66 114.28 C 140.553804212805 114.71675792395199 139.93895833830683 115.89948227312532 140.22000000000003 117.05000000000001 L 140.22 117.05 Z"/>
  <path fill="#633b39" d="M 126.89 118.79 C 127.08226346061355 119.24402959809888 127.61000065682077 119.45151601766403 128.06 119.25 L 137.1 115.22 C 137.51501664034706 115.03292637299444 137.71884915315545 114.5602084184333 137.57 114.13 L 132.13 98.24 C 131.95983852013055 97.74282516051652 131.39470572374393 97.50462869283882 130.92 97.73 L 120.89 102.46 C 120.4604013799437 102.65963003903546 120.26592069444776 103.16351181447033 120.45 103.6 L 126.89 118.79 Z"/>
  <path fill="#633b39" d="M 139.81 113.38 L 146.47 111.13 C 146.97666666666666 110.96333333333332 147.09333333333333 110.64666666666666 146.82 110.18 C 146.1 108.94 146.4 107.69 145.73 106.28 C 143.68333333333334 102.02 141.91666666666666 97.78333333333333 140.43 93.57 C 140.31666666666666 93.23666666666666 140.10333333333332 93.14333333333333 139.79 93.29 L 133.15 96.35 C 132.81 96.50333333333333 132.70333333333332 96.75666666666666 132.83 97.11 C 133.82 99.99 135.17 102.68 135.91 105.67 C 136.51 108.12333333333333 137.50333333333333 110.57333333333332 138.89 113.02 C 139.06767145743297 113.34413856100137 139.45382605824759 113.49524253451614 139.81 113.37999999999998 L 139.81 113.38 Z"/>
  <path fill="#633b39" d="M 130.54 96.33 C 131.01999999999998 96.03666666666666 131.16 95.63 130.96 95.11 L 124.59 78.4 C 124.3759095488834 77.84034651877515 123.72445752892013 77.58907216812037 123.19 77.86 L 113.07 83.06 C 112.74333333333333 83.22666666666667 112.62333333333333 83.49 112.71 83.85 C 113.16 85.63 112.97 86.96 113.94 88.69 C 116.08666666666666 92.51666666666667 117.67666666666666 96.39333333333333 118.71 100.32 C 118.99666666666667 101.42 119.67 101.75333333333333 120.73 101.32 C 124.14333333333333 99.90666666666667 127.41333333333333 98.24333333333334 130.54 96.33 Z"/>
  <path fill="#633b39" d="M 132.59 95 C 134.36333333333334 94.76666666666667 135.87333333333333 94.21000000000001 137.12 93.33 C 137.75333333333333 92.88333333333333 138.41666666666666 92.52 139.11 92.24 C 139.83666666666667 91.95333333333333 140.02666666666667 91.46000000000001 139.68 90.76 C 138.59333333333333 88.56 137.57333333333335 86.27666666666666 136.62 83.91 C 135.56 81.27 135.13 78.59 133.6 76.14 C 133.4113677949314 75.84049367513153 133.32050300183784 75.49101370285578 133.34 75.14 L 133.37 74.5 C 133.39666666666668 74.02 133.17333333333332 73.80666666666667 132.7 73.86 C 131.57333333333332 73.97333333333333 130.51 74.38333333333334 129.51 75.09 C 128.45666666666668 75.82333333333334 127.36 76.36666666666666 126.22 76.72 C 125.41333333333334 76.96666666666667 125.19 77.47333333333333 125.55 78.24 C 127.99000000000001 83.47333333333333 129.89666666666668 88.76333333333334 131.27 94.11 C 131.45 94.79666666666667 131.89 95.09333333333333 132.59 95 Z"/>
  <path fill="#633b39" d="M 123.35 74.74 C 121.66333333333333 70.38666666666666 119.86999999999999 66.45666666666666 117.97 62.95 C 117.76333333333334 62.57666666666667 117.46333333333332 62.47 117.07 62.63 C 113.4 64.11 110.4 65.96 106.32 66.83 C 105.86378139128934 66.92734289322209 105.5872775037705 67.39279110385712 105.72 67.84 C 107.12666666666667 72.42666666666666 109.08 77.08333333333333 111.58 81.81 C 111.75999999999999 82.15666666666667 112.02333333333333 82.24666666666667 112.37 82.08 L 122.36 77.26 C 123.46666666666667 76.72666666666666 123.79666666666667 75.88666666666666 123.35 74.74 Z"/>
  <path fill="#633b39" d="M 123.22 71.79 C 123.66 72.86333333333334 123.97333333333333 73.99000000000001 124.16 75.17 C 124.32000000000001 76.19 124.84 76.42666666666666 125.72 75.88 C 127.61999999999999 74.69333333333333 129.51666666666665 73.7 131.41 72.9 C 131.94333333333333 72.67333333333333 132.08333333333334 72.3 131.83 71.78 C 130.54333333333335 69.14666666666666 129.51333333333335 66.44 128.74 63.66 C 128.32 62.16 127.57 60.81 126.91 59.4 C 126.58333333333333 58.7 126.06333333333333 58.50666666666667 125.35 58.82 L 119.67 61.34 C 118.97666666666666 61.64666666666667 118.8 62.13666666666666 119.14 62.81 C 120.6 65.69666666666667 121.96 68.69 123.22 71.79 Z"/>
  <path fill="#6c6876" d=" M 382.18 57.88 Q 382.76 63.45 381.93 65.47 Q 367.32 100.85 350.69 135.33 Q 350.53 135.66 346.34 144.76 Q 344.19 149.41 341.66 154.03 Q 334.20 152.10 323.55 150.40 Q 323.01 150.31 323.04 149.77 Q 324.65 143.37 327.04 137.24 C 329.58 130.71 331.41 125.11 333.86 119.37 C 335.96 114.46 337.50 109.44 339.62 104.47 Q 341.51 100.04 342.97 95.48 C 344.27 91.42 346.08 87.63 347.31 83.38 Q 349.56 75.56 352.97 66.95 C 354.69 62.58 357.37 58.87 360.72 55.97 Q 362.71 54.24 366.37 52.98 Q 372.19 50.98 376.99 53.75 Q 380.31 55.66 382.18 57.88 Z"/>
  <path fill="#43404b" d=" M 382.18 57.88 Q 387.71 62.54 385.38 68.63 C 383.54 73.44 381.79 78.38 379.74 83.08 Q 361.54 124.66 352.56 142.82 Q 348.38 151.29 346.35 155.81 Q 344.50 156.02 341.66 154.03 Q 344.19 149.41 346.34 144.76 Q 350.53 135.66 350.69 135.33 Q 367.32 100.85 381.93 65.47 Q 382.76 63.45 382.18 57.88 Z"/>
  <path fill="#9c6b66" d=" M 123.22 71.79 Q 121.33 67.14 119.14 62.81 Q 118.63 61.80 119.67 61.34 L 125.35 58.82 Q 126.42 58.35 126.91 59.40 C 127.57 60.81 128.32 62.16 128.74 63.66 Q 129.90 67.83 131.83 71.78 Q 132.21 72.56 131.41 72.90 Q 128.57 74.10 125.72 75.88 Q 124.40 76.70 124.16 75.17 Q 123.88 73.40 123.22 71.79 Z"/>
  <path fill="#633b39" d=" M 114.61 126.08 C 112.95 122.56 112.05 118.84 110.44 115.46 Q 108.45 111.25 107.00 107.16 C 105.05 101.68 102.54 96.76 100.60 91.43 C 98.80 86.50 96.40 81.85 94.67 76.89 C 93.55 73.64 92.10 70.64 90.68 67.52 Q 89.79 65.54 90.93 62.06 Q 91.28 62.30 91.43 61.98 Q 91.55 61.69 91.86 61.71 Q 92.41 61.75 92.61 62.28 Q 95.18 69.03 97.77 74.81 Q 99.75 79.21 101.12 83.16 C 102.45 87.01 104.39 90.55 105.78 94.34 Q 107.63 99.37 109.76 104.12 C 111.85 108.76 113.27 113.51 115.46 118.20 Q 117.08 121.68 118.27 125.45 Q 119.38 128.98 121.43 132.64 A 0.84 0.81 -49.0 0 1 121.47 133.37 L 121.14 134.09 A 0.21 0.21 0.0 0 1 120.76 134.09 Q 119.68 131.60 117.77 129.95 C 116.44 128.81 115.64 127.42 114.61 126.08 Z"/>
  <path fill="#9c6b66" d=" M 123.35 74.74 Q 124.02 76.46 122.36 77.26 L 112.37 82.08 Q 111.85 82.33 111.58 81.81 Q 107.83 74.72 105.72 67.84 A 0.80 0.80 0.0 0 1 106.32 66.83 C 110.40 65.96 113.40 64.11 117.07 62.63 Q 117.66 62.39 117.97 62.95 Q 120.82 68.21 123.35 74.74 Z"/>
  <path fill="#f69ab1" d="M 291.78 86.14 C 291.52 86.08 291.3066666666667 86.09333333333333 291.14 86.18 C 290.8863002930841 86.31385747417642 290.8449492663619 86.66017232382029 291.06 86.85 C 292.87 88.48 294.8 89.83 296.19 91.91 C 300.23 97.97 302.82666666666665 103.87333333333333 303.98 109.62 C 306.20666666666665 120.76 303.12 130.01333333333332 294.72 137.38 C 286.31 144.75 274.99 146.6 265.57 152.18 C 262.4766666666667 154.00666666666666 259.47333333333336 156.03666666666666 256.56 158.27 C 250.36666666666667 163.00333333333333 243.52 164.12666666666667 236.02 161.64 C 232.98000000000002 160.64 230.04666666666668 159.69333333333333 227.22 158.8 C 225.2 158.16 222.28666666666666 157.12 218.48 155.68 C 215.06 154.38 211.84333333333333 153.31 208.83 152.47 C 207.21 152.03 206.23 150.91 204.49 150.88 C 204.17 150.87333333333333 203.87333333333333 150.78333333333333 203.6 150.61 C 203.34 150.45000000000002 203.04666666666668 150.33666666666667 202.72 150.27 C 199.06666666666666 149.53 195.06666666666666 148.8 190.72 148.08 C 181.52666666666667 146.56 172.45333333333335 146.61 163.5 148.23 C 163.46 140.75 164.76 133.31333333333333 167.4 125.92 C 167.59 125.38 167.5 124.78 167.24 124.31 C 167.50666666666666 124.30333333333333 167.73666666666665 124.24 167.93 124.12 C 168.09 124.02 168.20999999999998 123.83333333333333 168.29 123.56 C 169.05666666666667 121.02666666666667 170.05333333333334 118.57333333333334 171.28 116.2 C 179.72666666666666 99.9 192.04666666666665 87.79333333333334 208.24 79.88 C 213.54 77.29 219.32 75.62 225.02 74.17 C 234.18 71.84333333333333 243.50666666666666 71.36333333333334 253 72.73 C 267.46 74.8 279.72 78.68 291.78 86.14 Z"/>
  <path fill="#f69ab1" d="M 177.71 130.37 C 176.51 133.5 174.76 139.27 175.82 142.67 C 175.9307020280612 143.0277212577596 176.33342595410636 143.2003172257772 176.66000000000003 143.03000000000003 C 178.54 142.06 180.48 140.6 181.5 138.68 C 188.7 124.99 200.41 116.35 213.97 108.54 C 218.77666666666667 105.77333333333334 223.50333333333333 102.99 228.15 100.19 C 232.71 97.45 239.05 92.14 234.65 86.25 C 231.16 81.57 223.81 82.63 219.27 84.72 C 206.77 90.49 196.49 101.39 187.78 112.33 C 183.71333333333334 117.43666666666667 180.35666666666668 123.45 177.71 130.37 Z"/>
  <path fill="#9c6b66" d=" M 132.59 95.00 Q 131.54 95.14 131.27 94.11 Q 129.21 86.09 125.55 78.24 Q 125.01 77.09 126.22 76.72 Q 127.93 76.19 129.51 75.09 Q 131.01 74.03 132.70 73.86 Q 133.41 73.78 133.37 74.50 L 133.34 75.14 A 1.71 1.69 30.7 0 0 133.60 76.14 C 135.13 78.59 135.56 81.27 136.62 83.91 Q 138.05 87.46 139.68 90.76 Q 140.20 91.81 139.11 92.24 Q 138.07 92.66 137.12 93.33 Q 135.25 94.65 132.59 95.00 Z"/>
  <path fill="#9c6b66" d=" M 130.54 96.33 Q 125.85 99.20 120.73 101.32 Q 119.14 101.97 118.71 100.32 Q 117.16 94.43 113.94 88.69 C 112.97 86.96 113.16 85.63 112.71 83.85 Q 112.58 83.31 113.07 83.06 L 123.19 77.86 A 1.01 1.01 0.0 0 1 124.59 78.40 L 130.96 95.11 Q 131.26 95.89 130.54 96.33 Z"/>
  <path fill="#fcc9d2" d=" M 177.71 130.37 Q 181.68 119.99 187.78 112.33 C 196.49 101.39 206.77 90.49 219.27 84.72 C 223.81 82.63 231.16 81.57 234.65 86.25 C 239.05 92.14 232.71 97.45 228.15 100.19 Q 221.18 104.39 213.97 108.54 C 200.41 116.35 188.70 124.99 181.50 138.68 C 180.48 140.60 178.54 142.06 176.66 143.03 A 0.60 0.59 67.8 0 1 175.82 142.67 C 174.76 139.27 176.51 133.50 177.71 130.37 Z"/>
  <path fill="#f07b96" d=" M 291.78 86.14 Q 307.91 96.19 316.32 113.93 C 318.58 118.71 319.48 122.51 320.51 128.14 Q 322.44 138.67 321.46 149.62 C 310.41 149.01 302.89 149.02 293.21 151.11 Q 285.52 152.78 279.06 155.62 Q 259.39 164.25 246.20 182.02 Q 239.83 172.45 231.04 166.09 Q 220.94 158.62 209.00 154.47 Q 186.85 146.78 163.84 150.14 Q 164.66 149.49 163.50 148.23 Q 176.93 145.80 190.72 148.08 Q 197.24 149.16 202.72 150.27 Q 203.21 150.37 203.60 150.61 Q 204.01 150.87 204.49 150.88 C 206.23 150.91 207.21 152.03 208.83 152.47 Q 213.35 153.73 218.48 155.68 Q 224.19 157.84 227.22 158.80 Q 231.46 160.14 236.02 161.64 Q 247.27 165.37 256.56 158.27 Q 260.93 154.92 265.57 152.18 C 274.99 146.60 286.31 144.75 294.72 137.38 Q 307.32 126.33 303.98 109.62 Q 302.25 101.00 296.19 91.91 C 294.80 89.83 292.87 88.48 291.06 86.85 A 0.41 0.41 0.0 0 1 291.14 86.18 Q 291.39 86.05 291.78 86.14 Z"/>
  <path fill="#9c6b66" d=" M 139.81 113.38 A 0.78 0.77 -23.5 0 1 138.89 113.02 Q 136.81 109.35 135.91 105.67 C 135.17 102.68 133.82 99.99 132.83 97.11 Q 132.64 96.58 133.15 96.35 L 139.79 93.29 Q 140.26 93.07 140.43 93.57 Q 142.66 99.89 145.73 106.28 C 146.40 107.69 146.10 108.94 146.82 110.18 Q 147.23 110.88 146.47 111.13 L 139.81 113.38 Z"/>
  <path fill="#9c6b66" d=" M 126.89 118.79 L 120.45 103.60 A 0.88 0.88 0.0 0 1 120.89 102.46 L 130.92 97.73 A 0.88 0.88 0.0 0 1 132.13 98.24 L 137.57 114.13 A 0.88 0.88 0.0 0 1 137.10 115.22 L 128.06 119.25 A 0.88 0.88 0.0 0 1 126.89 118.79 Z"/>
  <path fill="#633b39" d="M 107.06 173.51 C 105.98666666666666 174.51666666666668 104.85000000000001 175.57666666666668 103.65 176.69 C 103.62333333333333 176.71666666666667 103.59666666666666 176.71666666666667 103.57 176.69 L 103.3 176.45 C 102.93333333333334 176.12333333333333 102.92666666666666 175.79333333333335 103.28 175.46 L 106.24 172.64 C 106.57383659484341 172.3262532074479 106.58726406701714 171.79810547396264 106.27 171.46 L 94.57 158.9 C 94.2572698406902 158.56183564413334 93.72273015930979 158.56183564413334 93.41 158.9 C 91.84333333333333 160.57333333333332 90.67 161.69333333333333 89.89 162.26 C 89.27 162.70666666666668 89.11333333333333 162.58 89.42 161.88 C 90.06 160.4 91.25 159.22333333333333 92.99 158.35 C 93.4183868318676 158.13243938248345 93.5274749623563 157.57212307964716 93.21000000000001 157.22 L 80.55 142.98 C 80.29397722126397 142.68935176414263 79.83374532889366 142.7138321837426 79.61 143.03 C 78.71000000000001 144.32333333333332 77.65 145.50333333333333 76.43 146.57 C 76.36333333333333 146.63 76.29666666666667 146.63 76.23 146.57 L 76.03 146.4 C 75.90692807802799 146.29171065583665 75.89356891791118 146.1046824157715 76 145.98 L 78.89 142.66 C 79.27180959718741 142.22474077367877 79.27180959753402 141.57181400954263 78.89000000000001 141.13 L 69.4 130.34 C 69.12 130.02 68.77333333333334 129.91333333333336 68.36 130.02 C 67.72 130.18 67.07666666666667 130.56333333333333 66.43 131.17 C 65.79666666666667 131.76999999999998 65.64 131.66333333333333 65.96 130.85 C 66.18666666666667 130.28333333333333 66.64999999999999 129.9 67.35 129.7 C 67.82857982002766 129.55622076208522 68.01874844841146 128.98057518391033 67.72 128.58 L 64.9 124.88 C 64.78098638235393 124.72122091153187 64.83256432748064 124.4914646134797 65.00999999999999 124.38999999999999 L 65.32 124.21 C 65.51333333333334 124.10333333333332 65.65 124.15333333333334 65.73 124.36 C 66.24333333333334 125.59333333333333 67.05666666666667 126.71 68.17 127.71 C 68.82333333333334 128.29666666666668 69.45666666666666 128.27 70.07 127.63 C 72.08333333333333 125.50333333333333 74.29 123.39999999999999 76.69 121.32 C 77.69666666666667 120.44666666666667 78.25 119.43 78.35 118.27 C 78.36570400561631 118.03576604913724 78.57383441742232 117.86463660166979 78.79999999999998 117.89999999999999 C 81.28 118.25 83.58 114.8 84.75 113 C 84.93666666666667 112.70666666666666 84.93 112.42 84.73 112.14 L 82.2 108.61 C 82.07034794066381 108.4205518714344 82.1002189941771 108.1645142710849 82.27 108.01 L 82.52 107.78 C 82.64 107.67999999999999 82.74333333333334 107.69333333333333 82.83 107.82 L 85.31 111.41 C 85.73359416253322 112.03375135281301 86.6512699322967 112.04400471339656 87.1 111.42999999999999 C 87.47333333333333 110.90333333333334 87.94333333333333 110.49666666666667 88.51 110.21 C 89.01 109.95666666666666 89.14333333333333 110.08666666666666 88.91 110.6 C 88.64333333333333 111.18666666666667 88.20333333333333 111.65333333333334 87.59 112 C 87.08333333333333 112.28666666666668 87.02 112.65 87.4 113.09 L 96.36 123.52 C 96.69925022877527 123.91772053921935 97.28085267592431 124.00687128165652 97.73 123.73000000000003 C 99.39666666666668 122.69666666666667 100.77 121.11333333333334 101.85 118.98 C 101.87981018425876 118.91191241376158 101.95176189666849 118.86268229465335 102.03999999999999 118.85 L 102.75 118.79 C 103.11 118.75666666666666 103.2 118.89666666666666 103.02 119.21 C 101.72666666666666 121.49 100.17999999999999 123.17333333333333 98.38 124.26 C 98.09333333333333 124.43333333333334 98.03666666666666 124.66333333333333 98.21 124.95 C 99.11666666666666 126.45666666666666 100.13333333333333 127.82666666666667 101.26 129.06 C 103.64 131.64666666666668 105.89333333333333 134.28 108.02 136.96 C 108.77333333333334 137.90666666666667 109.58 138.80333333333334 110.44 139.65 C 110.71333333333332 139.91 110.99 139.91666666666666 111.27 139.67 L 112.73 138.39 C 112.87 138.27 112.98 138.29 113.06 138.45 L 113.2 138.73 C 113.26 138.84333333333333 113.23333333333333 138.93333333333334 113.12 139 C 112.34666666666666 139.46666666666667 111.95333333333333 140.08666666666667 111.94 140.86 C 111.93333333333334 141.19333333333336 112.05666666666667 141.47 112.31 141.69 C 112.63000000000001 141.97 112.87333333333333 142.28666666666666 113.04 142.64 C 113.17333333333333 142.92 113.34333333333333 143.17666666666668 113.55 143.41 L 123.51 155.02 C 123.65056852905342 155.18085919547838 123.89272847716248 155.20287373622278 124.06 155.07 L 129.39 150.75 C 129.57331249064538 150.5994776029172 129.71148309801902 150.40603875292095 129.78999999999996 150.19 C 130.01666666666665 149.57 130.41333333333333 149.16333333333333 130.98 148.97 C 131.44768116629152 148.81507985081947 131.90768787617228 149.2245344711773 131.80801207777492 149.70701831664755 C 131.7786299882718 149.84924324746677 131.70174956852142 149.9772461749286 131.59 150.07 L 125.04 155.57 C 124.47853484290533 156.04156501233876 124.50309778465609 156.91109318257452 125.09 157.34000000000003 C 126.86333333333333 158.64666666666668 128.32666666666665 160.31666666666666 129.48 162.35 C 129.6 162.57 129.55666666666667 162.74666666666667 129.35 162.88 L 129.11 163.04 C 129.05 163.07999999999998 129 163.07 128.96 163.01 C 127.52 161.26333333333332 125.88 159.54 124.04 157.84 C 123.58 157.42000000000002 123.11999999999999 157.42333333333335 122.66 157.85 L 117.83 162.39 C 117.41666666666666 162.77666666666667 117.38666666666666 163.19 117.74 163.63 L 121.93 168.82 C 122.03666666666668 168.94666666666666 122.02666666666667 169.06333333333333 121.9 169.17 L 121.32 169.64 C 121.16666666666667 169.76666666666668 121.03 169.74666666666667 120.91 169.58 L 117.06 164.19 C 116.69357921639174 163.67156395289985 115.92078360884501 163.676681803922 115.54999999999998 164.2 C 114.02333333333334 166.4 112.17666666666668 168.27 110.01 169.81 C 109.40333333333334 170.24333333333334 108.87333333333333 170.76000000000002 108.42 171.36 C 108.09333333333333 171.78666666666666 108.11666666666667 172.19333333333333 108.49 172.58 L 113.23 177.51 C 113.27666666666667 177.56333333333333 113.27666666666667 177.61666666666667 113.23 177.67 L 112.82 178.1 C 112.71333333333332 178.20666666666665 112.60666666666667 178.20666666666665 112.5 178.1 L 107.87 173.52 C 107.60333333333334 173.25333333333333 107.33333333333333 173.25 107.06 173.51 Z"/>
  <path fill="#633b39" d="M 104.5 149.03 C 104.24993165703435 148.72848578540632 103.79380898316862 148.7098685335565 103.52 148.99 L 95.31 157.29 C 95.0646395531819 157.54217717194703 95.06024049069701 157.94249183971615 95.3 158.2 L 106.96 170.47 C 107.20902933846185 170.73398680940997 107.62447469131129 170.74738827256556 107.89 170.5 L 115.35 163.45 C 115.59779258769912 163.21379101437384 115.6238460922517 162.8273306945299 115.41 162.56 L 104.5 149.03 Z"/>
  <path fill="#633b39" d="M 105.52 148.66 L 116.36 161.92 C 116.62 162.23333333333332 116.87 162.22666666666666 117.11 161.9 C 118.43 160.10666666666668 120.12666666666667 158.58333333333334 122.2 157.33 C 123.27333333333334 156.68333333333334 123.37333333333333 155.91 122.5 155.01 C 118.36666666666666 150.75666666666666 114.71666666666667 146.42666666666668 111.55 142.02 C 111.23666666666666 141.58666666666667 110.86666666666666 141.52666666666667 110.44 141.84 C 109.29333333333334 142.68 107.64666666666666 144.47333333333333 105.5 147.22 C 105.12666666666667 147.70666666666665 105.13333333333333 148.18666666666667 105.52 148.66 Z"/>
  <path fill="#633b39" d="M 94 156.48 C 94.11494685142452 156.6038192536073 94.30942149343636 156.60834191975442 94.43 156.49 L 103.16 147.88 C 103.26771918648622 147.77128646787386 103.27633769110983 147.59891637598002 103.18 147.48 L 90.82 132.61 C 90.70719786785435 132.47636072585158 90.50446094415247 132.46714541118786 90.38 132.59 L 81.06 141.8 C 80.949185716163 141.91269536098767 80.94481154752118 142.09203627949427 81.05 142.21 L 94 156.48 Z"/>
  <path fill="#633b39" d="M 103.99 146.86 C 104.1227248371911 147.0238729409149 104.37107282035174 147.02864886361547 104.51 146.87 L 109.74 140.84 C 109.8476938295993 140.71310258480392 109.8476938295993 140.5268974151961 109.74 140.4 L 97.38 125.93 C 97.25127170867866 125.77835686511112 97.0204290904152 125.76912316048904 96.88 125.91 L 91.53 131.26 C 91.40472724918932 131.38480247650688 91.39603188957571 131.5847957469447 91.51 131.72 L 103.99 146.86 Z"/>
  <path fill="#633b39" d="M 79.99 120.4 C 79.70229501849437 120.07768024007629 79.20575994950637 120.05511046422743 78.89 120.35 L 69.97 128.79 C 69.66090304120404 129.07580246757217 69.6386318043469 129.55686118272854 69.92 129.87 L 79.73 140.73 C 80.02435944492738 141.05336945418597 80.52860360563527 141.06699767473899 80.84 140.76 L 89.53 132.06 C 89.82046967473332 131.7709416405063 89.83365601777989 131.30502418111638 89.56 131 L 79.99 120.4 Z"/>
  <path fill="#633b39" d="M 86.59 113.55 C 86.35348239703471 113.27296437653702 85.92846073216413 113.26362324096793 85.68 113.53 L 80.8 118.78 C 80.58602748623011 119.00998540291636 80.58169968724603 119.36486492837052 80.79 119.6 L 90.26 130.26 C 90.49144243022837 130.51840053592926 90.8914971390173 130.53203876458528 91.14 130.29 L 96.05 125.49 C 96.27885091142404 125.26659680659817 96.29630739967796 124.90437467814785 96.09 124.66 L 86.59 113.55 Z"/>
  <path fill="#9c6b66" d=" M 144.67 130.28 C 143.12 125.87 141.25 121.37 140.22 117.05 A 2.38 2.37 -17.6 0 1 141.66 114.28 L 146.26 112.48 Q 147.34 112.06 147.80 113.12 Q 151.02 120.47 153.49 128.17 Q 153.74 128.93 152.95 129.01 L 151.39 129.16 Q 150.86 129.21 150.38 129.42 L 146.51 131.09 A 1.38 1.37 68.7 0 1 144.67 130.28 Z"/>
  <path fill="#9c6b66" d=" M 86.59 113.55 L 96.09 124.66 A 0.61 0.61 0.0 0 1 96.05 125.49 L 91.14 130.29 A 0.61 0.61 0.0 0 1 90.26 130.26 L 80.79 119.60 A 0.61 0.61 0.0 0 1 80.80 118.78 L 85.68 113.53 A 0.61 0.61 0.0 0 1 86.59 113.55 Z"/>
  <path fill="#9c6b66" d=" M 137.65 116.48 A 0.72 0.72 0.0 0 1 138.58 116.89 L 143.21 128.96 A 3.35 2.18 69.0 0 1 142.38 132.87 L 136.01 135.32 A 3.35 2.18 69.0 0 1 132.78 132.97 L 128.14 120.90 A 0.72 0.72 0.0 0 1 128.56 119.97 L 137.65 116.48 Z"/>
  <path fill="#9c6b66" d=" M 79.99 120.40 L 89.56 131.00 A 0.77 0.77 0.0 0 1 89.53 132.06 L 80.84 140.76 A 0.77 0.77 0.0 0 1 79.73 140.73 L 69.92 129.87 A 0.77 0.77 0.0 0 1 69.97 128.79 L 78.89 120.35 A 0.77 0.77 0.0 0 1 79.99 120.40 Z"/>
  <path fill="#9c6b66" d=" M 103.99 146.86 L 91.51 131.72 A 0.34 0.34 0.0 0 1 91.53 131.26 L 96.88 125.91 A 0.34 0.34 0.0 0 1 97.38 125.93 L 109.74 140.40 A 0.34 0.34 0.0 0 1 109.74 140.84 L 104.51 146.87 A 0.34 0.34 0.0 0 1 103.99 146.86 Z"/>
  <path fill="#633b39" d=" M 108.56 188.24 Q 107.59 190.57 106.15 191.67 Q 105.71 190.62 105.19 190.04 Q 95.87 179.62 86.67 169.07 Q 71.07 151.19 55.29 133.48 Q 54.09 132.14 54.23 128.21 Q 56.17 128.97 58.21 131.29 Q 73.41 148.59 88.58 165.92 Q 98.44 177.18 108.56 188.24 Z"/>
  <path fill="#9c6b66" d=" M 94.00 156.48 L 81.05 142.21 A 0.30 0.30 0.0 0 1 81.06 141.80 L 90.38 132.59 A 0.30 0.30 0.0 0 1 90.82 132.61 L 103.18 147.48 A 0.30 0.30 0.0 0 1 103.16 147.88 L 94.43 156.49 A 0.30 0.30 0.0 0 1 94.00 156.48 Z"/>
  <path fill="#9c6b66" d=" M 141.03 150.58 L 135.01 137.16 A 0.34 0.34 0.0 0 1 135.20 136.71 L 144.43 133.36 A 0.34 0.34 0.0 0 1 144.87 133.56 L 149.61 146.55 A 0.34 0.34 0.0 0 1 149.44 146.97 L 141.48 150.75 A 0.34 0.34 0.0 0 1 141.03 150.58 Z"/>
  <path fill="#9c6b66" d=" M 116.36 161.92 L 105.52 148.66 Q 104.94 147.95 105.50 147.22 Q 108.72 143.10 110.44 141.84 Q 111.08 141.37 111.55 142.02 Q 116.30 148.63 122.50 155.01 Q 123.81 156.36 122.20 157.33 Q 119.09 159.21 117.11 161.90 Q 116.75 162.39 116.36 161.92 Z"/>
  <path fill="#9c6b66" d=" M 104.50 149.03 L 115.41 162.56 A 0.66 0.66 0.0 0 1 115.35 163.45 L 107.89 170.50 A 0.66 0.66 0.0 0 1 106.96 170.47 L 95.30 158.20 A 0.66 0.66 0.0 0 1 95.31 157.29 L 103.52 148.99 A 0.66 0.66 0.0 0 1 104.50 149.03 Z"/>
  <path fill="#eceda7" d="M 231.04 166.09 C 229.7 166.82333333333332 229.28333333333333 168.05 229.79 169.77 C 231.69 176.20333333333332 232.20999999999998 182.02666666666667 231.35 187.24 C 230.80333333333334 190.57333333333335 230.33666666666667 194.01333333333335 229.95 197.56 C 229.46 202.09 228.21 206.3 227.75 210.92 C 227.13 217.13333333333333 224.99 223.03333333333333 221.33 228.62 C 219.72333333333333 231.06666666666666 217.44333333333333 233.13666666666666 214.49 234.83 C 206.73 239.27 198.47 240.21 189.78 240.73 C 172.1 241.76999999999998 154.17666666666665 241.61666666666667 136.01 240.27 C 128.26333333333332 239.69 115.81666666666666 237.68666666666667 98.67 234.26 L 98.06 226.78 L 98.23 221.34 C 98.85 217.23333333333335 99.62 213.05333333333334 100.54 208.8 C 101.54666666666667 204.12 103.03 199.6 104.99 195.24 C 105.53666666666666 194.02 105.92333333333333 192.82999999999998 106.15 191.67 C 107.11 190.93666666666667 107.91333333333334 189.79333333333332 108.56 188.24 C 112.99333333333333 181.65333333333334 116.33333333333333 177.18666666666667 118.58 174.84 C 124.9 168.24666666666667 131.29333333333332 163.12666666666667 137.76 159.48 C 139.01333333333332 158.7733333333333 141.79999999999998 157.42666666666665 146.12 155.44 C 151.82 152.83 157.75 151.7 163.84 150.14 C 179.18 147.9 194.23333333333332 149.34333333333333 209 154.47 C 216.96 157.23666666666668 224.30666666666667 161.11 231.04 166.09 Z"/>
  <path fill="#eceda7" d="M 158.85 159.22 C 154.9 160.36 150.12 162.55 146.39 165.02 C 135.87 171.99 126.96 182 119.05 192.69 C 114.12333333333333 199.35 110.82 206.88 109.14 215.28 C 108.82666666666667 216.84 108.75 218.38333333333333 108.91 219.91 C 109.02035010744764 220.96657758215838 110.23309770868067 221.50748107608783 111.09294568217514 220.88362628864866 C 111.14102848968422 220.84874024997353 111.1868085012578 220.81078586162874 111.23 220.77 C 113.47 218.66333333333336 115.28666666666668 216.32666666666668 116.68 213.76 C 123.06 202.01 135.77 192.33 147.62 185.83 C 153.71333333333334 182.49 159.74666666666667 178.85 165.72 174.91 C 167.64 173.64333333333332 169.02666666666667 172.23333333333332 169.88 170.68 C 172.4 166.13 170 160.66 165.03 159.31 C 162.79666666666668 158.70333333333335 160.73666666666668 158.67333333333335 158.85 159.22 Z"/>
  <path fill="#8a71b3" d="M 321.46 149.62 C 321.8 150.08666666666667 322.3266666666667 150.13666666666666 323.04 149.77 C 323.02 150.13 323.19 150.34 323.55 150.4 C 330.65 151.53333333333333 336.68666666666667 152.74333333333334 341.66 154.03 C 343.55333333333334 155.35666666666668 345.1166666666667 155.95000000000002 346.35 155.81 L 354.26 159.72 C 359.3533333333333 165.47333333333333 362.60999999999996 170.13 364.03 173.69 C 369.01666666666665 186.21666666666667 369.29333333333335 198.57333333333332 364.86 210.76 C 362.46 217.34 358.01 223.00666666666666 351.51 227.76 C 348.0233333333333 230.30666666666667 343.6133333333333 232.45333333333335 338.28 234.2 C 331.9533333333333 236.28 327.02333333333337 237.52333333333334 323.49 237.93 C 311.66333333333336 239.30333333333334 300.12666666666667 240.51000000000002 288.88 241.55 C 271.2 243.18 253.81 243.55 236.08 244.43 C 235.76666666666668 244.44333333333333 235.5066666666667 244.57 235.3 244.81 L 234.11 246.2 C 233.65666666666667 244.92666666666665 233.32 243.60666666666665 233.1 242.24 C 231.78666666666666 233.95333333333335 231.50333333333333 225.6 232.25 217.18 C 232.97 209.1 235.68 201.85 238.86 194.64 C 239.76000000000002 192.6 240.94666666666666 190.39666666666668 242.42 188.03 C 243.70666666666665 185.97666666666666 244.96666666666667 183.97333333333333 246.2 182.02 C 254.9933333333333 170.17333333333335 265.94666666666666 161.37333333333333 279.06 155.62 C 283.3666666666667 153.72666666666666 288.0833333333333 152.22333333333333 293.21 151.11 C 302.89 149.02 310.41 149.01 321.46 149.62 Z"/>
  <path fill="#8a71b3" d="M 245.69 208.71 C 243.87 213.40333333333334 242.88 219.13333333333333 242.72 225.9 C 242.69333333333333 226.98666666666668 242.89666666666668 228.04 243.33 229.06 C 243.48805822308233 229.4253695890771 243.93777647304384 229.55932821670527 244.27 229.34 C 246.47 227.87333333333333 248.04666666666665 225.87 249 223.33 C 251.94 215.49666666666667 256.50666666666666 208.49 262.7 202.31 C 268.1 196.92333333333332 273.73333333333335 192.03666666666666 279.6 187.65 C 283.54 184.69666666666666 287.23 181.87333333333333 290.67 179.18 C 292.7 177.58 295.45 175.18 296.61 172.76 C 298.88 168.01 298.02 163.53 292.56 161.61 C 288.93 160.33 285.64 161.56 282.26 163.04 C 275.87 165.85 270.04 171.48 265.41 176.91 C 257.35 186.36 250.12 197.28 245.69 208.71 Z"/>
  <path fill="#fafaeb" d=" M 146.39 165.02 C 150.12 162.55 154.90 160.36 158.85 159.22 Q 161.68 158.40 165.03 159.31 C 170.00 160.66 172.40 166.13 169.88 170.68 Q 168.60 173.01 165.72 174.91 Q 156.76 180.82 147.62 185.83 C 135.77 192.33 123.06 202.01 116.68 213.76 Q 114.59 217.61 111.23 220.77 A 1.38 1.38 0.0 0 1 108.91 219.91 Q 108.67 217.62 109.14 215.28 Q 111.66 202.68 119.05 192.69 C 126.96 182.00 135.87 171.99 146.39 165.02 Z"/>
  <path fill="#775da7" d=" M 354.26 159.72 C 372.29 169.04 386.24 185.76 388.88 206.17 Q 390.07 215.46 390.18 222.75 Q 390.19 223.21 391.01 223.07 Q 390.45 223.13 390.07 223.58 Q 389.81 223.90 389.79 224.51 Q 389.72 226.83 389.46 228.87 L 388.29 238.04 L 388.24 238.47 Q 388.20 238.94 387.76 239.09 Q 378.22 242.33 368.35 243.70 C 353.24 245.80 337.48 247.92 322.25 248.92 Q 279.91 251.68 235.65 251.34 L 234.11 246.20 L 235.30 244.81 Q 235.61 244.45 236.08 244.43 C 253.81 243.55 271.20 243.18 288.88 241.55 Q 305.75 239.99 323.49 237.93 Q 328.79 237.32 338.28 234.20 Q 346.28 231.58 351.51 227.76 Q 361.26 220.63 364.86 210.76 Q 371.51 192.48 364.03 173.69 Q 361.90 168.35 354.26 159.72 Z"/>
  <path fill="#d7c4e1" d=" M 245.69 208.71 C 250.12 197.28 257.35 186.36 265.41 176.91 C 270.04 171.48 275.87 165.85 282.26 163.04 C 285.64 161.56 288.93 160.33 292.56 161.61 C 298.02 163.53 298.88 168.01 296.61 172.76 C 295.45 175.18 292.70 177.58 290.67 179.18 Q 285.51 183.22 279.60 187.65 Q 270.80 194.23 262.70 202.31 Q 253.41 211.58 249.00 223.33 Q 247.57 227.14 244.27 229.34 A 0.64 0.64 0.0 0 1 243.33 229.06 Q 242.68 227.53 242.72 225.90 Q 242.96 215.75 245.69 208.71 Z"/>
  <path fill="#e5e880" d=" M 231.04 166.09 Q 239.83 172.45 246.20 182.02 Q 244.35 184.95 242.42 188.03 Q 240.21 191.58 238.86 194.64 C 235.68 201.85 232.97 209.10 232.25 217.18 Q 231.13 229.81 233.10 242.24 Q 233.43 244.29 234.11 246.20 L 235.65 251.34 Q 197.45 251.04 179.75 250.16 Q 154.77 248.93 137.45 246.68 C 124.97 245.06 112.11 244.09 99.99 240.47 Q 99.29 240.26 99.34 239.54 L 98.67 234.26 Q 124.39 239.40 136.01 240.27 Q 163.26 242.29 189.78 240.73 C 198.47 240.21 206.73 239.27 214.49 234.83 Q 218.92 232.29 221.33 228.62 Q 226.82 220.24 227.75 210.92 C 228.21 206.30 229.46 202.09 229.95 197.56 Q 230.53 192.24 231.35 187.24 Q 232.64 179.42 229.79 169.77 Q 229.03 167.19 231.04 166.09 Z"/>
  <path fill="#7c7984" d="M 98.23 221.34 L 98.06 226.78 C 94.47333333333334 228.14666666666668 92.10666666666667 229.1966666666667 90.96 229.93 C 89.79333333333332 230.67 88.92333333333333 231.57333333333332 88.35 232.64 C 86.93 235.25 91.37 237.85 93.25 238.34 C 95.05 238.8 96.85666666666667 239.41 98.67 240.17 C 98.88909377629082 240.25734527501584 99.13918240740121 240.17256946757988 99.26 239.97 C 99.32666666666667 239.85 99.35333333333334 239.70666666666665 99.34 239.54 C 99.30666666666667 240.01999999999998 99.52333333333334 240.32999999999998 99.99 240.47 C 112.11 244.09 124.97 245.06 137.45 246.68 C 148.99666666666667 248.18 163.09666666666666 249.34 179.75 250.16 C 191.54999999999998 250.74666666666667 210.18333333333334 251.14 235.65 251.34 C 265.1566666666667 251.56666666666666 294.02333333333337 250.76 322.25 248.92 C 337.48 247.92 353.24 245.8 368.35 243.7 C 374.93 242.78666666666666 381.40000000000003 241.25 387.76 239.09 C 388.05333333333334 238.99 388.2133333333333 238.78333333333333 388.24 238.47 L 388.29 238.04 C 388.45 238.46666666666667 388.6433333333333 238.66 388.87 238.62 C 391.30333333333334 238.16 393.2833333333333 236.93666666666667 394.81 234.95 C 396.98 232.14 391.39 229.25 389.46 228.87 C 389.6333333333333 227.51000000000002 389.74333333333334 226.05666666666667 389.79 224.51 C 389.80333333333334 224.10333333333332 389.89666666666665 223.79333333333335 390.07 223.58 C 390.3233333333333 223.28 390.63666666666666 223.10999999999999 391.01 223.07 C 394.95666666666665 224.57 398.7733333333333 226.38 402.46 228.5 C 406.64 230.91 406.17 234.58 404.1 238.76 C 404.12666666666667 238.41333333333333 404.13666666666666 238.23333333333335 404.13 238.22 C 403.91544415603613 237.84848696997145 403.425644569277 237.745862294436 403.08 238 C 399.70666666666665 240.50666666666666 396.02 242.35999999999999 392.02 243.56 C 380.63 246.98 368.65 249.96 356.38 251.2 C 355.4 251.3 354.43 252.14 353.51 252.01 C 351.57666666666665 251.73 349.81666666666666 251.94333333333333 348.23 252.65 C 345.13 252.89 342.04333333333335 253.23666666666665 338.97 253.69 C 330.02 255 321.11 255.21 312.03 255.87 C 308.97 256.09 305.97 255.95 302.9 256.36 C 300.64 256.65333333333336 298.37 256.85 296.09 256.95 C 281.74 257.55 267.54 258.21 253.41 258.22 C 242.91666666666666 258.2266666666667 231.9933333333333 258.23333333333335 220.64 258.24 C 219.80666666666664 258.24 219.30666666666664 258.65000000000003 219.14 259.47 C 218.95333333333335 260.43666666666667 218.85333333333335 261.3933333333333 218.84 262.34 C 218.77333333333334 267.62 218.47 272.95 217.93 278.33 C 217.03666666666666 287.36333333333334 215.94333333333333 295.88666666666666 214.65 303.9 C 213.49666666666667 311.05333333333334 211.66333333333333 319.0933333333333 209.15 328.02 C 208.36333333333334 330.82666666666665 207.4 333.62 206.26 336.4 C 205.06 339.32 203.86333333333334 341.9633333333333 202.67 344.33 C 200.2 349.22 195.62 355.13 191.1 358.7 C 185.65333333333334 362.9866666666667 179.26666666666668 365.26 171.94 365.52 C 169.42 365.61 166.84 365.11 164.32 364.87 C 162.80666666666667 364.7233333333333 161.00333333333333 364.19666666666666 158.91 363.29 C 155.41666666666666 361.77666666666664 151.69 360.5133333333333 147.73 359.5 C 145.58333333333331 357.5266666666667 143.57333333333332 355.37666666666667 141.7 353.05 C 135.73333333333332 345.6166666666667 130.09333333333333 337.58 124.78 328.94 C 113.97 311.34 104.08 293.11 95.32 274.42 C 90.24 263.58000000000004 84.57666666666667 250.91666666666669 78.33 236.43 C 77.70333333333333 234.98333333333332 77.44666666666667 233.77333333333334 77.56 232.8 C 78.18 227.38 93.14 222.55 98.23 221.34 Z"/>
  <path fill="#7c7984" d="M 155.98 331.06 C 153.69 326.39 151.88 321.73 149.78 317.05 C 147.06 310.98 144.84 304.2 142.28 297.76 C 140.58 293.46 139.48 288.95 137.91 284.48 C 135.2 276.79 133.27 268.52 130.7 260.67 C 129.8 257.95 129.44 255.07 128.83 252.25 C 128.69904804918926 251.66382559669324 128.19908513899298 251.2329632488406 127.6 251.19 C 119.05333333333333 250.57666666666668 110.63333333333334 249.07 102.34 246.67 C 101.91980189750811 246.5436398480709 101.52038920568975 246.91954254211015 101.62105715533905 247.34662484945468 C 101.62370014966373 247.3578377143081 101.62668246779073 247.36896787702835 101.63 247.38 C 103.05666666666666 252.40666666666667 104.60333333333332 257.51 106.27 262.69 C 108.07 268.26 110.55 273.47 112.5 278.86 C 113.32000000000001 281.1066666666667 114.27333333333334 283.4066666666667 115.36 285.76 C 116.36 287.94666666666666 117.40666666666667 290.18333333333334 118.5 292.47 C 121.61333333333333 299.0166666666667 125.41 306.0133333333333 129.89 313.46 C 136.83 324.9866666666667 144.40333333333334 335.3666666666667 152.61 344.6 C 153.84333333333333 345.9866666666667 155.15333333333334 347.32 156.54 348.6 C 159.23 351.08 160.77 353.3 164.86 353.64 C 165.23333333333332 353.67333333333335 165.4933333333333 353.51666666666665 165.64 353.17 C 166.14 351.99666666666667 166.06333333333333 350.79333333333335 165.41 349.56 C 162.29666666666668 343.6933333333333 159.15333333333334 337.52666666666664 155.98 331.06 Z"/>
  <path fill="#43404b" d=" M 98.06 226.78 L 98.67 234.26 L 99.34 239.54 Q 99.36 239.79 99.26 239.97 A 0.48 0.48 0.0 0 1 98.67 240.17 Q 95.95 239.03 93.25 238.34 C 91.37 237.85 86.93 235.25 88.35 232.64 Q 89.21 231.04 90.96 229.93 Q 92.68 228.83 98.06 226.78 Z"/>
  <path fill="#43404b" d=" M 389.46 228.87 C 391.39 229.25 396.98 232.14 394.81 234.95 Q 392.52 237.93 388.87 238.62 Q 388.53 238.68 388.29 238.04 L 389.46 228.87 Z"/>
  <path fill="#43404b" d=" M 404.10 238.76 Q 401.96 243.58 400.08 248.52 Q 398.28 253.24 396.21 258.34 Q 391.77 269.32 387.03 280.04 Q 379.24 297.65 368.93 317.03 Q 359.24 335.24 347.40 352.24 Q 333.10 372.77 314.50 385.36 C 309.92 388.46 305.10 390.97 300.21 393.49 C 299.62 393.80 298.67 393.77 298.07 394.05 Q 296.56 394.78 298.21 395.08 Q 304.75 396.28 311.23 399.42 C 314.62 401.06 315.41 405.13 314.02 408.41 Q 313.09 410.61 310.35 411.91 Q 302.82 415.46 297.15 416.07 Q 286.42 417.23 276.03 417.93 Q 253.57 419.45 231.77 417.54 C 223.09 416.78 214.42 416.38 205.68 414.84 Q 196.58 413.24 188.20 411.33 C 184.96 410.60 181.12 408.33 180.47 404.69 Q 179.82 400.97 183.07 398.59 Q 187.86 395.08 193.87 393.82 Q 194.73 393.65 193.93 393.30 Q 182.27 388.19 171.45 380.77 C 169.60 379.50 168.01 378.08 166.09 376.83 Q 163.03 374.82 160.22 371.46 Q 170.22 375.83 180.16 378.91 Q 188.38 381.46 197.72 382.89 Q 210.62 384.85 215.88 384.89 Q 222.70 384.93 235.38 382.76 Q 241.11 381.78 246.73 379.83 Q 252.82 377.73 257.46 375.71 Q 271.18 369.74 283.74 362.00 Q 285.38 360.99 286.48 362.57 L 286.76 362.99 Q 288.18 365.03 286.10 366.38 Q 272.67 375.15 257.54 381.34 Q 254.76 382.48 251.75 383.15 A 0.25 0.25 0.0 0 0 251.56 383.45 L 251.61 383.71 Q 251.65 383.88 251.81 383.85 Q 254.79 383.33 257.58 382.71 Q 260.34 382.10 262.85 381.26 Q 275.28 377.06 285.92 369.87 Q 289.89 367.19 293.79 364.32 C 295.61 362.98 296.56 361.26 298.28 359.94 Q 300.17 358.49 301.86 356.70 Q 314.48 343.38 323.32 327.69 C 325.76 323.36 328.46 319.08 330.48 314.61 C 332.43 310.29 334.92 306.36 336.55 301.97 C 338.32 297.20 340.80 292.66 342.46 287.81 C 344.27 282.55 346.48 277.62 348.15 272.15 Q 349.65 267.21 351.79 262.03 C 353.00 259.12 353.35 256.22 354.46 253.34 Q 354.57 253.05 354.28 252.95 L 353.97 252.85 Q 353.73 252.77 353.65 253.02 Q 351.94 258.58 349.57 263.75 C 347.96 267.26 347.23 270.94 345.53 274.48 C 343.47 278.74 341.91 283.28 339.78 287.44 Q 337.43 292.05 335.61 296.73 A 2.18 2.18 0.0 0 1 333.84 298.11 Q 332.24 298.31 331.31 297.27 Q 330.07 295.89 330.93 294.25 Q 333.79 288.84 336.01 283.52 C 338.16 278.36 340.85 273.53 342.42 268.40 Q 343.46 265.00 344.08 263.79 Q 346.74 258.63 348.23 252.65 Q 350.61 251.59 353.51 252.01 C 354.43 252.14 355.40 251.30 356.38 251.20 C 368.65 249.96 380.63 246.98 392.02 243.56 Q 398.02 241.76 403.08 238.00 A 0.72 0.72 0.0 0 1 404.13 238.22 Q 404.14 238.24 404.10 238.76 Z"/>
  <path fill="#d7d4db" d=" M 155.98 331.06 Q 160.74 340.76 165.41 349.56 Q 166.39 351.41 165.64 353.17 Q 165.42 353.69 164.86 353.64 C 160.77 353.30 159.23 351.08 156.54 348.60 Q 154.46 346.68 152.61 344.60 Q 140.30 330.75 129.89 313.46 Q 123.17 302.29 118.50 292.47 Q 116.86 289.04 115.36 285.76 Q 113.73 282.23 112.50 278.86 C 110.55 273.47 108.07 268.26 106.27 262.69 Q 103.77 254.92 101.63 247.38 A 0.57 0.57 0.0 0 1 102.34 246.67 Q 114.78 250.27 127.60 251.19 A 1.36 1.36 0.0 0 1 128.83 252.25 C 129.44 255.07 129.80 257.95 130.70 260.67 C 133.27 268.52 135.20 276.79 137.91 284.48 C 139.48 288.95 140.58 293.46 142.28 297.76 C 144.84 304.20 147.06 310.98 149.78 317.05 C 151.88 321.73 153.69 326.39 155.98 331.06 Z"/>
  <path fill="#6c6876" d="M 348.23 252.65 C 347.2366666666667 256.63666666666666 345.85333333333335 260.35 344.08 263.79 C 343.66666666666663 264.5966666666667 343.11333333333334 266.1333333333333 342.42 268.4 C 340.85 273.53 338.16 278.36 336.01 283.52 C 334.53000000000003 287.06666666666666 332.8366666666667 290.6433333333333 330.93 294.25 C 330.3566666666667 295.3433333333333 330.48333333333335 296.34999999999997 331.31 297.27 C 331.93 297.9633333333333 332.7733333333333 298.24333333333334 333.84 298.11 C 334.6396621437495 298.01237855947085 335.3203040931855 297.48170856811134 335.61 296.73 C 336.8233333333333 293.61 338.2133333333333 290.5133333333333 339.78 287.44 C 341.91 283.28 343.47 278.74 345.53 274.48 C 347.23 270.94 347.96 267.26 349.57 263.75 C 351.15 260.30333333333334 352.51 256.7266666666667 353.65 253.02 C 353.7033333333333 252.85333333333335 353.81 252.79666666666668 353.97 252.85 L 354.28 252.95 C 354.4733333333333 253.01666666666668 354.5333333333333 253.14666666666668 354.46 253.34 C 353.35 256.22 353 259.12 351.79 262.03 C 350.36333333333334 265.4833333333333 349.15 268.8566666666666 348.15 272.15 C 346.48 277.62 344.27 282.55 342.46 287.81 C 340.8 292.66 338.32 297.2 336.55 301.97 C 334.92 306.36 332.43 310.29 330.48 314.61 C 328.46 319.08 325.76 323.36 323.32 327.69 C 317.4266666666667 338.15 310.27333333333337 347.82 301.86 356.7 C 300.73333333333335 357.8933333333333 299.54 358.97333333333336 298.28 359.94 C 296.56 361.26 295.61 362.98 293.79 364.32 C 291.19 366.23333333333335 288.56666666666666 368.0833333333333 285.92 369.87 C 278.82666666666665 374.66333333333336 271.13666666666666 378.46 262.85 381.26 C 261.1766666666667 381.82 259.41999999999996 382.30333333333334 257.58 382.71 C 255.72 383.12333333333333 253.79666666666665 383.50333333333333 251.81 383.85 C 251.70333333333335 383.87 251.63666666666668 383.8233333333333 251.61 383.71 L 251.56 383.45 C 251.52897259043868 383.31457784266877 251.61431004510857 383.1798344931562 251.75 383.15 C 253.75666666666666 382.7033333333333 255.68666666666667 382.1 257.54 381.34 C 267.62666666666667 377.2133333333333 277.1466666666667 372.22666666666663 286.1 366.38 C 287.4866666666667 365.47999999999996 287.70666666666665 364.34999999999997 286.76 362.99 L 286.48 362.57 C 285.74666666666667 361.51666666666665 284.8333333333333 361.32666666666665 283.74 362 C 275.3666666666667 367.16 266.6066666666667 371.73 257.46 375.71 C 254.36666666666665 377.0566666666667 250.79 378.43 246.73 379.83 C 242.98333333333335 381.13 239.20000000000002 382.1066666666666 235.38 382.76 C 226.92666666666665 384.20666666666665 220.42666666666665 384.9166666666667 215.88 384.89 C 212.37333333333333 384.86333333333334 206.32 384.19666666666666 197.72 382.89 C 191.49333333333334 381.93666666666667 185.64 380.61 180.16 378.91 C 173.53333333333333 376.8566666666667 166.88666666666666 374.37333333333333 160.22 371.46 C 156.24666666666667 368.62 152.08333333333331 364.6333333333333 147.73 359.5 C 151.69 360.5133333333333 155.41666666666666 361.77666666666664 158.91 363.29 C 161.00333333333333 364.19666666666666 162.80666666666667 364.7233333333333 164.32 364.87 C 166.84 365.11 169.42 365.61 171.94 365.52 C 179.26666666666668 365.26 185.65333333333334 362.9866666666667 191.1 358.7 C 195.62 355.13 200.2 349.22 202.67 344.33 C 203.86333333333334 341.9633333333333 205.06 339.32 206.26 336.4 C 207.4 333.62 208.36333333333334 330.82666666666665 209.15 328.02 C 211.66333333333333 319.0933333333333 213.49666666666667 311.05333333333334 214.65 303.9 C 215.94333333333333 295.88666666666666 217.03666666666666 287.36333333333334 217.93 278.33 C 218.47 272.95 218.77333333333334 267.62 218.84 262.34 C 218.85333333333335 261.3933333333333 218.95333333333335 260.43666666666667 219.14 259.47 C 219.30666666666664 258.65000000000003 219.80666666666664 258.24 220.64 258.24 C 231.9933333333333 258.23333333333335 242.91666666666666 258.2266666666667 253.41 258.22 C 267.54 258.21 281.74 257.55 296.09 256.95 C 298.37 256.85 300.64 256.65333333333336 302.9 256.36 C 305.97 255.95 308.97 256.09 312.03 255.87 C 321.11 255.21 330.02 255 338.97 253.69 C 342.04333333333335 253.23666666666665 345.13 252.89 348.23 252.65 Z"/>
  <path fill="#6c6876" d="M 237.11 378.04 C 236.91666666666666 376.83333333333337 236.12 376.31333333333333 234.72 376.48 C 225.29333333333335 377.6066666666667 217.53 378.00333333333333 211.43 377.67 C 207.10333333333332 377.43666666666667 200.92666666666668 376.8933333333333 192.9 376.04 C 192.55953488218523 376.00110350317345 192.22004156159707 376.09044385095854 191.95 376.29 C 190.94333333333333 377.03 190.52333333333334 378.1333333333333 190.69 379.6 C 190.73666666666665 380 190.95 380.26666666666665 191.33 380.4 C 193.53666666666666 381.1666666666667 195.92333333333332 381.68333333333334 198.49 381.95 C 211.33 383.2833333333333 223.45333333333335 383.21999999999997 234.86 381.76 C 235.48666666666668 381.68666666666667 236.06 381.4733333333333 236.58 381.12 C 237.18666666666667 380.70666666666665 237.44333333333333 380.18666666666667 237.35 379.56 C 237.26999999999998 379.06 237.19 378.55333333333334 237.11 378.04 Z"/>
  <path fill="#6c6876" d="M 300.2341 351.2131 C 299.2796554670923 350.23839511769495 297.71575884314893 350.2220084529141 296.7411 351.1765 L 290.1966 357.5854 C 289.2219616109644 358.53983350271676 289.20557528567633 360.10365300483807 290.16 361.0783 L 290.2859 361.2069 C 291.2403445329077 362.18160488230507 292.8042411568511 362.19799154708585 293.7789 361.2435 L 300.3234 354.8346 C 301.2980383890356 353.88016649728326 301.3144247143237 352.31634699516195 300.36 351.3417 L 300.2341 351.2131 Z"/>
  <rect fill="#43404b" x="-7.05" y="-2.56" transform="matrix(0.7144726609996412, -0.6996633595409235, 0.6996633595409235, 0.7144726609996412, 295.260009765625, 356.2099914550782)" width="14.10" height="5.12" rx="2.47"/>
  <path fill="#43404b" d=" M 237.35 379.56 Q 237.49 380.50 236.58 381.12 Q 235.80 381.65 234.86 381.76 Q 217.75 383.95 198.49 381.95 Q 194.64 381.55 191.33 380.40 Q 190.76 380.20 190.69 379.60 Q 190.44 377.40 191.95 376.29 A 1.36 1.32 29.3 0 1 192.90 376.04 Q 204.94 377.32 211.43 377.67 Q 220.58 378.17 234.72 376.48 Q 236.82 376.23 237.11 378.04 Q 237.23 378.81 237.35 379.56 Z"/>
</svg>
